<?xml version="1.0" standalone="no"?> <!DOCTYPE svg PUBLIC "-//W3C//DTD SVG 1.0//EN" "http://www.w3.org/TR/2001/REC-SVG-20010904/DTD/svg10.dtd" > <svg xmlns="http://www.w3.org/2000/svg" width="100%" height="100%">
<defs >
<font horiz-adv-x="299" ><font-face
    font-family="Knockout 49 Liteweight"
    units-per-em="1000"
    panose-1="2 0 5 6 4 0 0 2 0 4"
    ascent="800"
    descent="-200"
    alphabetic="0" />
<missing-glyph horiz-adv-x="500" d="M0 -200V800H500V-200H0ZM71 750L250 360L429 750H71ZM50 -76L222 300L50 676V-76ZM450 676L278 300L450 -76V676ZM250 240L71 -150H429L250 240Z" />
<glyph unicode=" " glyph-name="space" horiz-adv-x="153" />
<glyph unicode="!" glyph-name="exclam" horiz-adv-x="193" d="M151 377L113 186H79L42 377V666H151V377ZM143 0H49V116H143V0Z" />
<glyph unicode="&quot;" glyph-name="quotedbl" horiz-adv-x="256" d="M265 666L189 463H131L182 666H265ZM137 666L79 463H23L56 666H137Z" />
<glyph unicode="#" glyph-name="numbersign" horiz-adv-x="569" d="M560 429H431L398 236H532V178H387L357 0H292L322 178H198L168 0H103L133 178H13V236H143L176 429H41V488H186L217 666H282L252 488H376L406 666H472L441 488H560V429ZM366 429H242L209 236H332L366
429Z" />
<glyph unicode="$" glyph-name="dollar" horiz-adv-x="419" d="M170 675V754H253V677Q314 666 350 620T386 509V466H280V508Q280 541 264 560T217 580Q191 580 174 564T157 517Q157 508 158 500T162 484T168 470T177 455T187 442T200 428T214 415T231 400T248
385Q293 349 317 326T365 259T389 165Q389 98 352 50T253 -11V-88H170V-12Q106 -1 70 44T33 157V203H140V161Q140 85 208 85Q239 85 256 103T274 155Q274 192 252 222T174 295Q114 342 78 390T41 500Q41 565 75 613T170 675Z" />
<glyph unicode="%" glyph-name="percent" horiz-adv-x="570" d="M231 439Q231 392 203 364T130 336T58 364T30 439V577Q30 624 58 652T130 680T202 652T231 577V439ZM516 655L100 -22L58 10L474 687L516 655ZM544 88Q544 40 516 12T443 -16T371 12T343 88V226Q343
273 371 301T443 329T515 301T544 226V88ZM164 425V592Q164 606 155 615T130 625Q116 625 107 616T97 592V425Q97 411 106 402T130 392Q145 392 154 401T164 425ZM478 73V241Q478 255 468 264T443 273Q429 273 420 264T410 241V73Q410 59 419 50T443 40Q458 40
468 49T478 73Z" />
<glyph unicode="&amp;" glyph-name="ampersand" horiz-adv-x="556" d="M547 98Q547 43 521 14T446 -15Q395 -15 340 37Q279 -15 199 -15Q125 -15 78 35T30 159Q30 279 153 363Q120 438 120 503Q120 584 163 632T278 681Q342 681 377 640T412 533Q412 476 379 430T278
337Q316 239 351 185Q371 218 383 263T396 344H484Q484 288 464 225T408 110Q435 83 457 83Q486 83 486 117V161H547V98ZM317 527Q317 580 277 580Q253 580 240 560T226 507Q226 468 245 414Q281 439 299 469T317 527ZM275 107Q233 164 190 268Q144 230 144 169Q144
130 164 109T222 87Q251 87 275 107Z" />
<glyph unicode="&apos;" glyph-name="quotesingle" horiz-adv-x="166" d="M173 666L93 463H34L72 666H173Z" />
<glyph unicode="(" glyph-name="parenleft" horiz-adv-x="315" d="M320 -132L290 -166Q188 -84 135 36T82 301T135 565T290 768L320 735Q185 570 185 301Q185 33 320 -132Z" />
<glyph unicode=")" glyph-name="parenright" horiz-adv-x="315" d="M235 445T235 301T182 37T27 -166L-4 -132Q132 34 132 301Q132 569 -4 735L27 768Q129 686 182 566Z" />
<glyph unicode="*" glyph-name="asterisk" horiz-adv-x="303" d="M275 484L257 453Q252 442 239 450Q204 470 171 502Q182 450 182 416Q182 402 171 402H134Q123 402 123 416Q123 458 134 502Q101 470 65 449Q53 442 47 451L29 483Q23 493 35 500Q73 521 114 533Q65
548 35 567Q22 573 28 583L46 615Q52 626 64 617Q94 600 133 566Q121 610 121 651Q121 666 133 666H169Q180 666 180 651Q180 609 169 566Q211 603 238 619Q251 625 256 616L275 584Q280 572 268 568Q233 547 189 534Q232 522 268 501Q281 494 275 484Z" />
<glyph unicode="+" glyph-name="plus" horiz-adv-x="342" d="M312 300H212V195H131V300H31V382H131V487H212V382H312V300Z" />
<glyph unicode="," glyph-name="comma" horiz-adv-x="176" d="M136 13Q136 -35 109 -65T31 -95V-66Q56 -66 70 -49T85 0H40V127H136V13Z" />
<glyph unicode="-" glyph-name="hyphen" horiz-adv-x="259" d="M234 263H25V347H234V263Z" />
<glyph unicode="." glyph-name="period" horiz-adv-x="176" d="M136 0H40V127H136V0Z" />
<glyph unicode="/" glyph-name="slash" horiz-adv-x="260" d="M258 729L72 -64H4L189 729H258Z" />
<glyph unicode="0" glyph-name="zero" horiz-adv-x="433" d="M394 158Q394 80 346 33T216 -15T87 32T39 158V507Q39 585 87 632T216 680T345 633T394 507V158ZM280 150V516Q280 541 263 557T216 574T170 558T153 516V150Q153 125 170 109T216 92T262 108T280 150Z" />
<glyph unicode="1" glyph-name="one" horiz-adv-x="247" d="M181 0H66V613Q118 613 118 666H181V0Z" />
<glyph unicode="2" glyph-name="two" horiz-adv-x="396" d="M371 508Q371 446 339 390T234 264Q152 174 152 106H366V0H25V35Q25 113 53 176T162 331Q218 390 240 429T262 511Q262 578 201 578T140 509V448H36V519Q36 585 79 633T199 681Q288 681 329 633T371 508Z" />
<glyph unicode="3" glyph-name="three" horiz-adv-x="396" d="M367 146Q367 73 320 29T192 -15Q115 -15 73 31T30 143V206H134V156Q134 88 194 88T254 151V248Q254 293 205 293H154V381H205Q254 381 254 427V515Q254 578 194 578T134 510V459H30V523Q30 589 72
635T192 681Q272 681 319 637T367 520V452Q367 409 346 379T288 341Q367 318 367 231V146Z" />
<glyph unicode="4" glyph-name="four" horiz-adv-x="394" d="M382 142H328V0H221V142H12V226L230 666H328V238H382V142ZM221 238V451L119 238H221Z" />
<glyph unicode="5" glyph-name="five" horiz-adv-x="398" d="M369 666Q364 609 348 585T292 561H153L142 394Q179 446 255 446Q307 446 338 412T370 322V149Q370 74 323 30T194 -15Q118 -15 75 32T32 143V199H135V156Q135 125 151 107T196 88Q257 88 257 153V303Q257
327 243 342T207 357Q181 357 164 342T140 304L40 319L59 666H369Z" />
<glyph unicode="6" glyph-name="six" horiz-adv-x="417" d="M387 158Q387 80 341 33T213 -15Q133 -15 86 33T39 158V505Q39 584 87 632T216 681Q293 681 336 634T380 523V469H278V510Q278 578 214 578Q152 578 152 510V353Q193 405 263 405Q322 405 354 371T387
280V158ZM275 145V265Q275 321 215 321Q186 321 169 306T152 265V149Q152 122 168 105T213 88Q242 88 258 104T275 145Z" />
<glyph unicode="7" glyph-name="seven" horiz-adv-x="380" d="M370 607Q287 441 247 301T205 0H78Q81 134 130 285T253 557H25V666H370V607Z" />
<glyph unicode="8" glyph-name="eight" horiz-adv-x="423" d="M388 146Q388 73 340 29T211 -15Q131 -15 84 29T36 146V227Q36 265 53 294T99 337Q37 365 37 447V520Q37 593 84 637T211 681Q292 681 339 637T386 520V447Q386 365 324 337Q353 323 370 294T388 227V146ZM275
427V515Q275 544 257 561T211 578T166 561T148 515V427Q148 403 164 386T211 368T258 385T275 427ZM276 151V244Q276 269 259 286T211 303Q181 303 165 286T148 244V151Q148 122 165 105T211 88T257 105T276 151Z" />
<glyph unicode="9" glyph-name="nine" horiz-adv-x="425" d="M387 158Q387 80 338 33T208 -15Q130 -15 85 30T39 141V187H140V155Q140 88 208 88Q273 88 273 154V302Q232 250 166 250Q106 250 72 286T37 379V508Q37 585 84 632T211 680Q294 680 340 633T387 507V158ZM273
390V518Q273 544 257 561T211 578Q183 578 167 562T150 521V390Q150 365 165 349T211 333Q240 333 256 349T273 390Z" />
<glyph unicode=":" glyph-name="colon" horiz-adv-x="176" d="M136 312H40V439H136V312ZM136 0H40V127H136V0Z" />
<glyph unicode=";" glyph-name="semicolon" horiz-adv-x="176" d="M136 312H40V439H136V312ZM136 13Q136 -35 109 -65T31 -95V-66Q56 -66 70 -49T85 0H40V127H136V13Z" />
<glyph unicode="&lt;" glyph-name="less" horiz-adv-x="464" d="M390 100L51 320V347L390 566V465L191 333L390 201V100Z" />
<glyph unicode="=" glyph-name="equal" horiz-adv-x="336" d="M309 381H27V466H309V381ZM309 215H27V301H309V215Z" />
<glyph unicode="&gt;" glyph-name="greater" horiz-adv-x="464" d="M413 320L75 100V202L274 333L75 465V566L413 346V320Z" />
<glyph unicode="?" glyph-name="question" horiz-adv-x="368" d="M350 515Q350 410 251 315Q222 287 211 260T200 194H121Q121 253 137 292T200 398Q239 452 239 505Q239 578 181 578Q122 578 122 506V446H20V517Q20 589 61 635T180 681Q266 681 308 634T350 515ZM206
0H112V116H206V0Z" />
<glyph unicode="@" glyph-name="at" horiz-adv-x="632" d="M609 357Q609 271 563 209T438 147Q398 147 375 169T354 227Q338 193 311 174T253 155Q215 155 191 183T167 257Q167 328 214 395T326 462Q353 462 370 447T391 406L407 454H483L422 265Q400 193 457
193Q500 193 529 238T559 358Q559 460 494 524T326 588Q217 588 146 507T75 308Q75 187 145 109T326 30Q426 30 496 95L524 61Q443 -15 326 -15Q198 -15 112 76T25 308Q25 445 112 539T326 633Q397 633 453 607T542 540T592 451T609 357ZM377 367Q377 413 340 413Q299
413 270 361T241 261Q241 208 282 208Q329 208 352 283L377 367Z" />
<glyph unicode="A" glyph-name="A" horiz-adv-x="413" d="M409 0H283L261 131H143L119 0H3L137 666H276L409 0ZM245 229L205 486L160 229H245Z" />
<glyph unicode="B" glyph-name="B" horiz-adv-x="434" d="M401 141Q401 72 362 36T253 0H43V666H251Q320 666 359 630T398 525V453Q398 358 319 341Q401 319 401 228V141ZM279 433V516Q279 564 235 564H168V381H230Q279 381 279 433ZM281 150V237Q281 290 232
290H168V102H238Q281 102 281 150Z" />
<glyph unicode="C" glyph-name="C" horiz-adv-x="435" d="M408 159Q408 81 361 33T228 -15Q141 -15 89 37T36 168V498Q36 577 88 629T228 681Q314 681 361 633T408 507V426H297V506Q297 536 280 554T230 572T180 555T162 508V158Q162 129 179 112T230 94T280 112T297
160V240H408V159Z" />
<glyph unicode="D" glyph-name="D" horiz-adv-x="453" d="M417 174Q417 93 370 47T235 0H43V666H235Q321 666 369 617T417 486V174ZM292 180V485Q292 559 226 559H167V107H226Q292 107 292 180Z" />
<glyph unicode="E" glyph-name="E" horiz-adv-x="385" d="M361 0H43V666H361V559H167V394H301V296H167V111H361V0Z" />
<glyph unicode="F" glyph-name="F" horiz-adv-x="367" d="M354 562H167V387H305V283H167V0H43V666H354V562Z" />
<glyph unicode="G" glyph-name="G" horiz-adv-x="446" d="M414 0H346L329 53Q295 -15 207 -15Q127 -15 82 34T36 159V507Q36 579 87 629T226 680T361 631T410 507V438H291V512Q291 538 275 555T227 572T179 554T162 510V155Q162 129 179 111T228 93T276 111T294
155V248H229V338H414V0Z" />
<glyph unicode="H" glyph-name="H" horiz-adv-x="473" d="M431 0H306V273H167V0H43V666H167V384H306V666H431V0Z" />
<glyph unicode="I" glyph-name="I" horiz-adv-x="211" d="M167 0H43V666H167V0Z" />
<glyph unicode="J" glyph-name="J" horiz-adv-x="416" d="M376 164Q376 83 329 34T197 -15Q114 -15 67 32T19 158V265H138V156Q138 94 195 94Q251 94 251 156V666H376V164Z" />
<glyph unicode="K" glyph-name="K" horiz-adv-x="439" d="M432 0H302L210 274L167 186V0H43V666H167V361L301 666H426L295 385L432 0Z" />
<glyph unicode="L" glyph-name="L" horiz-adv-x="365" d="M353 0H43V666H167V110H353V0Z" />
<glyph unicode="M" glyph-name="M" horiz-adv-x="599" d="M556 0H439V483L412 338L341 0H247L180 338L154 483V0H43V666H210L279 328L300 205L322 328L390 666H556V0Z" />
<glyph unicode="N" glyph-name="N" horiz-adv-x="471" d="M428 0H332L203 284L156 390V0H42V666H149L272 377L316 271V666H428V0Z" />
<glyph unicode="O" glyph-name="O" horiz-adv-x="450" d="M414 167Q414 86 363 36T225 -15Q139 -15 88 35T36 167V499Q36 579 87 629T225 680T362 630T414 499V167ZM289 159V507Q289 537 272 554T225 572T179 555T162 507V159Q162 129 178 112T225 94T272 111T289 159Z" />
<glyph unicode="P" glyph-name="P" horiz-adv-x="422" d="M399 404Q399 333 359 294T248 255H167V0H43V666H248Q319 666 359 627T399 516V404ZM279 401V514Q279 564 235 564H167V351H235Q279 351 279 401Z" />
<glyph unicode="Q" glyph-name="Q" horiz-adv-x="451" d="M452 0Q432 -15 395 -15Q351 -15 323 15Q278 -15 219 -15Q136 -15 86 35T36 163V503Q36 580 87 630T225 680T362 630T414 503V162Q414 121 398 93Q415 79 452 79V0ZM288 181V512Q288 537 271 554T225 572T179
555T162 512V154Q162 129 179 112T225 94Q248 94 261 103L234 128L288 181Z" />
<glyph unicode="R" glyph-name="R" horiz-adv-x="439" d="M426 -4H351Q283 -4 283 94V219Q283 244 270 260T232 276H167V0H43V666H248Q317 666 358 628T400 521V427Q400 347 325 324Q362 314 382 286T402 223V101Q402 59 426 33V-4ZM279 421V516Q279 564 235 564H167V368H230Q279
368 279 421Z" />
<glyph unicode="S" glyph-name="S" horiz-adv-x="417" d="M393 169Q393 88 342 37T209 -15Q124 -15 74 32T24 157V203H138V164Q138 88 206 88Q238 88 255 106T272 155Q272 193 249 223T172 293Q30 395 30 501Q30 577 78 628T212 680Q290 680 338 632T387 509V466H274V506Q274
538 258 557T211 577Q184 577 168 561T151 517Q151 478 174 451T258 378Q324 328 358 280T393 169Z" />
<glyph unicode="T" glyph-name="T" horiz-adv-x="390" d="M380 556H258V0H133V556H10V666H380V556Z" />
<glyph unicode="U" glyph-name="U" horiz-adv-x="455" d="M413 154Q413 79 362 32T229 -15Q147 -15 94 32T41 154V666H167V154Q167 93 229 93Q292 93 292 154V666H413V154Z" />
<glyph unicode="V" glyph-name="V" horiz-adv-x="422" d="M419 666L271 0H151L6 666H134L215 207L298 666H419Z" />
<glyph unicode="W" glyph-name="W" horiz-adv-x="609" d="M606 666L483 0H372L305 392L234 0H124L6 666H129L189 226L263 666H359L427 226L491 666H606Z" />
<glyph unicode="X" glyph-name="X" horiz-adv-x="428" d="M420 0H290L212 230L127 0H6L143 336L14 666H144L217 436L297 666H419L286 346L420 0Z" />
<glyph unicode="Y" glyph-name="Y" horiz-adv-x="416" d="M420 666L269 272V0H145V272L-2 666H128L214 395L296 666H420Z" />
<glyph unicode="Z" glyph-name="Z" horiz-adv-x="397" d="M379 627L166 110H371V0H15V39L231 559H28V666H379V627Z" />
<glyph unicode="[" glyph-name="bracketleft" horiz-adv-x="289" d="M288 -150H93V753H288V678H175V-76H288V-150Z" />
<glyph unicode="\" glyph-name="backslash" horiz-adv-x="260" d="M258 -64H191L5 729H73L258 -64Z" />
<glyph unicode="]" glyph-name="bracketright" horiz-adv-x="289" d="M196 -150H1V-76H116V678H1V753H196V-150Z" />
<glyph unicode="^" glyph-name="asciicircum" horiz-adv-x="277" d="M266 543Q240 536 221 536Q190 536 168 556T137 614Q128 576 106 556T52 536Q38 536 13 543V572Q73 572 98 666H180Q205 572 266 572V543Z" />
<glyph unicode="_" glyph-name="underscore" horiz-adv-x="337" d="M337 -85H0V0H337V-85Z" />
<glyph unicode="`" glyph-name="grave" horiz-adv-x="182" d="M152 538H93L14 676H114L152 538Z" />
<glyph unicode="a" glyph-name="a" horiz-adv-x="359" d="M340 -8H315Q251 -8 237 53Q202 -8 130 -8Q82 -8 52 25T21 115V129Q21 196 70 231T214 291V360Q214 402 173 402Q134 402 134 358V323H38V353Q38 414 73 451T178 488T281 448T316 342V92Q316 68 340 67V-8ZM214
121V225Q166 214 144 195T121 143V116Q121 96 131 84T161 71Q183 71 198 85T214 121Z" />
<glyph unicode="b" glyph-name="b" horiz-adv-x="373" d="M339 124Q339 65 310 29T228 -8Q156 -8 127 55L115 0H40V666H145V426Q179 488 241 488Q286 488 312 452T339 361V124ZM237 133V343Q237 400 192 400Q171 400 158 386T145 346V131Q145 106 158 91T191 76Q212
76 224 91T237 133Z" />
<glyph unicode="c" glyph-name="c" horiz-adv-x="345" d="M320 145Q320 73 284 33T181 -8T75 33T34 146V333Q34 404 74 446T181 488T283 447T320 334V303H231V350Q231 403 184 403Q136 403 136 348V131Q136 77 184 77Q207 77 219 91T231 129V177H320V145Z" />
<glyph unicode="d" glyph-name="d" horiz-adv-x="373" d="M333 0H252L246 55Q219 -8 147 -8Q94 -8 64 28T34 124V357Q34 413 64 450T138 488Q192 488 228 441V666H333V0ZM228 131V347Q228 372 216 387T182 402T149 387T136 345V133Q136 106 148 91T182 76Q202
76 215 91T228 131Z" />
<glyph unicode="e" glyph-name="e" horiz-adv-x="354" d="M324 143Q324 74 286 33T181 -8Q116 -8 75 34T34 144V336Q34 403 75 445T181 488T285 446T324 336V230H136V127Q136 104 148 91T182 77Q229 77 229 127V174H324V143ZM227 280V352Q227 376 215 389T182
403Q160 403 148 389T136 352V280H227Z" />
<glyph unicode="f" glyph-name="f" horiz-adv-x="251" d="M241 389H177V0H71V389H18V475H71V512Q71 666 211 666H244V583H227Q198 583 186 569T174 527V475H241V389Z" />
<glyph unicode="g" glyph-name="g" horiz-adv-x="364" d="M369 492Q369 463 355 447T319 431Q303 431 287 439Q328 400 328 349V314Q328 254 288 216T182 177Q160 177 149 180Q133 180 124 170T114 147Q114 115 196 115Q274 115 312 84T350 -4V-27Q350 -90 307
-128T187 -166Q116 -166 70 -134T23 -50V-28Q23 -2 39 19T85 50Q29 70 29 122Q29 148 50 171T100 198Q70 210 54 243T37 317V348Q37 407 79 447T182 488Q200 488 218 484T239 480Q268 480 279 493T290 532H366Q369 512 369 492ZM229 301V357Q229 379 216 393T182
408Q160 408 148 394T135 357V301Q135 279 147 265T182 251Q203 251 216 265T229 301ZM256 -35V-10Q256 36 188 36Q119 36 119 -11V-36Q119 -58 137 -71T188 -84Q256 -84 256 -35Z" />
<glyph unicode="h" glyph-name="h" horiz-adv-x="379" d="M342 0H237V354Q237 376 226 389T195 402Q174 402 160 380T145 336V0H40V666H145V415Q160 449 186 468T245 488Q290 488 316 456T342 368V0Z" />
<glyph unicode="i" glyph-name="i" horiz-adv-x="185" d="M143 544H41V645H143V544ZM145 0H40V480H145V0Z" />
<glyph unicode="j" glyph-name="j" horiz-adv-x="184" d="M143 544H41V645H143V544ZM145 -16Q145 -160 10 -160H-21V-80H-10Q19 -80 29 -70T40 -35V480H145V-16Z" />
<glyph unicode="k" glyph-name="k" horiz-adv-x="363" d="M354 0H250L184 194L146 120V0H40V666H146V259L241 481H344L251 276L354 0Z" />
<glyph unicode="l" glyph-name="l" horiz-adv-x="185" d="M145 0H40V666H145V0Z" />
<glyph unicode="m" glyph-name="m" horiz-adv-x="549" d="M512 0H407V356Q407 376 398 388T371 400Q351 400 340 379T329 333V0H223V358Q223 378 214 390T189 402Q168 402 157 381T145 336V0H40V480H131L140 404Q166 488 234 488Q299 488 320 408Q346 488 416
488Q461 488 486 456T512 367V0Z" />
<glyph unicode="n" glyph-name="n" horiz-adv-x="380" d="M342 0H237V354Q237 376 226 389T196 402Q174 402 160 380T145 336V0H40V480H131L137 402Q152 444 179 466T240 488Q289 488 315 456T342 368V0Z" />
<glyph unicode="o" glyph-name="o" horiz-adv-x="363" d="M329 146Q329 75 289 34T182 -8Q115 -8 75 33T34 146V333Q34 404 75 446T182 488T288 446T329 333V146ZM227 126V353Q227 375 215 389T182 403Q161 403 149 389T137 353V126Q137 104 149 91T182 77Q202
77 214 90T227 126Z" />
<glyph unicode="p" glyph-name="p" horiz-adv-x="373" d="M339 116Q339 64 310 28T238 -8Q183 -8 145 39V-157H40V480H121L127 425Q156 488 227 488Q280 488 309 452T339 356V116ZM236 136V346Q236 403 191 403Q171 403 158 389T145 349V133Q145 109 157 94T191
79Q236 79 236 136Z" />
<glyph unicode="q" glyph-name="q" horiz-adv-x="373" d="M333 -158H228V52Q197 -9 131 -9Q91 -9 63 27T34 115V355Q34 415 63 451T147 488Q218 488 246 424L258 479H333V-158ZM228 133V348Q228 373 215 387T182 402Q136 402 136 346V135Q136 108 148 93T182 78T215
93T228 133Z" />
<glyph unicode="r" glyph-name="r" horiz-adv-x="271" d="M257 375Q145 391 145 315V0H40V480H129L136 398Q164 503 257 484V375Z" />
<glyph unicode="s" glyph-name="s" horiz-adv-x="335" d="M313 128Q313 71 276 32T171 -8Q102 -8 64 30T25 132V155H115V129Q115 74 167 74Q217 74 217 119Q217 135 213 146T193 171T167 190T126 216Q31 268 31 354Q31 415 70 451T171 488Q236 488 272 451T309
352V334H222V358Q222 403 173 403Q129 403 129 363Q129 341 145 324T201 283Q255 254 284 219T313 128Z" />
<glyph unicode="t" glyph-name="t" horiz-adv-x="245" d="M235 394H171V147Q171 52 196 0H88Q65 51 65 147V394H11V480H70V564L171 591V480H235V394Z" />
<glyph unicode="u" glyph-name="u" horiz-adv-x="382" d="M341 0H252L247 72Q232 33 204 13T142 -8Q93 -8 66 24T39 111V480H145V125Q145 103 156 90T186 77Q207 77 221 99T236 143V480H341V0Z" />
<glyph unicode="v" glyph-name="v" horiz-adv-x="333" d="M326 480L212 0H120L6 480H109L154 242L169 150L184 242L227 480H326Z" />
<glyph unicode="w" glyph-name="w" horiz-adv-x="491" d="M486 480L384 0H299L260 195L246 286L231 195L193 0H107L6 480H109L143 244L155 148L168 244L207 480H293L328 244L342 148L354 244L392 480H486Z" />
<glyph unicode="x" glyph-name="x" horiz-adv-x="342" d="M334 0H228L171 157L113 0H8L113 238L8 480H114L172 322L229 480H334L229 247L334 0Z" />
<glyph unicode="y" glyph-name="y" horiz-adv-x="333" d="M327 480L211 -15Q192 -92 164 -126T66 -160H36V-80H58Q85 -80 95 -70T112 -33L120 8L8 480H110L155 243L170 150L184 243L228 480H327Z" />
<glyph unicode="z" glyph-name="z" horiz-adv-x="309" d="M290 429L134 94H285V0H18V51L177 390H28V480H290V429Z" />
<glyph unicode="{" glyph-name="braceleft" horiz-adv-x="310" d="M265 -150H226Q154 -150 116 -111T78 -10Q78 34 98 81T137 165T157 223Q157 249 143 261T91 273H58V330H91Q128 330 142 341T157 379Q157 400 138 437T98 521T78 612Q78 673 116 713T226 753H265V681H237Q176
681 176 613Q176 572 205 503T234 408Q234 366 213 341T142 305Q192 295 213 271T234 203Q234 178 205 104T176 -11Q176 -79 237 -79H265V-150Z" />
<glyph unicode="|" glyph-name="bar" horiz-adv-x="152" d="M109 -64H43V729H109V-64Z" />
<glyph unicode="}" glyph-name="braceright" horiz-adv-x="310" d="M252 273H220Q183 273 169 261T154 223Q154 203 174 166T213 81T233 -10Q233 -71 195 -110T85 -150H46V-79H74Q135 -79 135 -11Q135 30 106 104T77 203Q77 245 98 270T168 305Q77 325 77 408Q77
434 106 503T135 613Q135 681 74 681H46V753H85Q157 753 195 713T233 612Q233 568 214 521T174 437T154 379Q154 353 168 342T220 330H252V273Z" />
<glyph unicode="~" glyph-name="asciitilde" horiz-adv-x="284" d="M273 351Q273 314 255 293T200 272Q174 272 136 296T87 320Q67 320 67 297V273H26Q13 292 13 314Q13 393 85 393Q111 393 149 370T198 346Q219 346 219 369V393H260Q273 372 273 351Z" />
<glyph unicode="&#xa0;" glyph-name="uni00A0" horiz-adv-x="153" />
<glyph unicode="&#xa1;" glyph-name="exclamdown" horiz-adv-x="193" d="M143 364H49V480H143V364ZM151 -186H42V103L79 294H113L151 103V-186Z" />
<glyph unicode="&#xa2;" glyph-name="cent" horiz-adv-x="363" d="M152 578V666H229V576Q275 564 301 526T328 431V396H237V446Q237 468 225 482T191 496Q170 496 158 482T146 446V221Q146 198 158 185T191 171Q237 171 237 221V270H328V235Q328 178 302 140T229
90V0H152V89Q102 100 72 138T42 235V431Q42 488 72 527T152 578Z" />
<glyph unicode="&#xa3;" glyph-name="sterling" horiz-adv-x="483" d="M460 131Q460 62 428 24T330 -15Q246 -15 194 37Q156 -15 94 -15Q52 -15 26 10T0 72Q0 113 28 139T108 166Q143 166 175 149Q195 178 195 228Q195 263 179 289H55V371H143Q110 439 110 503Q110
577 155 629T283 681Q360 681 400 633T441 521V466H339V508Q339 539 325 556T283 574Q228 574 228 508Q228 449 265 371H395V289H290Q295 264 295 244Q295 175 242 110Q282 83 313 83Q364 83 364 140V201H460V131ZM144 82Q123 102 100 102Q72 102 72 78Q72 69 80
62T101 55Q130 55 144 82Z" />
<glyph unicode="&#xa5;" glyph-name="yen" horiz-adv-x="447" d="M279 277V214H401V130H279V0H163V130H43V214H163V277H43V360H135L25 666H146L227 408L304 666H422L308 360H401V277H279Z" />
<glyph unicode="&#xa7;" glyph-name="section" horiz-adv-x="437" d="M409 252Q409 167 343 121Q403 64 403 -4Q403 -70 357 -116T223 -162Q134 -162 82 -120T29 -4V24H139V-9Q139 -36 159 -53T216 -70Q290 -70 290 -10Q290 15 264 39T201 84T127 130T64 190T38
269Q38 346 105 395Q45 452 45 518Q45 588 90 634T220 681T351 635T398 521V498H289V528Q289 584 224 584Q162 584 162 530Q162 506 187 482T249 437T322 391T383 330T409 252ZM308 225Q308 254 278 284T173 353Q138 337 138 295Q138 267 166 240T274 171Q308 186
308 225Z" />
<glyph unicode="&#xa8;" glyph-name="dieresis" horiz-adv-x="243" d="M229 546H146V643H229V546ZM96 546H14V643H96V546Z" />
<glyph unicode="&#xa9;" glyph-name="copyright" horiz-adv-x="680" d="M658 459T658 326T567 100T340 7T114 100T22 326T113 552T340 646T566 553ZM608 326Q608 442 533 521T340 600T148 521T72 326Q72 211 147 132T340 52T532 131T608 326ZM448 268Q448 227
420 202T345 176Q297 176 267 202T237 270V382Q237 423 267 449T345 476Q392 476 420 451T448 384V365H399V383Q399 405 385 419T346 433Q320 433 307 419T293 381V271Q293 249 306 234T346 219Q371 219 385 233T399 269V288H448V268Z" />
<glyph unicode="&#xaa;" glyph-name="ordfeminine" horiz-adv-x="311" d="M295 312H266Q214 312 203 358Q174 312 115 312Q76 312 52 337T27 405V414Q27 465 66 491T184 533V584Q184 616 151 616Q119 616 119 582V557H42V578Q42 624 70 652T155 680T239 650T267
569V388Q267 370 295 370V312ZM184 410V485Q108 470 108 424V406Q108 372 142 372Q160 372 172 382T184 410Z" />
<glyph unicode="&#xab;" glyph-name="guillemotleft" horiz-adv-x="422" d="M392 0H343Q331 56 295 100T209 159V228Q259 243 295 287T343 387H392Q392 328 370 275T310 193Q348 166 370 113T392 0ZM207 0H158Q146 56 110 100T23 159V228Q73 243 109 287T158 387H207Q207
328 185 275T125 193Q163 166 185 113T207 0Z" />
<glyph unicode="&#xae;" glyph-name="registered" horiz-adv-x="365" d="M243 452Q213 452 213 480V498Q213 522 190 522H155V455H125V615H193Q243 615 243 570V569Q243 538 218 533Q243 530 243 499V482Q243 475 254 475V452H243ZM346 603T346 535T299 420T183
373T68 420T21 535T67 650T183 698T299 651ZM47 535Q47 477 85 437T183 397Q243 397 281 437T320 535Q320 594 282 634T183 675Q124 675 86 635T47 535ZM212 566V571Q212 591 192 591H155V544H189Q212 544 212 566Z" />
<glyph unicode="&#xaf;" glyph-name="overscore" horiz-adv-x="253" d="M241 556H12V621H241V556Z" />
<glyph unicode="&#xb0;" glyph-name="degree" horiz-adv-x="277" d="M261 610T261 561T227 477T139 442T51 477T16 561T51 645T139 681T226 646ZM199 561Q199 590 183 608T139 627T95 609T79 561Q79 531 95 513T139 495T183 513T199 561Z" />
<glyph unicode="&#xb1;" glyph-name="plusminus" horiz-adv-x="342" d="M313 76H31V155H313V76ZM312 307H212V201H131V307H31V388H131V494H212V388H312V307Z" />
<glyph unicode="&#xb4;" glyph-name="acute" horiz-adv-x="182" d="M181 676L101 538H42L80 676H181Z" />
<glyph unicode="&#xb6;" glyph-name="paragraph" horiz-adv-x="546" d="M499 -156H428V577H358V-156H286V191H247Q156 191 96 254T35 420V436Q35 539 95 602T247 666H499V-156ZM286 278V577H267Q236 577 218 553T200 489V359Q200 321 217 300T267 278H286Z" />
<glyph unicode="&#xb7;" glyph-name="middot" horiz-adv-x="162" d="M130 268H32V396H130V268Z" />
<glyph unicode="&#xb8;" glyph-name="cedilla" horiz-adv-x="188" d="M192 -147Q192 -183 167 -207T103 -232Q83 -232 66 -222V-190H83Q121 -190 121 -156V-129Q121 -95 83 -95Q65 -95 42 -116L11 -94L99 30L131 7L76 -70Q87 -63 111 -63Q149 -63 170 -86T192 -147Z" />
<glyph unicode="&#xba;" glyph-name="ordmasculine" horiz-adv-x="286" d="M263 428Q263 375 230 344T143 312Q91 312 58 343T24 428V564Q24 617 57 648T143 680Q196 680 229 649T263 564V428ZM180 412V580Q180 596 170 606T143 617T117 607T106 580V412Q106 396
116 386T143 375T170 385T180 412Z" />
<glyph unicode="&#xbb;" glyph-name="guillemotright" horiz-adv-x="422" d="M398 159Q347 144 311 100T263 0H214Q214 59 236 112T296 193Q258 221 236 274T214 387H263Q275 331 311 287T398 228V159ZM212 159Q162 144 126 100T78 0H29Q29 59 51 112T111 193Q73
221 51 274T29 387H78Q90 331 126 287T212 228V159Z" />
<glyph unicode="&#xbf;" glyph-name="questiondown" horiz-adv-x="338" d="M138 480H232V364H138V480ZM-6 -35Q-6 71 92 165Q144 213 144 285H223Q223 226 207 187T143 82Q105 27 105 -26Q105 -64 119 -81T163 -98Q221 -98 221 -26V34H323V-37Q323 -109 283 -155T164
-201Q77 -201 36 -154T-6 -35Z" />
<glyph unicode="&#xc0;" glyph-name="Agrave" horiz-adv-x="413" d="M409 0H283L261 131H143L119 0H3L137 666H276L409 0ZM245 229L205 486L160 229H245ZM233 701H174L95 839H195L233 701Z" />
<glyph unicode="&#xc1;" glyph-name="Aacute" horiz-adv-x="413" d="M409 0H283L261 131H143L119 0H3L137 666H276L409 0ZM245 229L205 486L160 229H245ZM313 839L233 701H174L212 839H313Z" />
<glyph unicode="&#xc2;" glyph-name="Acircumflex" horiz-adv-x="413" d="M409 0H283L261 131H143L119 0H3L137 666H276L409 0ZM245 229L205 486L160 229H245ZM335 708Q311 700 290 700Q225 700 206 778Q197 741 175 721T121 700Q104 700 82 708V736Q142 736 167
831H249Q274 736 335 736V708Z" />
<glyph unicode="&#xc3;" glyph-name="Atilde" horiz-adv-x="413" d="M409 0H283L261 131H143L119 0H3L137 666H276L409 0ZM245 229L205 486L160 229H245ZM332 790Q332 711 259 711Q233 711 195 735T146 759Q126 759 126 736V712H85Q72 731 72 753Q72 832 144 832Q170
832 208 809T257 785Q278 785 278 808V831H319Q332 812 332 790Z" />
<glyph unicode="&#xc4;" glyph-name="Adieresis" horiz-adv-x="413" d="M409 0H283L261 131H143L119 0H3L137 666H276L409 0ZM245 229L205 486L160 229H245ZM311 709H228V806H311V709ZM178 709H96V806H178V709Z" />
<glyph unicode="&#xc5;" glyph-name="Aring" horiz-adv-x="413" d="M156 666Q125 687 125 726Q125 760 148 784T206 808T264 784T287 726Q287 687 256 666H276L409 0H283L261 131H143L119 0H3L137 666H156ZM246 726Q246 747 236 759T206 772T177 760T166 726Q166
706 176 694T206 681T235 693T246 726ZM245 229L205 486L160 229H245Z" />
<glyph unicode="&#xc6;" glyph-name="AE" horiz-adv-x="618" d="M594 0H275V131H165L124 0H2L219 666H594V559H400V395H534V296H400V111H594V0ZM275 229V501L196 229H275Z" />
<glyph unicode="&#xc7;" glyph-name="Ccedilla" horiz-adv-x="435" d="M188 -11Q117 1 77 50T36 168V498Q36 577 88 629T228 681Q314 681 361 633T408 507V426H297V506Q297 536 280 554T230 572T180 555T162 508V158Q162 129 179 112T230 94T280 112T297 160V240H408V159Q408
83 362 35T233 -15L194 -68Q204 -62 229 -62Q267 -62 288 -85T310 -147Q310 -183 285 -207T220 -231Q196 -231 183 -221V-189H201Q239 -189 239 -156V-129Q239 -95 201 -95Q180 -95 160 -116L129 -93L188 -11Z" />
<glyph unicode="&#xc8;" glyph-name="Egrave" horiz-adv-x="385" d="M361 0H43V666H361V559H167V394H301V296H167V111H361V0ZM232 701H173L94 839H194L232 701Z" />
<glyph unicode="&#xc9;" glyph-name="Eacute" horiz-adv-x="385" d="M361 0H43V666H361V559H167V394H301V296H167V111H361V0ZM298 839L218 701H159L197 839H298Z" />
<glyph unicode="&#xca;" glyph-name="Ecircumflex" horiz-adv-x="385" d="M361 0H43V666H361V559H167V394H301V296H167V111H361V0ZM325 708Q301 700 280 700Q215 700 196 778Q187 741 165 721T111 700Q94 700 72 708V736Q132 736 157 831H239Q264 736 325 736V708Z" />
<glyph unicode="&#xcb;" glyph-name="Edieresis" horiz-adv-x="385" d="M361 0H43V666H361V559H167V394H301V296H167V111H361V0ZM307 709H224V806H307V709ZM174 709H92V806H174V709Z" />
<glyph unicode="&#xcc;" glyph-name="Igrave" horiz-adv-x="211" d="M167 0H43V666H167V0ZM134 701H75L-4 839H96L134 701Z" />
<glyph unicode="&#xcd;" glyph-name="Iacute" horiz-adv-x="211" d="M167 0H43V666H167V0ZM209 839L129 701H70L108 839H209Z" />
<glyph unicode="&#xce;" glyph-name="Icircumflex" horiz-adv-x="211" d="M167 0H43V666H167V0ZM234 708Q210 700 189 700Q124 700 105 778Q96 741 74 721T20 700Q3 700 -19 708V736Q41 736 66 831H148Q173 736 234 736V708Z" />
<glyph unicode="&#xcf;" glyph-name="Idieresis" horiz-adv-x="211" d="M167 0H43V666H167V0ZM212 709H129V806H212V709ZM79 709H-3V806H79V709Z" />
<glyph unicode="&#xd0;" glyph-name="Eth" horiz-adv-x="481" d="M72 291H-1V375H72V666H263Q349 666 397 617T445 486V174Q445 93 398 47T263 0H72V291ZM196 375H258V291H196V106H254Q321 106 321 180V485Q321 559 254 559H196V375Z" />
<glyph unicode="&#xd1;" glyph-name="Ntilde" horiz-adv-x="471" d="M428 0H332L203 284L156 390V0H42V666H149L272 377L316 271V666H428V0ZM363 790Q363 711 290 711Q264 711 226 735T177 759Q157 759 157 736V712H116Q103 731 103 753Q103 832 175 832Q201 832
239 809T288 785Q309 785 309 808V831H350Q363 812 363 790Z" />
<glyph unicode="&#xd2;" glyph-name="Ograve" horiz-adv-x="450" d="M414 167Q414 86 363 36T225 -15Q139 -15 88 35T36 167V499Q36 579 87 629T225 680T362 630T414 499V167ZM289 159V507Q289 537 272 554T225 572T179 555T162 507V159Q162 129 178 112T225 94T272
111T289 159ZM255 701H196L117 839H217L255 701Z" />
<glyph unicode="&#xd3;" glyph-name="Oacute" horiz-adv-x="450" d="M414 167Q414 86 363 36T225 -15Q139 -15 88 35T36 167V499Q36 579 87 629T225 680T362 630T414 499V167ZM289 159V507Q289 537 272 554T225 572T179 555T162 507V159Q162 129 178 112T225 94T272
111T289 159ZM332 839L252 701H193L231 839H332Z" />
<glyph unicode="&#xd4;" glyph-name="Ocircumflex" horiz-adv-x="450" d="M414 167Q414 86 363 36T225 -15Q139 -15 88 35T36 167V499Q36 579 87 629T225 680T362 630T414 499V167ZM289 159V507Q289 537 272 554T225 572T179 555T162 507V159Q162 129 178 112T225
94T272 111T289 159ZM354 708Q330 700 309 700Q244 700 225 778Q216 741 194 721T140 700Q123 700 101 708V736Q161 736 186 831H268Q293 736 354 736V708Z" />
<glyph unicode="&#xd5;" glyph-name="Otilde" horiz-adv-x="450" d="M414 167Q414 86 363 36T225 -15Q139 -15 88 35T36 167V499Q36 579 87 629T225 680T362 630T414 499V167ZM289 159V507Q289 537 272 554T225 572T179 555T162 507V159Q162 129 178 112T225 94T272
111T289 159ZM351 790Q351 711 278 711Q252 711 214 735T165 759Q145 759 145 736V712H104Q91 731 91 753Q91 832 163 832Q189 832 227 809T276 785Q297 785 297 808V831H338Q351 812 351 790Z" />
<glyph unicode="&#xd6;" glyph-name="Odieresis" horiz-adv-x="450" d="M414 167Q414 86 363 36T225 -15Q139 -15 88 35T36 167V499Q36 579 87 629T225 680T362 630T414 499V167ZM289 159V507Q289 537 272 554T225 572T179 555T162 507V159Q162 129 178 112T225
94T272 111T289 159ZM334 709H251V806H334V709ZM201 709H119V806H201V709Z" />
<glyph unicode="&#xd7;" glyph-name="multiply" horiz-adv-x="398" d="M350 243L290 183L198 276L107 183L47 242L139 334L47 427L108 486L200 394L291 486L350 427L258 336L350 243Z" />
<glyph unicode="&#xd8;" glyph-name="Oslash" horiz-adv-x="458" d="M432 666L392 590Q414 552 414 499V167Q414 86 363 36T225 -15Q147 -15 97 27L67 -31L17 0L57 77Q36 116 36 167V499Q36 579 87 629T225 680Q302 680 352 639L382 697L432 666ZM288 518Q281
572 225 572Q195 572 179 555T162 507V277L288 518ZM289 159V393L162 151Q164 125 181 110T225 94Q255 94 272 111T289 159Z" />
<glyph unicode="&#xd9;" glyph-name="Ugrave" horiz-adv-x="455" d="M413 154Q413 79 362 32T229 -15Q147 -15 94 32T41 154V666H167V154Q167 93 229 93Q292 93 292 154V666H413V154ZM262 701H203L124 839H224L262 701Z" />
<glyph unicode="&#xda;" glyph-name="Uacute" horiz-adv-x="455" d="M413 154Q413 79 362 32T229 -15Q147 -15 94 32T41 154V666H167V154Q167 93 229 93Q292 93 292 154V666H413V154ZM337 839L257 701H198L236 839H337Z" />
<glyph unicode="&#xdb;" glyph-name="Ucircumflex" horiz-adv-x="455" d="M413 154Q413 79 362 32T229 -15Q147 -15 94 32T41 154V666H167V154Q167 93 229 93Q292 93 292 154V666H413V154ZM360 708Q336 700 315 700Q250 700 231 778Q222 741 200 721T146 700Q129
700 107 708V736Q167 736 192 831H274Q299 736 360 736V708Z" />
<glyph unicode="&#xdc;" glyph-name="Udieresis" horiz-adv-x="455" d="M413 154Q413 79 362 32T229 -15Q147 -15 94 32T41 154V666H167V154Q167 93 229 93Q292 93 292 154V666H413V154ZM339 709H256V806H339V709ZM206 709H124V806H206V709Z" />
<glyph unicode="&#xdd;" glyph-name="Yacute" horiz-adv-x="416" d="M420 666L269 272V0H145V272L-2 666H128L214 395L296 666H420ZM320 839L240 701H181L219 839H320Z" />
<glyph unicode="&#xde;" glyph-name="Thorn" horiz-adv-x="422" d="M399 292Q399 221 359 182T249 142H167V0H43V666H168V554H249Q319 554 359 515T399 404V292ZM279 289V402Q279 452 236 452H167V239H236Q279 239 279 289Z" />
<glyph unicode="&#xdf;" glyph-name="germandbls" horiz-adv-x="381" d="M346 120Q346 59 314 26T229 -8Q206 -8 184 3V57Q242 56 242 113V265Q242 317 187 317V392Q247 392 247 446V529Q247 588 197 588Q173 588 160 571T147 526V0H42V514Q42 587 82 629T194
672Q267 672 304 632T342 522V462Q342 425 327 396T286 354Q319 339 332 314T346 245V120Z" />
<glyph unicode="&#xe0;" glyph-name="agrave" horiz-adv-x="359" d="M340 -8H315Q251 -8 237 53Q202 -8 130 -8Q82 -8 52 25T21 115V129Q21 196 70 231T214 291V360Q214 402 173 402Q134 402 134 358V323H38V353Q38 414 73 451T178 488T281 448T316 342V92Q316
68 340 67V-8ZM214 121V225Q166 214 144 195T121 143V116Q121 96 131 84T161 71Q183 71 198 85T214 121ZM208 538H149L70 676H170L208 538Z" />
<glyph unicode="&#xe1;" glyph-name="aacute" horiz-adv-x="359" d="M340 -8H315Q251 -8 237 53Q202 -8 130 -8Q82 -8 52 25T21 115V129Q21 196 70 231T214 291V360Q214 402 173 402Q134 402 134 358V323H38V353Q38 414 73 451T178 488T281 448T316 342V92Q316
68 340 67V-8ZM214 121V225Q166 214 144 195T121 143V116Q121 96 131 84T161 71Q183 71 198 85T214 121ZM285 676L205 538H146L184 676H285Z" />
<glyph unicode="&#xe2;" glyph-name="acircumflex" horiz-adv-x="359" d="M340 -8H315Q251 -8 237 53Q202 -8 130 -8Q82 -8 52 25T21 115V129Q21 196 70 231T214 291V360Q214 402 173 402Q134 402 134 358V323H38V353Q38 414 73 451T178 488T281 448T316 342V92Q316
68 340 67V-8ZM214 121V225Q166 214 144 195T121 143V116Q121 96 131 84T161 71Q183 71 198 85T214 121ZM307 545Q283 537 262 537Q197 537 178 615Q169 578 147 558T93 537Q76 537 54 545V573Q114 573 139 668H221Q246 573 307 573V545Z" />
<glyph unicode="&#xe3;" glyph-name="atilde" horiz-adv-x="359" d="M340 -8H315Q251 -8 237 53Q202 -8 130 -8Q82 -8 52 25T21 115V129Q21 196 70 231T214 291V360Q214 402 173 402Q134 402 134 358V323H38V353Q38 414 73 451T178 488T281 448T316 342V92Q316
68 340 67V-8ZM214 121V225Q166 214 144 195T121 143V116Q121 96 131 84T161 71Q183 71 198 85T214 121ZM304 627Q304 548 231 548Q205 548 167 572T118 596Q98 596 98 573V549H57Q44 568 44 590Q44 669 116 669Q142 669 180 646T229 622Q250 622 250 645V668H291Q304
649 304 627Z" />
<glyph unicode="&#xe4;" glyph-name="adieresis" horiz-adv-x="359" d="M340 -8H315Q251 -8 237 53Q202 -8 130 -8Q82 -8 52 25T21 115V129Q21 196 70 231T214 291V360Q214 402 173 402Q134 402 134 358V323H38V353Q38 414 73 451T178 488T281 448T316 342V92Q316
68 340 67V-8ZM214 121V225Q166 214 144 195T121 143V116Q121 96 131 84T161 71Q183 71 198 85T214 121ZM283 546H200V643H283V546ZM150 546H68V643H150V546Z" />
<glyph unicode="&#xe5;" glyph-name="aring" horiz-adv-x="359" d="M340 -8H315Q251 -8 237 53Q202 -8 130 -8Q82 -8 52 25T21 115V129Q21 196 70 231T214 291V360Q214 402 173 402Q134 402 134 358V323H38V353Q38 414 73 451T178 488T281 448T316 342V92Q316
68 340 67V-8ZM214 121V225Q166 214 144 195T121 143V116Q121 96 131 84T161 71Q183 71 198 85T214 121ZM257 650T257 617T234 560T176 535T118 559T95 617T118 674T176 699T234 675ZM216 596T216 617T206 650T176 663Q137 663 137 617Q137 596 147 584T176 571T205
583Z" />
<glyph unicode="&#xe6;" glyph-name="ae" horiz-adv-x="541" d="M512 143Q512 75 476 34T380 -8Q299 -8 264 49Q223 -8 140 -8Q85 -8 54 25T22 115V129Q22 196 71 231T215 291V355Q215 400 173 400Q132 400 132 356V323H40V353Q40 413 73 450T168 488Q235 488
270 433Q307 488 380 488Q440 488 476 446T512 336V230H324V130Q324 79 371 79Q394 79 406 93T418 130V174H512V143ZM415 280V350Q415 373 403 387T370 401Q348 401 336 387T324 350V280H415ZM215 124V225Q167 214 145 195T122 143V118Q122 98 132 86T162 73Q184
73 199 87T215 124Z" />
<glyph unicode="&#xe7;" glyph-name="ccedilla" horiz-adv-x="345" d="M143 -4Q93 7 64 46T34 146V333Q34 404 74 446T181 488T283 447T320 334V303H231V350Q231 403 184 403Q136 403 136 348V131Q136 77 184 77Q207 77 219 91T231 129V177H320V145Q320 76 286
36T188 -8L143 -68Q153 -62 178 -62Q216 -62 238 -85T260 -147Q260 -182 234 -206T169 -231Q147 -231 132 -221V-189H150Q189 -189 189 -156V-129Q189 -95 150 -95Q130 -95 110 -116L79 -93L143 -4Z" />
<glyph unicode="&#xe8;" glyph-name="egrave" horiz-adv-x="354" d="M324 143Q324 74 286 33T181 -8Q116 -8 75 34T34 144V336Q34 403 75 445T181 488T285 446T324 336V230H136V127Q136 104 148 91T182 77Q229 77 229 127V174H324V143ZM227 280V352Q227 376 215
389T182 403Q160 403 148 389T136 352V280H227ZM212 538H153L74 676H174L212 538Z" />
<glyph unicode="&#xe9;" glyph-name="eacute" horiz-adv-x="354" d="M324 143Q324 74 286 33T181 -8Q116 -8 75 34T34 144V336Q34 403 75 445T181 488T285 446T324 336V230H136V127Q136 104 148 91T182 77Q229 77 229 127V174H324V143ZM227 280V352Q227 376 215
389T182 403Q160 403 148 389T136 352V280H227ZM291 676L211 538H152L190 676H291Z" />
<glyph unicode="&#xea;" glyph-name="ecircumflex" horiz-adv-x="354" d="M324 143Q324 74 286 33T181 -8Q116 -8 75 34T34 144V336Q34 403 75 445T181 488T285 446T324 336V230H136V127Q136 104 148 91T182 77Q229 77 229 127V174H324V143ZM227 280V352Q227 376
215 389T182 403Q160 403 148 389T136 352V280H227ZM306 545Q282 537 261 537Q196 537 177 615Q168 578 146 558T92 537Q75 537 53 545V573Q113 573 138 668H220Q245 573 306 573V545Z" />
<glyph unicode="&#xeb;" glyph-name="edieresis" horiz-adv-x="354" d="M324 143Q324 74 286 33T181 -8Q116 -8 75 34T34 144V336Q34 403 75 445T181 488T285 446T324 336V230H136V127Q136 104 148 91T182 77Q229 77 229 127V174H324V143ZM227 280V352Q227 376
215 389T182 403Q160 403 148 389T136 352V280H227ZM287 546H204V643H287V546ZM154 546H72V643H154V546Z" />
<glyph unicode="&#xec;" glyph-name="igrave" horiz-adv-x="185" d="M145 0H40V480H145V0ZM120 538H61L-18 676H82L120 538Z" />
<glyph unicode="&#xed;" glyph-name="iacute" horiz-adv-x="185" d="M145 0H40V480H145V0ZM202 676L122 538H63L101 676H202Z" />
<glyph unicode="&#xee;" glyph-name="icircumflex" horiz-adv-x="185" d="M145 0H40V480H145V0ZM222 545Q198 537 177 537Q112 537 93 615Q84 578 62 558T8 537Q-9 537 -31 545V573Q29 573 54 668H136Q161 573 222 573V545Z" />
<glyph unicode="&#xef;" glyph-name="idieresis" horiz-adv-x="185" d="M145 0H40V480H145V0ZM199 546H116V643H199V546ZM66 546H-16V643H66V546Z" />
<glyph unicode="&#xf0;" glyph-name="eth" horiz-adv-x="366" d="M255 624L309 648L328 602L285 583Q332 505 332 398V145Q332 75 290 34T181 -8Q116 -8 75 33T34 145V355Q34 407 64 443T139 480Q191 480 228 434Q225 497 198 543L137 516L119 562L171 586Q140
625 88 663V666H212Q239 644 255 624ZM136 125Q136 105 149 91T181 77Q201 77 214 91T228 125V345Q228 370 216 384T182 399Q136 399 136 344V125Z" />
<glyph unicode="&#xf1;" glyph-name="ntilde" horiz-adv-x="380" d="M342 0H237V354Q237 376 226 389T196 402Q174 402 160 380T145 336V0H40V480H131L137 402Q152 444 179 466T240 488Q289 488 315 456T342 368V0ZM313 627Q313 548 240 548Q214 548 176 572T127
596Q107 596 107 573V549H66Q53 568 53 590Q53 669 125 669Q151 669 189 646T238 622Q259 622 259 645V668H300Q313 649 313 627Z" />
<glyph unicode="&#xf2;" glyph-name="ograve" horiz-adv-x="363" d="M329 146Q329 75 289 34T182 -8Q115 -8 75 33T34 146V333Q34 404 75 446T182 488T288 446T329 333V146ZM227 126V353Q227 375 215 389T182 403Q161 403 149 389T137 353V126Q137 104 149 91T182
77Q202 77 214 90T227 126ZM212 538H153L74 676H174L212 538Z" />
<glyph unicode="&#xf3;" glyph-name="oacute" horiz-adv-x="363" d="M329 146Q329 75 289 34T182 -8Q115 -8 75 33T34 146V333Q34 404 75 446T182 488T288 446T329 333V146ZM227 126V353Q227 375 215 389T182 403Q161 403 149 389T137 353V126Q137 104 149 91T182
77Q202 77 214 90T227 126ZM293 676L213 538H154L192 676H293Z" />
<glyph unicode="&#xf4;" glyph-name="ocircumflex" horiz-adv-x="363" d="M329 146Q329 75 289 34T182 -8Q115 -8 75 33T34 146V333Q34 404 75 446T182 488T288 446T329 333V146ZM227 126V353Q227 375 215 389T182 403Q161 403 149 389T137 353V126Q137 104 149
91T182 77Q202 77 214 90T227 126ZM313 545Q289 537 268 537Q203 537 184 615Q175 578 153 558T99 537Q82 537 60 545V573Q120 573 145 668H227Q252 573 313 573V545Z" />
<glyph unicode="&#xf5;" glyph-name="otilde" horiz-adv-x="363" d="M329 146Q329 75 289 34T182 -8Q115 -8 75 33T34 146V333Q34 404 75 446T182 488T288 446T329 333V146ZM227 126V353Q227 375 215 389T182 403Q161 403 149 389T137 353V126Q137 104 149 91T182
77Q202 77 214 90T227 126ZM309 627Q309 548 236 548Q210 548 172 572T123 596Q103 596 103 573V549H62Q49 568 49 590Q49 669 121 669Q147 669 185 646T234 622Q255 622 255 645V668H296Q309 649 309 627Z" />
<glyph unicode="&#xf6;" glyph-name="odieresis" horiz-adv-x="363" d="M329 146Q329 75 289 34T182 -8Q115 -8 75 33T34 146V333Q34 404 75 446T182 488T288 446T329 333V146ZM227 126V353Q227 375 215 389T182 403Q161 403 149 389T137 353V126Q137 104 149
91T182 77Q202 77 214 90T227 126ZM290 546H207V643H290V546ZM157 546H75V643H157V546Z" />
<glyph unicode="&#xf7;" glyph-name="divide" horiz-adv-x="342" d="M312 299H31V381H312V299ZM215 426H128V509H215V426ZM215 170H128V253H215V170Z" />
<glyph unicode="&#xf8;" glyph-name="oslash" horiz-adv-x="363" d="M355 479L313 410Q329 376 329 333V146Q329 75 289 34T182 -8Q117 -8 79 30L44 -27L9 1L50 68Q34 103 34 146V333Q34 404 75 446T182 488Q244 488 284 450L319 506L355 479ZM227 126V270L204
234Q182 198 160 162L137 125Q137 103 149 90T182 77Q202 77 214 90T227 126ZM227 356Q226 376 214 389T182 403Q161 403 149 389T137 353V209L227 356Z" />
<glyph unicode="&#xf9;" glyph-name="ugrave" horiz-adv-x="382" d="M341 0H252L247 72Q232 33 204 13T142 -8Q93 -8 66 24T39 111V480H145V125Q145 103 156 90T186 77Q207 77 221 99T236 143V480H341V0ZM221 538H162L83 676H183L221 538Z" />
<glyph unicode="&#xfa;" glyph-name="uacute" horiz-adv-x="382" d="M341 0H252L247 72Q232 33 204 13T142 -8Q93 -8 66 24T39 111V480H145V125Q145 103 156 90T186 77Q207 77 221 99T236 143V480H341V0ZM299 676L219 538H160L198 676H299Z" />
<glyph unicode="&#xfb;" glyph-name="ucircumflex" horiz-adv-x="382" d="M341 0H252L247 72Q232 33 204 13T142 -8Q93 -8 66 24T39 111V480H145V125Q145 103 156 90T186 77Q207 77 221 99T236 143V480H341V0ZM320 545Q296 537 275 537Q210 537 191 615Q182 578
160 558T106 537Q89 537 67 545V573Q127 573 152 668H234Q259 573 320 573V545Z" />
<glyph unicode="&#xfc;" glyph-name="udieresis" horiz-adv-x="382" d="M341 0H252L247 72Q232 33 204 13T142 -8Q93 -8 66 24T39 111V480H145V125Q145 103 156 90T186 77Q207 77 221 99T236 143V480H341V0ZM299 546H216V643H299V546ZM166 546H84V643H166V546Z" />
<glyph unicode="&#xfd;" glyph-name="yacute" horiz-adv-x="333" d="M327 480L211 -15Q192 -92 164 -126T66 -160H36V-80H58Q85 -80 95 -70T112 -33L120 8L8 480H110L155 243L170 150L184 243L228 480H327ZM278 676L198 538H139L177 676H278Z" />
<glyph unicode="&#xfe;" glyph-name="thorn" horiz-adv-x="373" d="M339 116Q339 64 310 28T238 -8Q183 -8 145 39V-157H40V666H145V441Q183 488 238 488Q280 488 309 452T339 364V116ZM237 136V344Q237 400 191 400Q170 400 158 386T145 346V133Q145 109 157
94T191 79T224 94T237 136Z" />
<glyph unicode="&#xff;" glyph-name="ydieresis" horiz-adv-x="333" d="M327 480L211 -15Q192 -92 164 -126T66 -160H36V-80H58Q85 -80 95 -70T112 -33L120 8L8 480H110L155 243L170 150L184 243L228 480H327ZM279 546H196V643H279V546ZM146 546H64V643H146V546Z" />
<glyph unicode="&#x100;" glyph-name="Amacron" horiz-adv-x="413" d="M409 0H283L261 131H143L119 0H3L137 666H276L409 0ZM245 229L205 486L160 229H245ZM321 738H92V803H321V738Z" />
<glyph unicode="&#x101;" glyph-name="amacron" horiz-adv-x="359" d="M340 -8H315Q251 -8 237 53Q202 -8 130 -8Q82 -8 52 25T21 115V129Q21 196 70 231T214 291V360Q214 402 173 402Q134 402 134 358V323H38V353Q38 414 73 451T178 488T281 448T316 342V92Q316
68 340 67V-8ZM214 121V225Q166 214 144 195T121 143V116Q121 96 131 84T161 71Q183 71 198 85T214 121ZM294 556H65V621H294V556Z" />
<glyph unicode="&#x102;" glyph-name="Abreve" horiz-adv-x="413" d="M409 0H283L261 131H143L119 0H3L137 666H276L409 0ZM245 229L205 486L160 229H245ZM318 803Q318 768 286 745T207 721Q159 721 128 744T97 803Q97 827 106 845H155V830Q155 783 207 783Q260
783 260 830V845H308Q318 825 318 803Z" />
<glyph unicode="&#x103;" glyph-name="abreve" horiz-adv-x="359" d="M340 -8H315Q251 -8 237 53Q202 -8 130 -8Q82 -8 52 25T21 115V129Q21 196 70 231T214 291V360Q214 402 173 402Q134 402 134 358V323H38V353Q38 414 73 451T178 488T281 448T316 342V92Q316
68 340 67V-8ZM214 121V225Q166 214 144 195T121 143V116Q121 96 131 84T161 71Q183 71 198 85T214 121ZM291 621Q291 586 259 563T180 539Q132 539 101 562T70 621Q70 645 79 663H128V648Q128 601 180 601Q233 601 233 648V663H281Q291 643 291 621Z" />
<glyph unicode="&#x104;" glyph-name="Aogonek" horiz-adv-x="413" d="M420 -129V-166Q398 -181 368 -181Q330 -181 307 -159T284 -102Q284 -44 345 0H283L261 131H143L119 0H3L137 666H276L409 0H386Q351 -40 351 -81Q351 -106 367 -121T420 -129ZM245 229L205
486L160 229H245Z" />
<glyph unicode="&#x105;" glyph-name="aogonek" horiz-adv-x="359" d="M316 342V92Q316 68 340 67V-5Q314 -19 299 -40T283 -83Q283 -107 298 -121T349 -129V-166Q328 -181 299 -181Q262 -181 240 -160T218 -102Q218 -74 238 -47T290 -4Q248 6 237 53Q202 -8 130
-8Q82 -8 52 25T21 115V129Q21 196 70 231T214 291V360Q214 402 173 402Q134 402 134 358V323H38V353Q38 414 73 451T178 488T281 448T316 342ZM214 121V225Q166 214 144 195T121 143V116Q121 96 131 84T161 71Q183 71 198 85T214 121Z" />
<glyph unicode="&#x106;" glyph-name="Cacute" horiz-adv-x="435" d="M334 858L254 720H195L233 858H334ZM408 159Q408 81 361 33T228 -15Q141 -15 89 37T36 168V498Q36 577 88 629T228 681Q314 681 361 633T408 507V426H297V506Q297 536 280 554T230 572T180
555T162 508V158Q162 129 179 112T230 94T280 112T297 160V240H408V159Z" />
<glyph unicode="&#x107;" glyph-name="cacute" horiz-adv-x="345" d="M287 676L207 538H148L186 676H287ZM320 145Q320 73 284 33T181 -8T75 33T34 146V333Q34 404 74 446T181 488T283 447T320 334V303H231V350Q231 403 184 403Q136 403 136 348V131Q136 77 184
77Q207 77 219 91T231 129V177H320V145Z" />
<glyph unicode="&#x10a;" glyph-name="Cdotaccent" horiz-adv-x="435" d="M408 159Q408 81 361 33T228 -15Q141 -15 89 37T36 168V498Q36 577 88 629T228 681Q314 681 361 633T408 507V426H297V506Q297 536 280 554T230 572T180 555T162 508V158Q162 129 179 112T230
94T280 112T297 160V240H408V159ZM269 728H187V825H269V728Z" />
<glyph unicode="&#x10b;" glyph-name="cdotaccent" horiz-adv-x="345" d="M320 145Q320 73 284 33T181 -8T75 33T34 146V333Q34 404 74 446T181 488T283 447T320 334V303H231V350Q231 403 184 403Q136 403 136 348V131Q136 77 184 77Q207 77 219 91T231 129V177H320V145ZM222
546H140V643H222V546Z" />
<glyph unicode="&#x10c;" glyph-name="Ccaron" horiz-adv-x="435" d="M354 818Q293 818 268 724H186Q161 818 101 818V846Q121 853 145 853Q211 853 230 777Q238 813 260 833T314 853Q334 853 354 846V818ZM408 159Q408 81 361 33T228 -15Q141 -15 89 37T36 168V498Q36
577 88 629T228 681Q314 681 361 633T408 507V426H297V506Q297 536 280 554T230 572T180 555T162 508V158Q162 129 179 112T230 94T280 112T297 160V240H408V159Z" />
<glyph unicode="&#x10d;" glyph-name="ccaron" horiz-adv-x="345" d="M307 636Q246 636 221 542H139Q114 636 54 636V664Q74 671 98 671Q164 671 183 595Q191 631 213 651T267 671Q287 671 307 664V636ZM320 145Q320 73 284 33T181 -8T75 33T34 146V333Q34 404
74 446T181 488T283 447T320 334V303H231V350Q231 403 184 403Q136 403 136 348V131Q136 77 184 77Q207 77 219 91T231 129V177H320V145Z" />
<glyph unicode="&#x10e;" glyph-name="Dcaron" horiz-adv-x="453" d="M346 809Q285 809 260 715H178Q153 809 93 809V837Q113 844 137 844Q203 844 222 768Q230 804 252 824T306 844Q326 844 346 837V809ZM417 174Q417 93 370 47T235 0H43V666H235Q321 666 369
617T417 486V174ZM292 180V485Q292 559 226 559H167V107H226Q292 107 292 180Z" />
<glyph unicode="&#x10f;" glyph-name="dcaron" horiz-adv-x="373" d="M456 666L419 502H371V666H456ZM333 0H252L246 55Q219 -8 147 -8Q94 -8 64 28T34 124V357Q34 413 64 450T138 488Q192 488 228 441V666H333V0ZM228 131V347Q228 372 216 387T182 402T149 387T136
345V133Q136 106 148 91T182 76Q202 76 215 91T228 131Z" />
<glyph unicode="&#x110;" glyph-name="Dcroat" horiz-adv-x="481" d="M72 291H-1V375H72V666H263Q349 666 397 617T445 486V174Q445 93 398 47T263 0H72V291ZM196 375H258V291H196V106H254Q321 106 321 180V485Q321 559 254 559H196V375Z" />
<glyph unicode="&#x111;" glyph-name="" horiz-adv-x="373" d="M132 537V592H228V666H333V592H368V537H333V0H252L246 55Q219 -8 147 -8Q94 -8 64 28T34 124V355Q34 411 64 448T138 486Q192 486 228 439V537H132ZM228 131V345Q228 370 216 385T182 400T149 385T136
343V133Q136 106 148 91T182 76Q202 76 215 91T228 131Z" />
<glyph unicode="&#x112;" glyph-name="Emacron" horiz-adv-x="385" d="M361 0H43V666H361V559H167V394H301V296H167V111H361V0ZM314 729H85V794H314V729Z" />
<glyph unicode="&#x113;" glyph-name="emacron" horiz-adv-x="354" d="M324 143Q324 74 286 33T181 -8Q116 -8 75 34T34 144V336Q34 403 75 445T181 488T285 446T324 336V230H136V127Q136 104 148 91T182 77Q229 77 229 127V174H324V143ZM227 280V352Q227 376
215 389T182 403Q160 403 148 389T136 352V280H227ZM295 556H66V621H295V556Z" />
<glyph unicode="&#x114;" glyph-name="Ebreve" horiz-adv-x="385" d="M361 0H43V666H361V559H167V394H301V296H167V111H361V0ZM310 794Q310 759 278 736T199 712Q151 712 120 735T89 794Q89 818 98 836H147V821Q147 774 199 774Q252 774 252 821V836H300Q310 816
310 794Z" />
<glyph unicode="&#x115;" glyph-name="ebreve" horiz-adv-x="354" d="M324 143Q324 74 286 33T181 -8Q116 -8 75 34T34 144V336Q34 403 75 445T181 488T285 446T324 336V230H136V127Q136 104 148 91T182 77Q229 77 229 127V174H324V143ZM227 280V352Q227 376 215
389T182 403Q160 403 148 389T136 352V280H227ZM292 621Q292 586 260 563T181 539Q133 539 102 562T71 621Q71 645 80 663H129V648Q129 601 181 601Q234 601 234 648V663H282Q292 643 292 621Z" />
<glyph unicode="&#x116;" glyph-name="Edotaccent" horiz-adv-x="385" d="M361 0H43V666H361V559H167V394H301V296H167V111H361V0ZM240 719H158V816H240V719Z" />
<glyph unicode="&#x117;" glyph-name="edotaccent" horiz-adv-x="354" d="M324 143Q324 74 286 33T181 -8Q116 -8 75 34T34 144V336Q34 403 75 445T181 488T285 446T324 336V230H136V127Q136 104 148 91T182 77Q229 77 229 127V174H324V143ZM227 280V352Q227 376
215 389T182 403Q160 403 148 389T136 352V280H227ZM222 546H140V643H222V546Z" />
<glyph unicode="&#x118;" glyph-name="Eogonek" horiz-adv-x="385" d="M361 0H329Q294 -40 294 -81Q294 -106 310 -121T363 -129V-166Q340 -181 311 -181Q273 -181 250 -159T227 -102Q227 -44 288 0H43V666H361V559H167V394H301V296H167V111H361V0Z" />
<glyph unicode="&#x119;" glyph-name="eogonek" horiz-adv-x="354" d="M181 -8Q116 -8 75 34T34 144V336Q34 403 75 445T181 488T285 446T324 336V230H136V127Q136 104 148 91T182 77Q229 77 229 127V174H324V143Q324 81 292 41Q288 36 275 19T257 -5T244 -25T232
-51T229 -76Q229 -104 246 -120T301 -129V-166Q280 -181 249 -181Q210 -181 187 -158T163 -99Q163 -47 215 -5Q199 -8 181 -8ZM227 280V352Q227 376 215 389T182 403Q160 403 148 389T136 352V280H227Z" />
<glyph unicode="&#x11a;" glyph-name="Ecaron" horiz-adv-x="385" d="M325 809Q264 809 239 715H157Q132 809 72 809V837Q92 844 116 844Q182 844 201 768Q209 804 231 824T285 844Q305 844 325 837V809ZM361 0H43V666H361V559H167V394H301V296H167V111H361V0Z" />
<glyph unicode="&#x11b;" glyph-name="ecaron" horiz-adv-x="354" d="M307 636Q246 636 221 542H139Q114 636 54 636V664Q74 671 98 671Q164 671 183 595Q191 631 213 651T267 671Q287 671 307 664V636ZM324 143Q324 74 286 33T181 -8Q116 -8 75 34T34 144V336Q34
403 75 445T181 488T285 446T324 336V230H136V127Q136 104 148 91T182 77Q229 77 229 127V174H324V143ZM227 280V352Q227 376 215 389T182 403Q160 403 148 389T136 352V280H227Z" />
<glyph unicode="&#x11e;" glyph-name="Gbreve" horiz-adv-x="446" d="M414 0H346L329 53Q295 -15 207 -15Q127 -15 82 34T36 159V507Q36 579 87 629T226 680T361 631T410 507V438H291V512Q291 538 275 555T227 572T179 554T162 510V155Q162 129 179 111T228 93T276
111T294 155V248H229V338H414V0ZM336 803Q336 768 304 745T225 721Q177 721 146 744T115 803Q115 827 124 845H173V830Q173 783 225 783Q278 783 278 830V845H326Q336 825 336 803Z" />
<glyph unicode="&#x11f;" glyph-name="gbreve" horiz-adv-x="364" d="M369 492Q369 463 355 447T319 431Q303 431 287 439Q328 400 328 349V314Q328 254 288 216T182 177Q160 177 149 180Q133 180 124 170T114 147Q114 115 196 115Q274 115 312 84T350 -4V-27Q350
-90 307 -128T187 -166Q116 -166 70 -134T23 -50V-28Q23 -2 39 19T85 50Q29 70 29 122Q29 148 50 171T100 198Q70 210 54 243T37 317V348Q37 407 79 447T182 488Q200 488 218 484T239 480Q268 480 279 493T290 532H366Q369 512 369 492ZM229 301V357Q229 379 216
393T182 408Q160 408 148 394T135 357V301Q135 279 147 265T182 251Q203 251 216 265T229 301ZM256 -35V-10Q256 36 188 36Q119 36 119 -11V-36Q119 -58 137 -71T188 -84Q256 -84 256 -35ZM294 621Q294 586 262 563T183 539Q135 539 104 562T73 621Q73 645 82 663H131V648Q131
601 183 601Q236 601 236 648V663H284Q294 643 294 621Z" />
<glyph unicode="&#x120;" glyph-name="Gdotaccent" horiz-adv-x="446" d="M414 0H346L329 53Q295 -15 207 -15Q127 -15 82 34T36 159V507Q36 579 87 629T226 680T361 631T410 507V438H291V512Q291 538 275 555T227 572T179 554T162 510V155Q162 129 179 111T228
93T276 111T294 155V248H229V338H414V0ZM265 728H183V825H265V728Z" />
<glyph unicode="&#x121;" glyph-name="gdotaccent" horiz-adv-x="364" d="M369 492Q369 463 355 447T319 431Q303 431 287 439Q328 400 328 349V314Q328 254 288 216T182 177Q160 177 149 180Q133 180 124 170T114 147Q114 115 196 115Q274 115 312 84T350 -4V-27Q350
-90 307 -128T187 -166Q116 -166 70 -134T23 -50V-28Q23 -2 39 19T85 50Q29 70 29 122Q29 148 50 171T100 198Q70 210 54 243T37 317V348Q37 407 79 447T182 488Q200 488 218 484T239 480Q268 480 279 493T290 532H366Q369 512 369 492ZM229 301V357Q229 379 216
393T182 408Q160 408 148 394T135 357V301Q135 279 147 265T182 251Q203 251 216 265T229 301ZM256 -35V-10Q256 36 188 36Q119 36 119 -11V-36Q119 -58 137 -71T188 -84Q256 -84 256 -35ZM223 546H141V643H223V546Z" />
<glyph unicode="&#x122;" glyph-name="Gcommaaccent" horiz-adv-x="446" d="M262 -133Q262 -173 240 -197T176 -221V-192Q195 -192 207 -179T219 -142H177V-48H262V-133ZM414 0H346L329 53Q295 -15 207 -15Q127 -15 82 34T36 159V507Q36 579 87 629T226 680T361
631T410 507V438H291V512Q291 538 275 555T227 572T179 554T162 510V155Q162 129 179 111T228 93T276 111T294 155V248H229V338H414V0Z" />
<glyph unicode="&#x123;" glyph-name="gcommaaccent" horiz-adv-x="364" d="M139 640Q139 680 161 704T225 728V699Q206 699 194 686T182 649H224V555H139V640ZM369 492Q369 463 355 447T319 431Q303 431 287 439Q328 400 328 349V314Q328 254 288 216T182 177Q160
177 149 180Q133 180 124 170T114 147Q114 115 196 115Q274 115 312 84T350 -4V-27Q350 -90 307 -128T187 -166Q116 -166 70 -134T23 -50V-28Q23 -2 39 19T85 50Q29 70 29 122Q29 148 50 171T100 198Q70 210 54 243T37 317V348Q37 407 79 447T182 488Q200 488 218
484T239 480Q268 480 279 493T290 532H366Q369 512 369 492ZM229 301V357Q229 379 216 393T182 408Q160 408 148 394T135 357V301Q135 279 147 265T182 251Q203 251 216 265T229 301ZM256 -35V-10Q256 36 188 36Q119 36 119 -11V-36Q119 -58 137 -71T188 -84Q256
-84 256 -35Z" />
<glyph unicode="&#x126;" glyph-name="Hbar" horiz-adv-x="473" d="M431 0H306V273H167V0H43V508H-6V568H43V666H167V568H306V666H431V568H487V508H431V0ZM167 384H306V508H167V384Z" />
<glyph unicode="&#x127;" glyph-name="hbar" horiz-adv-x="379" d="M5 537V592H40V666H145V592H242V537H145V413Q160 447 186 466T245 486Q290 486 316 454T342 366V0H237V352Q237 374 226 387T195 400Q174 400 160 378T145 334V0H40V537H5Z" />
<glyph unicode="&#x12a;" glyph-name="Imacron" horiz-adv-x="211" d="M167 0H43V666H167V0ZM220 729H-9V794H220V729Z" />
<glyph unicode="&#x12b;" glyph-name="imacron" horiz-adv-x="185" d="M145 0H40V480H145V0ZM208 556H-21V621H208V556Z" />
<glyph unicode="&#x12c;" glyph-name="Ibreve" horiz-adv-x="211" d="M167 0H43V666H167V0ZM217 794Q217 759 185 736T106 712Q58 712 27 735T-4 794Q-4 818 5 836H54V821Q54 774 106 774Q159 774 159 821V836H207Q217 816 217 794Z" />
<glyph unicode="&#x12d;" glyph-name="ibreve" horiz-adv-x="185" d="M145 0H40V480H145V0ZM205 621Q205 586 173 563T94 539Q46 539 15 562T-16 621Q-16 645 -7 663H42V648Q42 601 94 601Q147 601 147 648V663H195Q205 643 205 621Z" />
<glyph unicode="&#x12e;" glyph-name="Iogonek" horiz-adv-x="211" d="M170 -129V-166Q148 -181 118 -181Q80 -181 57 -159T34 -102Q34 -44 95 0H43V666H167V0H136Q101 -40 101 -81Q101 -106 117 -121T170 -129Z" />
<glyph unicode="&#x12f;" glyph-name="iogonek" horiz-adv-x="185" d="M157 -129V-166Q135 -181 105 -181Q67 -181 44 -159T21 -102Q21 -44 82 0H40V480H145V0H123Q88 -40 88 -81Q88 -106 104 -121T157 -129ZM143 544H41V645H143V544Z" />
<glyph unicode="&#x130;" glyph-name="Idot" horiz-adv-x="211" d="M167 0H43V666H167V0ZM146 719H64V816H146V719Z" />
<glyph unicode="&#x131;" glyph-name="dotlessi" horiz-adv-x="185" d="M145 0H40V480H145V0Z" />
<glyph unicode="&#x136;" glyph-name="Kcommaaccent" horiz-adv-x="439" d="M263 -132Q263 -172 241 -196T177 -220V-191Q196 -191 208 -178T220 -141H178V-47H263V-132ZM432 0H302L210 274L167 186V0H43V666H167V361L301 666H426L295 385L432 0Z" />
<glyph unicode="&#x137;" glyph-name="kcommaaccent" horiz-adv-x="363" d="M232 -133Q232 -173 210 -197T146 -221V-192Q165 -192 177 -179T189 -142H147V-48H232V-133ZM354 0H250L184 194L146 120V0H40V666H146V259L241 481H344L251 276L354 0Z" />
<glyph unicode="&#x139;" glyph-name="Lacute" horiz-adv-x="365" d="M210 839L130 701H71L109 839H210ZM353 0H43V666H167V110H353V0Z" />
<glyph unicode="&#x13a;" glyph-name="lacute" horiz-adv-x="185" d="M199 838L119 700H60L98 838H199ZM145 0H40V666H145V0Z" />
<glyph unicode="&#x13b;" glyph-name="Lcommaaccent" horiz-adv-x="365" d="M237 -133Q237 -173 215 -197T151 -221V-192Q170 -192 182 -179T194 -142H152V-48H237V-133ZM353 0H43V666H167V110H353V0Z" />
<glyph unicode="&#x13c;" glyph-name="lcommaaccent" horiz-adv-x="185" d="M135 -133Q135 -173 113 -197T49 -221V-192Q68 -192 80 -179T92 -142H50V-48H135V-133ZM145 0H40V666H145V0Z" />
<glyph unicode="&#x13d;" glyph-name="Lcaron" horiz-adv-x="365" d="M297 666L260 502H212V666H297ZM353 0H43V666H167V110H353V0Z" />
<glyph unicode="&#x13e;" glyph-name="lcaron" horiz-adv-x="185" d="M270 666L233 502H185V666H270ZM145 0H40V666H145V0Z" />
<glyph unicode="&#x13f;" glyph-name="Ldot" horiz-adv-x="365" d="M335 295H239V421H335V295ZM353 0H43V666H167V110H353V0Z" />
<glyph unicode="&#x140;" glyph-name="ldot" horiz-adv-x="273" d="M275 264H181V390H275V264ZM145 0H40V666H145V0Z" />
<glyph unicode="&#x141;" glyph-name="Lslash" horiz-adv-x="396" d="M217 327V110H404V0H93V249L18 204L-4 252L93 315V666H217V393L287 438L309 389L217 327Z" />
<glyph unicode="&#x142;" glyph-name="lslash" horiz-adv-x="250" d="M267 439L178 349V0H72V246L15 190L-18 232L72 322V666H178V426L235 482L267 439Z" />
<glyph unicode="&#x143;" glyph-name="Nacute" horiz-adv-x="471" d="M337 846L257 708H198L236 846H337ZM428 0H332L203 284L156 390V0H42V666H149L272 377L316 271V666H428V0Z" />
<glyph unicode="&#x144;" glyph-name="nacute" horiz-adv-x="380" d="M290 676L210 538H151L189 676H290ZM342 0H237V354Q237 376 226 389T196 402Q174 402 160 380T145 336V0H40V480H131L137 402Q152 444 179 466T240 488Q289 488 315 456T342 368V0Z" />
<glyph unicode="&#x145;" glyph-name="Ncommaaccent" horiz-adv-x="471" d="M278 -129Q278 -169 256 -193T192 -217V-188Q211 -188 223 -175T235 -138H193V-44H278V-129ZM428 0H332L203 284L156 390V0H42V666H149L272 377L316 271V666H428V0Z" />
<glyph unicode="&#x146;" glyph-name="ncommaaccent" horiz-adv-x="380" d="M230 -133Q230 -173 208 -197T144 -221V-192Q163 -192 175 -179T187 -142H145V-48H230V-133ZM342 0H237V354Q237 376 226 389T196 402Q174 402 160 380T145 336V0H40V480H131L137 402Q152
444 179 466T240 488Q289 488 315 456T342 368V0Z" />
<glyph unicode="&#x147;" glyph-name="Ncaron" horiz-adv-x="471" d="M357 806Q296 806 271 712H189Q164 806 104 806V834Q124 841 148 841Q214 841 233 765Q241 801 263 821T317 841Q337 841 357 834V806ZM428 0H332L203 284L156 390V0H42V666H149L272 377L316
271V666H428V0Z" />
<glyph unicode="&#x148;" glyph-name="ncaron" horiz-adv-x="380" d="M310 636Q249 636 224 542H142Q117 636 57 636V664Q77 671 101 671Q167 671 186 595Q194 631 216 651T270 671Q290 671 310 664V636ZM342 0H237V354Q237 376 226 389T196 402Q174 402 160 380T145
336V0H40V480H131L137 402Q152 444 179 466T240 488Q289 488 315 456T342 368V0Z" />
<glyph unicode="&#x14c;" glyph-name="Omacron" horiz-adv-x="450" d="M340 738H111V803H340V738ZM414 167Q414 86 363 36T225 -15Q139 -15 88 35T36 167V499Q36 579 87 629T225 680T362 630T414 499V167ZM289 159V507Q289 537 272 554T225 572T179 555T162 507V159Q162
129 178 112T225 94T272 111T289 159Z" />
<glyph unicode="&#x14d;" glyph-name="omacron" horiz-adv-x="363" d="M296 556H67V621H296V556ZM329 146Q329 75 289 34T182 -8Q115 -8 75 33T34 146V333Q34 404 75 446T182 488T288 446T329 333V146ZM227 126V353Q227 375 215 389T182 403Q161 403 149 389T137
353V126Q137 104 149 91T182 77Q202 77 214 90T227 126Z" />
<glyph unicode="&#x14e;" glyph-name="Obreve" horiz-adv-x="450" d="M414 167Q414 86 363 36T225 -15Q139 -15 88 35T36 167V499Q36 579 87 629T225 680T362 630T414 499V167ZM289 159V507Q289 537 272 554T225 572T179 555T162 507V159Q162 129 178 112T225
94T272 111T289 159ZM337 803Q337 768 305 745T226 721Q178 721 147 744T116 803Q116 827 125 845H174V830Q174 783 226 783Q279 783 279 830V845H327Q337 825 337 803Z" />
<glyph unicode="&#x14f;" glyph-name="obreve" horiz-adv-x="363" d="M329 146Q329 75 289 34T182 -8Q115 -8 75 33T34 146V333Q34 404 75 446T182 488T288 446T329 333V146ZM227 126V353Q227 375 215 389T182 403Q161 403 149 389T137 353V126Q137 104 149 91T182
77Q202 77 214 90T227 126ZM292 621Q292 586 260 563T181 539Q133 539 102 562T71 621Q71 645 80 663H129V648Q129 601 181 601Q234 601 234 648V663H282Q292 643 292 621Z" />
<glyph unicode="&#x150;" glyph-name="Ohungarumlaut" horiz-adv-x="450" d="M379 858L304 720H245L296 858H379ZM251 858L193 720H136L171 858H251ZM414 167Q414 86 363 36T225 -15Q139 -15 88 35T36 167V499Q36 579 87 629T225 680T362 630T414 499V167ZM289
159V507Q289 537 272 554T225 572T179 555T162 507V159Q162 129 178 112T225 94T272 111T289 159Z" />
<glyph unicode="&#x151;" glyph-name="ohungarumlaut" horiz-adv-x="363" d="M335 676L260 538H201L252 676H335ZM207 676L149 538H92L127 676H207ZM329 146Q329 75 289 34T182 -8Q115 -8 75 33T34 146V333Q34 404 75 446T182 488T288 446T329 333V146ZM227 126V353Q227
375 215 389T182 403Q161 403 149 389T137 353V126Q137 104 149 91T182 77Q202 77 214 90T227 126Z" />
<glyph unicode="&#x152;" glyph-name="OE" horiz-adv-x="630" d="M606 0H225Q136 0 87 48T38 180V480Q38 565 87 615T225 666H606V559H412V395H546V296H412V111H606V0ZM287 106V560H233Q162 560 162 481V185Q162 106 233 106H287Z" />
<glyph unicode="&#x153;" glyph-name="oe" horiz-adv-x="555" d="M526 143Q526 74 490 33T394 -8Q319 -8 282 48Q247 -8 170 -8Q109 -8 72 33T34 146V333Q34 404 71 446T170 488Q247 488 283 431Q299 457 329 472T394 488Q454 488 490 446T526 336V230H338V130Q338
79 384 79Q431 79 431 130V174H526V143ZM429 280V350Q429 373 417 387T384 401Q362 401 350 387T338 350V280H429ZM227 129V350Q227 373 215 387T181 401Q161 401 149 387T136 350V129Q136 106 148 93T181 79Q202 79 214 92T227 129Z" />
<glyph unicode="&#x154;" glyph-name="Racute" horiz-adv-x="439" d="M319 849L239 711H180L218 849H319ZM426 -4H351Q283 -4 283 94V219Q283 244 270 260T232 276H167V0H43V666H248Q317 666 358 628T400 521V427Q400 347 325 324Q362 314 382 286T402 223V101Q402
59 426 33V-4ZM279 421V516Q279 564 235 564H167V368H230Q279 368 279 421Z" />
<glyph unicode="&#x155;" glyph-name="racute" horiz-adv-x="271" d="M254 676L174 538H115L153 676H254ZM257 375Q145 391 145 315V0H40V480H129L136 398Q164 503 257 484V375Z" />
<glyph unicode="&#x156;" glyph-name="Rcommaaccent" horiz-adv-x="439" d="M265 -133Q265 -173 243 -197T179 -221V-192Q198 -192 210 -179T222 -142H180V-48H265V-133ZM426 -4H351Q283 -4 283 94V219Q283 244 270 260T232 276H167V0H43V666H248Q317 666 358
628T400 521V427Q400 347 325 324Q362 314 382 286T402 223V101Q402 59 426 33V-4ZM279 421V516Q279 564 235 564H167V368H230Q279 368 279 421Z" />
<glyph unicode="&#x157;" glyph-name="rcommaaccent" horiz-adv-x="271" d="M136 -133Q136 -173 114 -197T50 -221V-192Q69 -192 81 -179T93 -142H51V-48H136V-133ZM257 375Q145 391 145 315V0H40V480H129L136 398Q164 503 257 484V375Z" />
<glyph unicode="&#x158;" glyph-name="Rcaron" horiz-adv-x="439" d="M338 809Q277 809 252 715H170Q145 809 85 809V837Q105 844 129 844Q195 844 214 768Q222 804 244 824T298 844Q318 844 338 837V809ZM426 -4H351Q283 -4 283 94V219Q283 244 270 260T232 276H167V0H43V666H248Q317
666 358 628T400 521V427Q400 347 325 324Q362 314 382 286T402 223V101Q402 59 426 33V-4ZM279 421V516Q279 564 235 564H167V368H230Q279 368 279 421Z" />
<glyph unicode="&#x159;" glyph-name="rcaron" horiz-adv-x="271" d="M274 636Q213 636 188 542H106Q81 636 21 636V664Q41 671 65 671Q131 671 150 595Q158 631 180 651T234 671Q254 671 274 664V636ZM257 375Q145 391 145 315V0H40V480H129L136 398Q164 503
257 484V375Z" />
<glyph unicode="&#x15a;" glyph-name="Sacute" horiz-adv-x="417" d="M318 858L238 720H179L217 858H318ZM393 169Q393 88 342 37T209 -15Q124 -15 74 32T24 157V203H138V164Q138 88 206 88Q238 88 255 106T272 155Q272 193 249 223T172 293Q30 395 30 501Q30
577 78 628T212 680Q290 680 338 632T387 509V466H274V506Q274 538 258 557T211 577Q184 577 168 561T151 517Q151 478 174 451T258 378Q324 328 358 280T393 169Z" />
<glyph unicode="&#x15b;" glyph-name="sacute" horiz-adv-x="335" d="M280 676L200 538H141L179 676H280ZM313 128Q313 71 276 32T171 -8Q102 -8 64 30T25 132V155H115V129Q115 74 167 74Q217 74 217 119Q217 135 213 146T193 171T167 190T126 216Q31 268 31 354Q31
415 70 451T171 488Q236 488 272 451T309 352V334H222V358Q222 403 173 403Q129 403 129 363Q129 341 145 324T201 283Q255 254 284 219T313 128Z" />
<glyph unicode="&#x15e;" glyph-name="Scedilla" horiz-adv-x="417" d="M285 -147Q285 -183 260 -207T196 -232Q176 -232 159 -222V-190H176Q214 -190 214 -156V-129Q214 -95 176 -95Q158 -95 135 -116L104 -94L163 -11Q98 1 61 45T24 157V203H138V164Q138 88
206 88Q238 88 255 106T272 155Q272 193 249 223T172 293Q30 395 30 501Q30 577 78 628T212 680Q290 680 338 632T387 509V466H274V506Q274 538 258 557T211 577Q184 577 168 561T151 517Q151 478 174 451T258 378Q324 328 358 280T393 169Q393 88 342 37T209 -15H208L169
-70Q180 -63 204 -63Q242 -63 263 -86T285 -147Z" />
<glyph unicode="&#x15f;" glyph-name="scedilla" horiz-adv-x="335" d="M250 -147Q250 -183 225 -207T161 -232Q141 -232 124 -222V-190H141Q179 -190 179 -156V-129Q179 -95 141 -95Q123 -95 100 -116L69 -94L132 -4Q81 6 53 42T25 132V155H115V129Q115 74 167
74Q217 74 217 119Q217 135 213 146T193 171T167 190T126 216Q31 268 31 354Q31 415 70 451T171 488Q236 488 272 451T309 352V334H222V358Q222 403 173 403Q129 403 129 363Q129 341 145 324T201 283Q255 254 284 219T313 128Q313 73 278 34T178 -8L134 -70Q145
-63 169 -63Q207 -63 228 -86T250 -147Z" />
<glyph unicode="&#x160;" glyph-name="Scaron" horiz-adv-x="417" d="M393 169Q393 88 342 37T209 -15Q124 -15 74 32T24 157V203H138V164Q138 88 206 88Q238 88 255 106T272 155Q272 193 249 223T172 293Q30 395 30 501Q30 577 78 628T212 680Q290 680 338 632T387
509V466H274V506Q274 538 258 557T211 577Q184 577 168 561T151 517Q151 478 174 451T258 378Q324 328 358 280T393 169ZM335 799Q274 799 249 705H167Q142 799 82 799V827Q102 834 126 834Q192 834 211 758Q219 794 241 814T295 834Q315 834 335 827V799Z" />
<glyph unicode="&#x161;" glyph-name="scaron" horiz-adv-x="335" d="M313 128Q313 71 276 32T171 -8Q102 -8 64 30T25 132V155H115V129Q115 74 167 74Q217 74 217 119Q217 135 213 146T193 171T167 190T126 216Q31 268 31 354Q31 415 70 451T171 488Q236 488
272 451T309 352V334H222V358Q222 403 173 403Q129 403 129 363Q129 341 145 324T201 283Q255 254 284 219T313 128ZM296 636Q235 636 210 542H128Q103 636 43 636V664Q63 671 87 671Q153 671 172 595Q180 631 202 651T256 671Q276 671 296 664V636Z" />
<glyph unicode="&#x162;" glyph-name="Tcommaaccent" horiz-adv-x="390" d="M238 -133Q238 -173 216 -197T152 -221V-192Q171 -192 183 -179T195 -142H153V-48H238V-133ZM380 556H258V0H133V556H10V666H380V556Z" />
<glyph unicode="&#x163;" glyph-name="tcommaaccent" horiz-adv-x="245" d="M235 394H171V147Q171 52 196 0H88Q65 51 65 147V394H11V480H70V564L171 591V480H235V394ZM183 -133Q183 -173 161 -197T97 -221V-192Q116 -192 128 -179T140 -142H98V-48H183V-133Z" />
<glyph unicode="&#x164;" glyph-name="Tcaron" horiz-adv-x="390" d="M322 809Q261 809 236 715H154Q129 809 69 809V837Q89 844 113 844Q179 844 198 768Q206 804 228 824T282 844Q302 844 322 837V809ZM380 556H258V0H133V556H10V666H380V556Z" />
<glyph unicode="&#x165;" glyph-name="tcaron" horiz-adv-x="245" d="M235 394H171V147Q171 52 196 0H88Q65 51 65 147V394H11V480H70V564L171 591V480H235V394ZM290 684L253 520H205V684H290Z" />
<glyph unicode="&#x16a;" glyph-name="Umacron" horiz-adv-x="455" d="M413 154Q413 79 362 32T229 -15Q147 -15 94 32T41 154V666H167V154Q167 93 229 93Q292 93 292 154V666H413V154ZM342 726H113V791H342V726Z" />
<glyph unicode="&#x16b;" glyph-name="umacron" horiz-adv-x="382" d="M341 0H252L247 72Q232 33 204 13T142 -8Q93 -8 66 24T39 111V480H145V125Q145 103 156 90T186 77Q207 77 221 99T236 143V480H341V0ZM305 556H76V621H305V556Z" />
<glyph unicode="&#x16c;" glyph-name="Ubreve" horiz-adv-x="455" d="M413 154Q413 79 362 32T229 -15Q147 -15 94 32T41 154V666H167V154Q167 93 229 93Q292 93 292 154V666H413V154ZM339 791Q339 756 307 733T228 709Q180 709 149 732T118 791Q118 815 127 833H176V818Q176
771 228 771Q281 771 281 818V833H329Q339 813 339 791Z" />
<glyph unicode="&#x16d;" glyph-name="ubreve" horiz-adv-x="382" d="M341 0H252L247 72Q232 33 204 13T142 -8Q93 -8 66 24T39 111V480H145V125Q145 103 156 90T186 77Q207 77 221 99T236 143V480H341V0ZM302 621Q302 586 270 563T191 539Q143 539 112 562T81
621Q81 645 90 663H139V648Q139 601 191 601Q244 601 244 648V663H292Q302 643 302 621Z" />
<glyph unicode="&#x16e;" glyph-name="Uring" horiz-adv-x="455" d="M308 820T308 787T285 730T227 705T169 729T146 787T169 844T227 869T285 845ZM267 766T267 787T257 820T227 833Q188 833 188 787Q188 766 198 754T227 741T256 753ZM413 154Q413 79 362 32T229
-15Q147 -15 94 32T41 154V666H167V154Q167 93 229 93Q292 93 292 154V666H413V154Z" />
<glyph unicode="&#x16f;" glyph-name="uring" horiz-adv-x="382" d="M272 650T272 617T249 560T191 535T133 559T110 617T133 674T191 699T249 675ZM231 596T231 617T221 650T191 663Q152 663 152 617Q152 596 162 584T191 571T220 583ZM341 0H252L247 72Q232
33 204 13T142 -8Q93 -8 66 24T39 111V480H145V125Q145 103 156 90T186 77Q207 77 221 99T236 143V480H341V0Z" />
<glyph unicode="&#x170;" glyph-name="Uhungarumlaut" horiz-adv-x="455" d="M413 154Q413 79 362 32T229 -15Q147 -15 94 32T41 154V666H167V154Q167 93 229 93Q292 93 292 154V666H413V154ZM381 846L306 708H247L298 846H381ZM253 846L195 708H138L173 846H253Z" />
<glyph unicode="&#x171;" glyph-name="uhungarumlaut" horiz-adv-x="382" d="M341 0H252L247 72Q232 33 204 13T142 -8Q93 -8 66 24T39 111V480H145V125Q145 103 156 90T186 77Q207 77 221 99T236 143V480H341V0ZM344 676L269 538H210L261 676H344ZM216 676L158
538H101L136 676H216Z" />
<glyph unicode="&#x172;" glyph-name="Uogonek" horiz-adv-x="455" d="M413 154Q413 85 369 40T252 -14Q228 -48 228 -81Q228 -106 244 -121T297 -129V-166Q274 -181 245 -181Q207 -181 184 -159T161 -102Q161 -55 205 -14Q132 -6 87 39T41 154V666H167V154Q167
93 229 93Q292 93 292 154V666H413V154Z" />
<glyph unicode="&#x173;" glyph-name="uogonek" horiz-adv-x="382" d="M341 480V0Q283 -34 283 -83Q283 -107 298 -121T349 -129V-166Q325 -181 299 -181Q262 -181 240 -160T217 -102Q217 -72 238 -44T296 0H252L247 72Q232 33 204 13T142 -8Q93 -8 66 24T39 111V480H145V125Q145
103 156 90T186 77Q207 77 221 99T236 143V480H341Z" />
<glyph unicode="&#x174;" glyph-name="Wcircumflex" horiz-adv-x="609" d="M436 718Q412 710 391 710Q326 710 307 788Q298 751 276 731T222 710Q205 710 183 718V746Q243 746 268 841H350Q375 746 436 746V718ZM606 666L483 0H372L305 392L234 0H124L6 666H129L189
226L263 666H359L427 226L491 666H606Z" />
<glyph unicode="&#x175;" glyph-name="wcircumflex" horiz-adv-x="491" d="M376 545Q352 537 331 537Q266 537 247 615Q238 578 216 558T162 537Q145 537 123 545V573Q183 573 208 668H290Q315 573 376 573V545ZM486 480L384 0H299L260 195L246 286L231 195L193
0H107L6 480H109L143 244L155 148L168 244L207 480H293L328 244L342 148L354 244L392 480H486Z" />
<glyph unicode="&#x176;" glyph-name="Ycircumflex" horiz-adv-x="416" d="M420 666L269 272V0H145V272L-2 666H128L214 395L296 666H420ZM337 715Q313 707 292 707Q227 707 208 785Q199 748 177 728T123 707Q106 707 84 715V743Q144 743 169 838H251Q276 743
337 743V715Z" />
<glyph unicode="&#x177;" glyph-name="ycircumflex" horiz-adv-x="333" d="M327 480L211 -15Q192 -92 164 -126T66 -160H36V-80H58Q85 -80 95 -70T112 -33L120 8L8 480H110L155 243L170 150L184 243L228 480H327ZM295 545Q271 537 250 537Q185 537 166 615Q157
578 135 558T81 537Q64 537 42 545V573Q102 573 127 668H209Q234 573 295 573V545Z" />
<glyph unicode="&#x178;" glyph-name="Ydieresis" horiz-adv-x="416" d="M420 666L269 272V0H145V272L-2 666H128L214 395L296 666H420ZM318 709H235V806H318V709ZM185 709H103V806H185V709Z" />
<glyph unicode="&#x179;" glyph-name="Zacute" horiz-adv-x="397" d="M307 849L227 711H168L206 849H307ZM379 627L166 110H371V0H15V39L231 559H28V666H379V627Z" />
<glyph unicode="&#x17a;" glyph-name="zacute" horiz-adv-x="309" d="M263 676L183 538H124L162 676H263ZM290 429L134 94H285V0H18V51L177 390H28V480H290V429Z" />
<glyph unicode="&#x17b;" glyph-name="Zdotaccent" horiz-adv-x="397" d="M379 627L166 110H371V0H15V39L231 559H28V666H379V627ZM242 719H160V816H242V719Z" />
<glyph unicode="&#x17c;" glyph-name="zdotaccent" horiz-adv-x="309" d="M290 429L134 94H285V0H18V51L177 390H28V480H290V429ZM198 546H116V643H198V546Z" />
<glyph unicode="&#x17d;" glyph-name="Zcaron" horiz-adv-x="397" d="M379 627L166 110H371V0H15V39L231 559H28V666H379V627ZM328 799Q267 799 242 705H160Q135 799 75 799V827Q95 834 119 834Q185 834 204 758Q212 794 234 814T288 834Q308 834 328 827V799Z" />
<glyph unicode="&#x17e;" glyph-name="zcaron" horiz-adv-x="309" d="M290 429L134 94H285V0H18V51L177 390H28V480H290V429ZM286 636Q225 636 200 542H118Q93 636 33 636V664Q53 671 77 671Q143 671 162 595Q170 631 192 651T246 671Q266 671 286 664V636Z" />
<glyph unicode="&#x192;" glyph-name="florin" horiz-adv-x="315" d="M214 392H289V310H214V138Q214 -17 73 -17H42V67H54Q84 67 94 78T105 115V310H32V392H105V512Q105 666 246 666H277V582H265Q236 582 225 571T214 534V392Z" />
<glyph unicode="&#x1fa;" glyph-name="Aringacute" horiz-adv-x="413" d="M312 966L232 828H173L211 966H312ZM156 666Q125 687 125 726Q125 760 148 784T206 808T264 784T287 726Q287 687 256 666H276L409 0H283L261 131H143L119 0H3L137 666H156ZM246 726Q246
747 236 759T206 772T177 760T166 726Q166 706 176 694T206 681T235 693T246 726ZM245 229L205 486L160 229H245Z" />
<glyph unicode="&#x1fb;" glyph-name="aringacute" horiz-adv-x="359" d="M340 -8H315Q251 -8 237 53Q202 -8 130 -8Q82 -8 52 25T21 115V129Q21 196 70 231T214 291V360Q214 402 173 402Q134 402 134 358V323H38V353Q38 414 73 451T178 488T281 448T316 342V92Q316
68 340 67V-8ZM214 121V225Q166 214 144 195T121 143V116Q121 96 131 84T161 71Q183 71 198 85T214 121ZM290 836L210 698H151L189 836H290ZM262 626T262 593T239 536T181 511T123 535T100 593T123 650T181 675T239 651ZM221 572T221 593T211 626T181 639Q142 639
142 593Q142 572 152 560T181 547T210 559Z" />
<glyph unicode="&#x1fc;" glyph-name="AEacute" horiz-adv-x="618" d="M453 849L373 711H314L352 849H453ZM594 0H275V131H165L124 0H2L219 666H594V559H400V395H534V296H400V111H594V0ZM275 229V501L196 229H275Z" />
<glyph unicode="&#x1fd;" glyph-name="aeacute" horiz-adv-x="541" d="M379 676L299 538H240L278 676H379ZM512 143Q512 75 476 34T380 -8Q299 -8 264 49Q223 -8 140 -8Q85 -8 54 25T22 115V129Q22 196 71 231T215 291V355Q215 400 173 400Q132 400 132 356V323H40V353Q40
413 73 450T168 488Q235 488 270 433Q307 488 380 488Q440 488 476 446T512 336V230H324V130Q324 79 371 79Q394 79 406 93T418 130V174H512V143ZM415 280V350Q415 373 403 387T370 401Q348 401 336 387T324 350V280H415ZM215 124V225Q167 214 145 195T122 143V118Q122
98 132 86T162 73Q184 73 199 87T215 124Z" />
<glyph unicode="&#x1fe;" glyph-name="Oslashacute" horiz-adv-x="450" d="M432 666L392 590Q414 552 414 499V167Q414 86 363 36T225 -15Q147 -15 97 27L67 -31L17 0L57 77Q36 116 36 167V499Q36 579 87 629T225 680Q302 680 352 639L382 697L432 666ZM288 518Q281
572 225 572Q195 572 179 555T162 507V277L288 518ZM289 159V393L162 151Q164 125 181 110T225 94Q255 94 272 111T289 159ZM330 858L250 720H191L229 858H330Z" />
<glyph unicode="&#x1ff;" glyph-name="oslashacute" horiz-adv-x="363" d="M355 479L313 410Q329 376 329 333V146Q329 75 289 34T182 -8Q117 -8 79 30L44 -27L9 1L50 68Q34 103 34 146V333Q34 404 75 446T182 488Q244 488 284 450L319 506L355 479ZM289 676L209
538H150L188 676H289ZM227 126V270L204 234Q182 198 160 162L137 125Q137 103 149 90T182 77Q202 77 214 90T227 126ZM227 356Q226 376 214 389T182 403Q161 403 149 389T137 353V209L227 356Z" />
<glyph unicode="&#x218;" glyph-name="Scommaaccent" horiz-adv-x="417" d="M254 -134Q254 -174 232 -198T168 -222V-193Q187 -193 199 -180T211 -143H169V-49H254V-134ZM393 169Q393 88 342 37T209 -15Q124 -15 74 32T24 157V203H138V164Q138 88 206 88Q238 88
255 106T272 155Q272 193 249 223T172 293Q30 395 30 501Q30 577 78 628T212 680Q290 680 338 632T387 509V466H274V506Q274 538 258 557T211 577Q184 577 168 561T151 517Q151 478 174 451T258 378Q324 328 358 280T393 169Z" />
<glyph unicode="&#x219;" glyph-name="scommaaccent" horiz-adv-x="335" d="M213 -133Q213 -173 191 -197T127 -221V-192Q146 -192 158 -179T170 -142H128V-48H213V-133ZM313 128Q313 71 276 32T171 -8Q102 -8 64 30T25 132V155H115V129Q115 74 167 74Q217 74
217 119Q217 135 213 146T193 171T167 190T126 216Q31 268 31 354Q31 415 70 451T171 488Q236 488 272 451T309 352V334H222V358Q222 403 173 403Q129 403 129 363Q129 341 145 324T201 283Q255 254 284 219T313 128Z" />
<glyph unicode="&#x259;" glyph-name="schwa" horiz-adv-x="354" d="M29 336Q29 405 67 446T172 487Q237 487 278 445T319 335V143Q319 76 278 34T172 -9T68 33T29 143V249H217V352Q217 375 205 388T171 402Q124 402 124 352V305H29V336ZM126 199V127Q126 103
138 90T171 76Q193 76 205 90T217 127V199H126Z" />
<glyph unicode="&#x2c6;" glyph-name="circumflex" horiz-adv-x="277" d="M266 545Q242 537 221 537Q156 537 137 615Q128 578 106 558T52 537Q35 537 13 545V573Q73 573 98 668H180Q205 573 266 573V545Z" />
<glyph unicode="&#x2c7;" glyph-name="caron" horiz-adv-x="278" d="M266 636Q205 636 180 542H98Q73 636 13 636V664Q33 671 57 671Q123 671 142 595Q150 631 172 651T226 671Q246 671 266 664V636Z" />
<glyph unicode="&#x2d8;" glyph-name="breve" horiz-adv-x="244" d="M233 621Q233 586 201 563T122 539Q74 539 43 562T12 621Q12 645 21 663H70V648Q70 601 122 601Q175 601 175 648V663H223Q233 643 233 621Z" />
<glyph unicode="&#x2d9;" glyph-name="dotaccent" horiz-adv-x="241" d="M162 546H80V643H162V546Z" />
<glyph unicode="&#x2da;" glyph-name="ring" horiz-adv-x="182" d="M173 650T173 617T150 560T92 535T34 559T11 617T34 674T92 699T150 675ZM132 596T132 617T122 650T92 663Q53 663 53 617Q53 596 63 584T92 571T121 583Z" />
<glyph unicode="&#x2db;" glyph-name="ogonek" horiz-adv-x="187" d="M159 -129V-166Q136 -181 107 -181Q69 -181 46 -159T23 -102T48 -35T115 18L134 9Q90 -35 90 -81Q90 -106 106 -121T159 -129Z" />
<glyph unicode="&#x2dc;" glyph-name="tilde" horiz-adv-x="284" d="M273 627Q273 548 200 548Q174 548 136 572T87 596Q67 596 67 573V549H26Q13 568 13 590Q13 669 85 669Q111 669 149 646T198 622Q219 622 219 645V668H260Q273 649 273 627Z" />
<glyph unicode="&#x2dd;" glyph-name="hungarumlaut" horiz-adv-x="256" d="M263 676L188 538H129L180 676H263ZM135 676L77 538H20L55 676H135Z" />
<glyph unicode="&#x326;" glyph-name="commaaccent" horiz-adv-x="242" d="M162 -133Q162 -173 140 -197T76 -221V-192Q95 -192 107 -179T119 -142H77V-48H162V-133Z" />
<glyph unicode="&#x1e80;" glyph-name="Wgrave" horiz-adv-x="609" d="M606 666L483 0H372L305 392L234 0H124L6 666H129L189 226L263 666H359L427 226L491 666H606ZM343 711H284L205 849H305L343 711Z" />
<glyph unicode="&#x1e81;" glyph-name="wgrave" horiz-adv-x="491" d="M486 480L384 0H299L260 195L246 286L231 195L193 0H107L6 480H109L143 244L155 148L168 244L207 480H293L328 244L342 148L354 244L392 480H486ZM283 538H224L145 676H245L283 538Z" />
<glyph unicode="&#x1e82;" glyph-name="Wacute" horiz-adv-x="609" d="M415 849L335 711H276L314 849H415ZM606 666L483 0H372L305 392L234 0H124L6 666H129L189 226L263 666H359L427 226L491 666H606Z" />
<glyph unicode="&#x1e83;" glyph-name="wacute" horiz-adv-x="491" d="M355 676L275 538H216L254 676H355ZM486 480L384 0H299L260 195L246 286L231 195L193 0H107L6 480H109L143 244L155 148L168 244L207 480H293L328 244L342 148L354 244L392 480H486Z" />
<glyph unicode="&#x1e84;" glyph-name="Wdieresis" horiz-adv-x="609" d="M415 719H332V816H415V719ZM282 719H200V816H282V719ZM606 666L483 0H372L305 392L234 0H124L6 666H129L189 226L263 666H359L427 226L491 666H606Z" />
<glyph unicode="&#x1e85;" glyph-name="wdieresis" horiz-adv-x="491" d="M356 546H273V643H356V546ZM223 546H141V643H223V546ZM486 480L384 0H299L260 195L246 286L231 195L193 0H107L6 480H109L143 244L155 148L168 244L207 480H293L328 244L342 148L354 244L392
480H486Z" />
<glyph unicode="&#x1ef2;" glyph-name="Ygrave" horiz-adv-x="416" d="M420 666L269 272V0H145V272L-2 666H128L214 395L296 666H420ZM244 708H185L106 846H206L244 708Z" />
<glyph unicode="&#x1ef3;" glyph-name="ygrave" horiz-adv-x="333" d="M327 480L211 -15Q192 -92 164 -126T66 -160H36V-80H58Q85 -80 95 -70T112 -33L120 8L8 480H110L155 243L170 150L184 243L228 480H327ZM202 538H143L64 676H164L202 538Z" />
<glyph unicode="&#x2002;" glyph-name="enspace" horiz-adv-x="500" />
<glyph unicode="&#x2003;" glyph-name="emspace" horiz-adv-x="1000" />
<glyph unicode="&#x2004;" glyph-name="threeperemspace" horiz-adv-x="333" />
<glyph unicode="&#x2005;" glyph-name="fourperemspace" horiz-adv-x="250" />
<glyph unicode="&#x2009;" glyph-name="thinspace" horiz-adv-x="133" />
<glyph unicode="&#x200a;" glyph-name="hairspace" horiz-adv-x="75" />
<glyph unicode="&#x2013;" glyph-name="endash" horiz-adv-x="475" d="M413 263H63V347H413V263Z" />
<glyph unicode="&#x2014;" glyph-name="emdash" horiz-adv-x="713" d="M651 263H63V347H651V263Z" />
<glyph unicode="&#x2018;" glyph-name="quoteleft" horiz-adv-x="162" d="M32 559Q32 607 60 637T138 668V638Q85 638 85 572H130V445H32V559Z" />
<glyph unicode="&#x2019;" glyph-name="quoteright" horiz-adv-x="162" d="M130 552Q130 504 102 474T24 444V473Q77 473 77 539H32V666H130V552Z" />
<glyph unicode="&#x201a;" glyph-name="quotesinglbase" horiz-adv-x="162" d="M130 13Q130 -35 102 -65T24 -95V-66Q77 -66 77 0H32V127H130V13Z" />
<glyph unicode="&#x201c;" glyph-name="quotedblleft" horiz-adv-x="291" d="M162 559Q162 607 189 637T267 668V638Q214 638 214 572H258V445H162V559ZM32 559Q32 607 60 637T138 668V638Q85 638 85 572H130V445H32V559Z" />
<glyph unicode="&#x201d;" glyph-name="quotedblright" horiz-adv-x="291" d="M258 552Q258 504 231 474T153 444V473Q178 473 192 490T207 539H162V666H258V552ZM130 552Q130 504 102 474T24 444V473Q77 473 77 539H32V666H130V552Z" />
<glyph unicode="&#x201e;" glyph-name="quotedblbase" horiz-adv-x="291" d="M258 13Q258 -35 231 -65T153 -95V-66Q178 -66 192 -49T207 0H162V127H258V13ZM130 13Q130 -35 102 -65T24 -95V-66Q77 -66 77 0H32V127H130V13Z" />
<glyph unicode="&#x2020;" glyph-name="dagger" horiz-adv-x="373" d="M361 421Q361 409 347 409Q255 409 211 421Q223 377 223 248Q223 15 213 -58Q213 -72 202 -72H172Q159 -72 159 -58Q151 24 151 248Q151 376 162 421Q118 409 27 409Q13 409 13 421V469Q13
480 27 480Q119 480 162 469Q151 509 151 652Q151 666 162 666H211Q223 666 223 652Q223 514 212 469Q254 480 347 480Q361 480 361 469V421Z" />
<glyph unicode="&#x2021;" glyph-name="daggerdbl" horiz-adv-x="373" d="M361 118Q361 107 347 107Q254 107 212 118Q223 73 223 -65Q223 -79 211 -79H162Q151 -79 151 -65Q151 78 162 118Q119 107 27 107Q13 107 13 118V166Q13 178 27 178Q112 178 162 166Q151
211 151 290T162 414Q118 402 27 402Q13 402 13 414V462Q13 473 27 473Q119 473 162 462Q151 502 151 645Q151 659 162 659H211Q223 659 223 645Q223 507 212 462Q254 473 347 473Q361 473 361 462V414Q361 402 347 402Q255 402 211 414Q223 370 223 290T211 166Q260
178 347 178Q361 178 361 166V118Z" />
<glyph unicode="&#x2022;" glyph-name="bullet" horiz-adv-x="284" d="M258 387T258 333T226 247T142 215T58 247T25 333T58 419T142 451T225 419Z" />
<glyph unicode="&#x2026;" glyph-name="ellipsis" horiz-adv-x="514" d="M474 0H377V127H474V0ZM306 0H208V127H306V0ZM136 0H40V127H136V0Z" />
<glyph unicode="&#x2030;" glyph-name="perthousand" horiz-adv-x="813" d="M231 439Q231 392 203 364T130 336T58 364T30 439V577Q30 624 58 652T130 680T202 652T231 577V439ZM516 655L100 -22L58 10L474 687L516 655ZM790 88Q790 40 762 12T689 -16T617 12T589
88V226Q589 273 617 301T689 329T761 301T790 226V88ZM544 88Q544 40 516 12T443 -16T371 12T343 88V226Q343 273 371 301T443 329T515 301T544 226V88ZM164 425V592Q164 606 155 615T130 625Q116 625 107 616T97 592V425Q97 411 106 402T130 392Q145 392 154 401T164
425ZM723 73V241Q723 255 714 264T689 273T665 264T656 241V73Q656 59 665 50T689 40T713 49T723 73ZM478 73V241Q478 255 468 264T443 273Q429 273 420 264T410 241V73Q410 59 419 50T443 40Q458 40 468 49T478 73Z" />
<glyph unicode="&#x2039;" glyph-name="guilsinglleft" horiz-adv-x="237" d="M207 0H158Q146 56 110 100T23 159V228Q73 243 109 287T158 387H207Q207 328 185 275T125 193Q163 166 185 113T207 0Z" />
<glyph unicode="&#x203a;" glyph-name="guilsinglright" horiz-adv-x="237" d="M213 159Q163 144 127 100T79 0H30Q30 59 52 112T112 193Q74 221 52 274T30 387H79Q91 331 127 287T213 228V159Z" />
<glyph unicode="&#x2044;" glyph-name="fraction" horiz-adv-x="100" d="M323 708L-174 -75L-222 -42L276 740L323 708Z" />
<glyph unicode="&#x20ac;" glyph-name="Euro" horiz-adv-x="447" d="M241 -15Q154 -15 105 36T56 168V248H6V303H58V363H6V419H56V498Q56 579 105 630T241 681Q327 681 373 633T420 506V456H311V507Q311 538 294 556T242 574Q209 574 192 556T175 509V419H322V363H175V303H322V248H175V157Q175
127 192 110T242 92Q276 92 293 110T311 159V210H420V160Q420 81 374 33T241 -15Z" />
<glyph unicode="&#x2117;" glyph-name="published" horiz-adv-x="680" d="M658 459T658 326T567 100T340 7T114 100T22 326T113 552T340 646T566 553ZM608 326Q608 442 533 521T340 600T148 521T72 326Q72 211 147 132T340 52T532 131T608 326ZM457 369Q457 294
372 294H311V186H256V470H372Q457 470 457 398V369ZM402 369V398Q402 429 366 429H311V336H366Q402 336 402 369Z" />
<glyph unicode="&#x2120;" glyph-name="servicemark" horiz-adv-x="556" d="M513 402H456V604L437 522L407 402H359L328 522L310 603V402H255V666H342L385 488L426 666H513V402ZM215 476Q215 442 188 419T116 395Q69 395 43 417T16 473V483H74Q73 465 85 455T116
444Q154 444 154 475Q154 490 133 500T87 516T41 541T20 592Q20 624 45 648T114 673Q159 673 184 651T209 594V581H153V584Q153 624 115 624Q98 624 89 615T80 593Q80 576 101 567T147 552T194 528T215 476Z" />
<glyph unicode="&#x2122;" glyph-name="trademark" horiz-adv-x="581" d="M221 612H150V402H90V612H19V666H221V612ZM522 402H465V604L446 522L416 402H368L337 522L319 603V402H264V666H351L394 488L435 666H522V402Z" />
<glyph unicode="&#x2212;" glyph-name="minus" horiz-adv-x="344" d="M313 273H31V358H313V273Z" />
<glyph unicode="&#xe000;" glyph-name="box.1" horiz-adv-x="507" d="M483 0H24V480H483V0Z" />
<glyph unicode="&#xe001;" glyph-name="box.2" horiz-adv-x="520" d="M496 0H24V492H496V0ZM445 49V443H75V49H445Z" />
<glyph unicode="&#xe010;" glyph-name="wedge.1_W" horiz-adv-x="363" d="M308 107L42 236V249L308 377V107Z" />
<glyph unicode="&#xe011;" glyph-name="wedge.1_E" horiz-adv-x="363" d="M323 236L57 107V377L323 249V236Z" />
<glyph unicode="&#xfb00;" glyph-name="f_f" horiz-adv-x="502" d="M495 583H477Q448 583 436 569T424 527V475H492V389H428V0H322V389H269V475H322V512Q322 666 462 666H495V583ZM244 583H226Q197 583 185 569T173 527V475H241V389H177V0H71V389H18V475H71V512Q71
666 211 666H244V583Z" />
<glyph unicode="&#xfb01;" glyph-name="fi" horiz-adv-x="436" d="M394 544H293V645H394V544ZM241 389H177V0H71V389H18V475H71V512Q71 666 211 666H244V583H227Q198 583 186 569T174 527V475H241V389ZM397 0H291V480H397V0Z" />
<glyph unicode="&#xfb02;" glyph-name="fl" horiz-adv-x="436" d="M397 0H291V666H397V0ZM241 389H177V0H71V389H18V475H71V512Q71 666 211 666H244V583H227Q198 583 186 569T174 527V475H241V389Z" />
<glyph unicode="&#xfb03;" glyph-name="f_f_i" horiz-adv-x="687" d="M645 544H543V645H645V544ZM495 583H477Q448 583 436 569T424 527V475H492V389H428V0H322V389H269V475H322V512Q322 666 462 666H495V583ZM244 583H226Q197 583 185 569T173 527V475H241V389H177V0H71V389H18V475H71V512Q71
666 211 666H244V583ZM647 0H542V480H647V0Z" />
<glyph unicode="&#xfb04;" glyph-name="f_f_l" horiz-adv-x="687" d="M647 0H542V666H647V0ZM495 583H477Q448 583 436 569T424 527V475H492V389H428V0H322V389H269V475H322V512Q322 666 462 666H495V583ZM244 583H226Q197 583 185 569T173 527V475H241V389H177V0H71V389H18V475H71V512Q71
666 211 666H244V583Z" />
</font>
</defs>
</svg>
