<?xml version="1.0" standalone="no"?> <!DOCTYPE svg PUBLIC "-//W3C//DTD SVG 1.0//EN" "http://www.w3.org/TR/2001/REC-SVG-20010904/DTD/svg10.dtd" > <svg xmlns="http://www.w3.org/2000/svg" width="100%" height="100%">
<defs >
<font horiz-adv-x="252" ><font-face
    font-family="Knockout 48 Featherweight"
    units-per-em="1000"
    panose-1="2 0 5 6 4 0 0 2 0 4"
    ascent="800"
    descent="-200"
    alphabetic="0" />
<missing-glyph horiz-adv-x="500" d="M0 -200V800H500V-200H0ZM71 750L250 360L429 750H71ZM50 -76L222 300L50 676V-76ZM450 676L278 300L450 -76V676ZM250 240L71 -150H429L250 240Z" />
<glyph unicode=" " glyph-name="space" horiz-adv-x="132" />
<glyph unicode="!" glyph-name="exclam" horiz-adv-x="166" d="M129 377L97 176H68L36 377V666H129V377ZM123 0H42V109H123V0Z" />
<glyph unicode="&quot;" glyph-name="quotedbl" horiz-adv-x="218" d="M222 666L159 469H110L153 666H222ZM115 666L65 469H18L47 666H115Z" />
<glyph unicode="#" glyph-name="numbersign" horiz-adv-x="476" d="M471 428H362L332 237H446V187H324L296 0H240L268 187H165L138 0H82L110 187H7V237H118L147 428H32V479H155L183 666H239L211 479H314L342 666H398L370 479H471V428ZM306 428H203L174 237H276L306 428Z" />
<glyph unicode="$" glyph-name="dollar" horiz-adv-x="356" d="M142 672V745H216V675Q267 664 297 624T327 525V465H236V526Q236 589 185 589Q162 589 148 575T134 533Q134 521 136 510T139 491T147 471T155 454T167 435T180 418T197 397T214 375Q243 342 257
324T291 275T321 214T330 150Q330 86 299 45T216 -8V-80H142V-9Q88 2 58 41T28 141V200H120V141Q120 75 176 75Q203 75 217 91T232 137Q232 178 213 213T148 298Q34 419 34 514Q34 574 62 617T142 672Z" />
<glyph unicode="%" glyph-name="percent" horiz-adv-x="496" d="M202 432Q202 389 177 364T113 338Q75 338 50 363T25 432V584Q25 627 50 652T113 678Q152 678 177 653T202 584V432ZM452 658L82 -20L46 6L416 685L452 658ZM472 80Q472 37 448 12T384 -14Q346 -14
321 11T296 80V233Q296 276 320 301T384 326T447 301T472 233V80ZM143 419V597Q143 610 135 618T113 627Q101 627 93 619T85 597V419Q85 406 93 398T113 389Q126 389 134 397T143 419ZM414 67V246Q414 259 406 267T384 275T363 267T355 246V67Q355 54 363 46T384
38T405 46T414 67Z" />
<glyph unicode="&amp;" glyph-name="ampersand" horiz-adv-x="475" d="M466 96Q466 43 444 16T380 -12Q334 -12 289 35Q240 -12 171 -12Q107 -12 66 35T25 154Q25 274 134 362Q102 443 102 511Q102 588 139 633T239 678Q296 678 326 639T356 536Q356 432 240 338Q276
221 298 179Q338 253 338 341H416Q415 284 396 218T345 104Q365 76 387 76Q413 76 413 110V152H466V96ZM272 531Q272 587 237 587Q194 587 194 517Q194 475 212 413Q272 466 272 531ZM235 99Q199 156 165 271Q123 231 123 165Q123 124 140 102T190 79Q217 79 235
99Z" />
<glyph unicode="&apos;" glyph-name="quotesingle" horiz-adv-x="145" d="M149 666L79 469H28L63 666H149Z" />
<glyph unicode="(" glyph-name="parenleft" horiz-adv-x="268" d="M267 -122L241 -148Q70 6 70 304T241 756L267 730Q211 659 184 560T157 304T184 49T267 -122Z" />
<glyph unicode=")" glyph-name="parenright" horiz-adv-x="268" d="M198 602T198 304T28 -148L2 -122Q57 -50 84 49T112 304T85 558T2 730L28 756Q198 602 198 304Z" />
<glyph unicode="*" glyph-name="asterisk" horiz-adv-x="262" d="M240 503L226 478Q222 471 210 476Q173 499 147 523Q156 480 156 444Q156 432 147 432H117Q108 432 108 444Q108 483 117 523Q83 492 53 476Q43 469 38 477L23 503Q19 510 29 517Q66 537 101 548Q57
562 29 580Q18 586 22 594L37 620Q42 628 53 621Q85 602 116 575Q106 616 106 653Q106 665 116 665H146Q155 665 155 653Q155 614 146 575Q182 606 210 622Q221 628 225 620L240 594Q245 585 234 581Q199 561 162 549Q200 537 234 518Q244 512 240 503Z" />
<glyph unicode="+" glyph-name="plus" horiz-adv-x="302" d="M273 304H187V212H115V304H29V376H115V467H187V376H273V304Z" />
<glyph unicode="," glyph-name="comma" horiz-adv-x="148" d="M115 11Q115 -32 92 -59T26 -86V-60Q71 -60 71 0H32V118H115V11Z" />
<glyph unicode="-" glyph-name="hyphen" horiz-adv-x="216" d="M197 271H19V346H197V271Z" />
<glyph unicode="." glyph-name="period" horiz-adv-x="148" d="M115 0H32V118H115V0Z" />
<glyph unicode="/" glyph-name="slash" horiz-adv-x="233" d="M236 729L55 -64H-4L177 729H236Z" />
<glyph unicode="0" glyph-name="zero" horiz-adv-x="369" d="M334 140Q334 72 293 30T184 -12Q117 -12 76 30T34 140V526Q34 594 75 636T184 678Q252 678 293 636T334 526V140ZM236 131V535Q236 556 222 570T184 584T147 570T133 535V131Q133 110 147 96T184 82T221
96T236 131Z" />
<glyph unicode="1" glyph-name="one" horiz-adv-x="213" d="M156 0H57V620Q102 620 102 666H156V0Z" />
<glyph unicode="2" glyph-name="two" horiz-adv-x="331" d="M311 520Q311 457 285 400T202 273Q127 158 127 94H306V0H19V29Q19 98 42 159T136 329Q183 394 201 436T219 528Q219 587 168 587Q118 587 118 529V452H29V534Q29 594 65 636T166 678Q241 678 276 635T311 520Z" />
<glyph unicode="3" glyph-name="three" horiz-adv-x="335" d="M308 130Q308 67 268 28T162 -12T61 28T25 127V200H114V135Q114 80 162 80Q211 80 211 131V261Q211 297 173 297H127V376H173Q211 376 211 413V534Q211 586 162 586Q114 586 114 531V465H25V538Q25
597 60 637T162 678T268 639T308 536V433Q308 397 291 372T242 339Q308 316 308 246V130Z" />
<glyph unicode="4" glyph-name="four" horiz-adv-x="331" d="M320 138H275V0H183V138H10V213L192 666H275V223H320V138ZM183 223V439L100 223H183Z" />
<glyph unicode="5" glyph-name="five" horiz-adv-x="336" d="M313 666Q310 614 295 594T247 573H132L123 396Q154 438 216 438Q259 438 285 409T312 332V132Q312 66 272 27T164 -12Q100 -12 65 29T29 127V194H117V135Q117 110 130 95T166 80Q215 80 215 133V316Q215
336 204 348T174 361Q153 361 139 348T121 314L34 326L50 666H313Z" />
<glyph unicode="6" glyph-name="six" horiz-adv-x="353" d="M326 139Q326 71 287 30T180 -12T74 30T34 139V525Q34 594 74 636T182 678Q246 678 283 637T320 538V471H233V531Q233 586 181 586Q131 586 131 531V362Q164 404 223 404Q271 404 298 375T326 297V139ZM230
127V282Q230 328 181 328Q158 328 145 315T131 282V130Q131 108 144 94T180 80Q203 80 216 93T230 127Z" />
<glyph unicode="7" glyph-name="seven" horiz-adv-x="320" d="M311 616Q240 438 206 298T168 0H60Q66 139 108 291T211 570H21V666H311V616Z" />
<glyph unicode="8" glyph-name="eight" horiz-adv-x="359" d="M327 130Q327 66 287 27T179 -12Q112 -12 72 27T32 130V239Q32 310 85 336Q33 362 33 433V536Q33 600 72 639T179 678Q247 678 286 639T326 536V433Q326 362 273 336Q327 309 327 239V130ZM231 414V534Q231
558 217 572T179 586Q157 586 143 572T128 534V414Q128 394 141 380T179 366T217 380T231 414ZM231 132V257Q231 278 218 291T179 305Q155 305 142 291T128 257V132Q128 108 142 94T179 80Q202 80 216 94T231 132Z" />
<glyph unicode="9" glyph-name="nine" horiz-adv-x="360" d="M326 139Q326 71 285 30T176 -12Q110 -12 72 28T34 126V188H121V135Q121 80 176 80Q229 80 229 134V296Q196 254 139 254Q90 254 62 285T33 364V527Q33 595 72 636T179 678Q247 678 286 636T326 526V139ZM229
375V537Q229 558 216 572T179 586Q156 586 143 573T129 539V375Q129 355 142 342T179 329Q202 329 215 342T229 375Z" />
<glyph unicode=":" glyph-name="colon" horiz-adv-x="148" d="M115 315H32V433H115V315ZM115 0H32V118H115V0Z" />
<glyph unicode=";" glyph-name="semicolon" horiz-adv-x="148" d="M115 315H32V433H115V315ZM115 11Q115 -32 92 -59T26 -86V-60Q71 -60 71 0H32V118H115V11Z" />
<glyph unicode="&lt;" glyph-name="less" horiz-adv-x="423" d="M352 125L51 322V345L352 541V452L172 334L352 214V125Z" />
<glyph unicode="=" glyph-name="equal" horiz-adv-x="288" d="M266 375H21V450H266V375ZM266 229H21V305H266V229Z" />
<glyph unicode="&gt;" glyph-name="greater" horiz-adv-x="423" d="M372 322L71 126V215L251 333L71 452V541L372 344V322Z" />
<glyph unicode="?" glyph-name="question" horiz-adv-x="309" d="M294 524Q294 419 211 315Q168 260 168 185H99Q99 240 113 281T167 398Q199 459 199 515Q199 553 188 569T151 586Q103 586 103 525V454H16V533Q16 598 50 638T151 678Q224 678 259 636T294 524ZM173
0H92V109H173V0Z" />
<glyph unicode="@" glyph-name="at" horiz-adv-x="530" d="M510 330Q510 250 472 193T367 136Q333 136 315 155T297 208Q284 178 261 161T213 144Q181 144 161 169T140 238Q140 304 179 364T273 424Q321 424 326 376L339 418H403L353 245Q334 177 381 177Q418
177 442 219T466 331Q466 426 412 484T274 543Q184 543 125 468T66 282Q66 170 124 99T274 28Q359 28 414 83L439 53Q374 -12 274 -12Q166 -12 94 69T21 282Q21 412 94 498T274 584Q333 584 379 561T453 500T495 419T510 330ZM314 339Q314 380 285 380Q252 380
228 334T203 242Q203 192 237 192Q275 192 293 259L314 339Z" />
<glyph unicode="A" glyph-name="A" horiz-adv-x="347" d="M343 0H235L218 130H121L101 0H4L115 666H232L343 0ZM206 219L173 491L134 219H206Z" />
<glyph unicode="B" glyph-name="B" horiz-adv-x="367" d="M339 129Q339 64 304 32T211 0H37V666H209Q267 666 302 634T337 537V440Q337 360 271 340Q339 318 339 240V129ZM235 423V532Q235 575 198 575H144V377H194Q235 377 235 423ZM236 134V249Q236 296 195
296H144V91H200Q236 91 236 134Z" />
<glyph unicode="C" glyph-name="C" horiz-adv-x="365" d="M342 141Q342 72 303 30T191 -12T75 33T30 147V519Q30 588 74 633T191 678T302 636T342 525V429H248V527Q248 552 234 567T193 582T152 567T138 528V138Q138 114 152 99T193 84T234 99T248 139V238H342V141Z" />
<glyph unicode="D" glyph-name="D" horiz-adv-x="382" d="M351 155Q351 80 311 40T199 0H37V666H199Q271 666 311 624T351 507V155ZM245 157V508Q245 571 192 571H143V94H192Q245 94 245 157Z" />
<glyph unicode="E" glyph-name="E" horiz-adv-x="323" d="M303 0H37V666H303V572H143V388H254V300H143V97H303V0Z" />
<glyph unicode="F" glyph-name="F" horiz-adv-x="308" d="M296 574H143V382H258V291H143V0H37V666H296V574Z" />
<glyph unicode="G" glyph-name="G" horiz-adv-x="375" d="M348 0H291L275 45Q248 -12 173 -12Q108 -12 69 30T30 141V525Q30 589 74 633T190 678Q261 678 302 635T343 525V436H243V531Q243 553 230 567T190 582Q165 582 151 567T137 530V134Q137 111 151 96T191
81Q217 81 231 96T245 134V253H193V333H348V0Z" />
<glyph unicode="H" glyph-name="H" horiz-adv-x="398" d="M361 0H255V280H143V0H37V666H143V377H255V666H361V0Z" />
<glyph unicode="I" glyph-name="I" horiz-adv-x="181" d="M143 0H37V666H143V0Z" />
<glyph unicode="J" glyph-name="J" horiz-adv-x="350" d="M316 142Q316 72 276 30T166 -12Q97 -12 57 29T16 138V265H117V136Q117 84 164 84Q210 84 210 136V666H316V142Z" />
<glyph unicode="K" glyph-name="K" horiz-adv-x="369" d="M362 0H253L179 277L143 181V0H37V666H143V353L253 666H358L251 383L362 0Z" />
<glyph unicode="L" glyph-name="L" horiz-adv-x="307" d="M296 0H37V666H143V96H296V0Z" />
<glyph unicode="M" glyph-name="M" horiz-adv-x="510" d="M473 0H373V495L352 355L290 0H210L151 355L131 495V0H37V666H180L238 329L256 200L275 329L332 666H473V0Z" />
<glyph unicode="N" glyph-name="N" horiz-adv-x="400" d="M363 0H281L169 302L132 404V0H36V666H130L234 361L268 258V666H363V0Z" />
<glyph unicode="O" glyph-name="O" horiz-adv-x="380" d="M349 146Q349 76 306 32T190 -12T75 32T31 146V520Q31 590 75 634T190 678T305 634T349 520V146ZM242 138V528Q242 552 228 567T190 582T152 567T138 528V138Q138 114 152 99T190 84T228 99T242 138Z" />
<glyph unicode="P" glyph-name="P" horiz-adv-x="357" d="M337 397Q337 330 302 297T207 263H143V0H37V666H207Q267 666 302 632T337 531V397ZM234 392V531Q234 575 198 575H143V348H198Q234 348 234 392Z" />
<glyph unicode="Q" glyph-name="Q" horiz-adv-x="381" d="M382 0Q364 -12 333 -12Q295 -12 273 12Q236 -12 186 -12Q117 -12 74 32T31 144V522Q31 590 75 634T190 678T305 634T349 522V143Q349 106 335 80Q348 67 382 67V0ZM241 162V531Q241 553 228 567T190 582T152
568T138 531V135Q138 113 152 99T190 84Q209 84 220 92L195 115L241 162Z" />
<glyph unicode="R" glyph-name="R" horiz-adv-x="372" d="M360 -3H295Q238 -3 238 89V232Q238 253 227 267T195 281H143V0H37V666H207Q266 666 302 633T338 535V417Q338 346 275 323Q340 300 340 231V95Q340 53 360 27V-3ZM234 411V532Q234 575 198 575H143V364H194Q234
364 234 411Z" />
<glyph unicode="S" glyph-name="S" horiz-adv-x="353" d="M332 152Q332 75 288 32T176 -12Q104 -12 62 29T20 141V200H117V143Q117 77 173 77T229 137Q229 178 209 214T144 297Q25 416 25 515Q25 586 65 632T180 678Q246 678 286 636T327 525V465H231V525Q231
554 218 570T180 587Q156 587 142 573T128 533Q128 488 147 458T219 370Q332 254 332 152Z" />
<glyph unicode="T" glyph-name="T" horiz-adv-x="327" d="M318 569H217V0H111V569H8V666H318V569Z" />
<glyph unicode="U" glyph-name="U" horiz-adv-x="382" d="M347 138Q347 71 304 30T192 -12T80 29T35 138V666H142V136Q142 83 192 83Q244 83 244 136V666H347V138Z" />
<glyph unicode="V" glyph-name="V" horiz-adv-x="354" d="M350 666L228 0H125L5 666H114L179 200L248 666H350Z" />
<glyph unicode="W" glyph-name="W" horiz-adv-x="513" d="M511 666L405 0H311L256 396L195 0H102L5 666H110L158 221L221 666H303L359 221L413 666H511Z" />
<glyph unicode="X" glyph-name="X" horiz-adv-x="359" d="M351 0H242L177 232L107 0H4L118 333L11 666H121L181 429L249 666H351L241 345L351 0Z" />
<glyph unicode="Y" glyph-name="Y" horiz-adv-x="349" d="M352 666L225 268V0H119V268L-1 666H107L178 387L247 666H352Z" />
<glyph unicode="Z" glyph-name="Z" horiz-adv-x="328" d="M314 629L135 96H306V0H11V37L192 571H22V666H314V629Z" />
<glyph unicode="[" glyph-name="bracketleft" horiz-adv-x="246" d="M251 -133H80V741H251V677H151V-69H251V-133Z" />
<glyph unicode="\" glyph-name="backslash" horiz-adv-x="235" d="M238 -64H180L-2 729H57L238 -64Z" />
<glyph unicode="]" glyph-name="bracketright" horiz-adv-x="246" d="M168 -133H-3V-69H98V677H-3V741H168V-133Z" />
<glyph unicode="^" glyph-name="asciicircum" horiz-adv-x="241" d="M232 549Q213 541 193 541Q134 541 119 614Q104 541 44 541Q29 541 10 549V574Q34 574 55 597T88 666H154Q165 621 186 598T232 574V549Z" />
<glyph unicode="_" glyph-name="underscore" horiz-adv-x="298" d="M298 -76H0V0H298V-76Z" />
<glyph unicode="`" glyph-name="grave" horiz-adv-x="156" d="M133 530H82L12 663H97L133 530Z" />
<glyph unicode="a" glyph-name="a" horiz-adv-x="301" d="M284 -8H263Q212 -8 198 44Q170 -8 112 -8Q69 -8 44 23T18 109V132Q18 193 59 230T178 296V370Q178 408 145 408Q113 408 113 368V326H32V364Q32 419 62 453T149 487T235 452T264 357V83Q264 60 284 59V-8ZM178
112V228Q103 202 103 145V107Q103 65 136 65Q154 65 166 78T178 112Z" />
<glyph unicode="b" glyph-name="b" horiz-adv-x="314" d="M285 105Q285 55 261 24T193 -8Q134 -8 111 47L102 0H34V666H123V433Q149 487 202 487Q240 487 262 456T285 377V105ZM198 116V360Q198 408 161 408Q144 408 134 396T123 362V115Q123 94 133 82T160 69Q177
69 187 81T198 116Z" />
<glyph unicode="c" glyph-name="c" horiz-adv-x="291" d="M269 129Q269 65 238 29T152 -8T63 29T29 129V349Q29 411 63 449T152 487T238 450T269 350V304H194V364Q194 385 184 397T155 409T127 397T116 362V116Q116 70 155 70Q173 70 183 82T194 115V174H269V129Z" />
<glyph unicode="d" glyph-name="d" horiz-adv-x="314" d="M280 0H209L203 47Q180 -8 122 -8Q79 -8 54 23T29 105V374Q29 423 53 455T116 487Q163 487 191 445V666H280V0ZM191 115V363Q191 384 181 396T154 409Q116 409 116 361V116Q116 94 126 82T154 69Q170 69
180 81T191 115Z" />
<glyph unicode="e" glyph-name="e" horiz-adv-x="298" d="M272 127Q272 66 240 29T153 -8T64 29T29 128V351Q29 411 64 449T153 487T239 450T272 351V228H116V114Q116 70 154 70T192 114V173H272V127ZM191 279V364Q191 409 154 409Q136 409 126 397T116 364V279H191Z" />
<glyph unicode="f" glyph-name="f" horiz-adv-x="208" d="M200 399H148V0H58V399H14V477H58V523Q58 666 179 666H203V591H189Q145 591 145 541V477H200V399Z" />
<glyph unicode="g" glyph-name="g" horiz-adv-x="306" d="M311 493Q311 466 299 451T268 436Q255 436 241 443Q276 406 276 358V296Q276 240 242 204T153 168Q136 168 128 171Q115 171 107 161T98 138Q98 105 163 105T260 76T293 -6V-44Q293 -103 257 -137T157
-172Q97 -172 59 -142T21 -59V-24Q21 28 71 48Q49 56 37 74T24 115Q24 140 42 161T86 187Q59 198 45 229T31 300V359Q31 414 66 450T153 487Q167 487 182 484T199 481Q243 481 243 529H308Q311 512 311 493ZM192 282V369Q192 388 182 400T153 412T125 400T115 369V282Q115
263 125 251T153 239T181 251T192 282ZM213 -52V-10Q213 32 158 32Q104 32 104 -10V-53Q104 -72 118 -84T158 -96Q185 -96 199 -84T213 -52Z" />
<glyph unicode="h" glyph-name="h" horiz-adv-x="319" d="M287 0H198V367Q198 386 189 397T163 409Q146 409 135 392T123 355V0H34V666H123V426Q148 487 205 487Q243 487 265 459T287 382V0Z" />
<glyph unicode="i" glyph-name="i" horiz-adv-x="158" d="M121 541H36V634H121V541ZM123 0H34V480H123V0Z" />
<glyph unicode="j" glyph-name="j" horiz-adv-x="157" d="M121 541H36V634H121V541ZM123 -29Q123 -97 96 -131T6 -166H-17V-92H-7Q16 -92 25 -82T34 -49V480H123V-29Z" />
<glyph unicode="k" glyph-name="k" horiz-adv-x="305" d="M297 0H209L154 196L124 128V0H34V666H124V254L203 481H289L212 271L297 0Z" />
<glyph unicode="l" glyph-name="l" horiz-adv-x="158" d="M123 0H34V666H123V0Z" />
<glyph unicode="m" glyph-name="m" horiz-adv-x="463" d="M431 0H342V367Q342 406 312 406Q296 406 287 389T278 352V0H188V370Q188 387 180 398T159 409Q142 409 133 392T123 355V0H34V480H113L120 418Q141 487 198 487Q252 487 270 420Q292 487 350 487Q388
487 409 459T431 382V0Z" />
<glyph unicode="n" glyph-name="n" horiz-adv-x="320" d="M287 0H198V367Q198 386 189 397T164 409Q146 409 135 392T123 355V0H34V480H113L118 417Q142 487 202 487Q242 487 264 459T287 382V0Z" />
<glyph unicode="o" glyph-name="o" horiz-adv-x="307" d="M277 129Q277 66 243 29T154 -8Q98 -8 64 29T29 129V349Q29 411 64 449T154 487T243 449T277 349V129ZM191 112V366Q191 385 181 397T154 409Q136 409 127 397T117 366V112Q117 70 154 70Q171 70 181 81T191 112Z" />
<glyph unicode="p" glyph-name="p" horiz-adv-x="314" d="M285 101Q285 55 261 24T200 -7Q153 -7 123 35V-163H34V480H105L111 433Q136 488 193 488Q236 488 260 457T285 375V101ZM197 119V363Q197 411 161 411Q145 411 134 399T123 365V117Q123 97 133 85T161
72Q197 72 197 119Z" />
<glyph unicode="q" glyph-name="q" horiz-adv-x="314" d="M280 -164H191V44Q167 -8 111 -8Q76 -8 53 22T29 99V373Q29 424 54 455T122 487Q180 487 203 431L212 478H280V-164ZM191 116V363Q191 384 181 396T154 409Q137 409 127 397T116 362V118Q116 70 154 70Q171
70 181 82T191 116Z" />
<glyph unicode="r" glyph-name="r" horiz-adv-x="229" d="M217 386Q123 397 123 330V0H34V480H111L117 412Q141 496 217 485V386Z" />
<glyph unicode="s" glyph-name="s" horiz-adv-x="282" d="M264 121Q264 65 233 29T144 -8Q85 -8 53 26T21 122V151H98V115Q98 67 140 67T182 109Q182 137 169 155T118 209Q112 215 108 218Q25 280 25 361Q25 419 58 453T143 487Q199 487 229 453T260 361V331H186V368Q186
409 145 409Q108 409 108 371Q108 346 122 326T171 276Q216 241 240 207T264 121Z" />
<glyph unicode="t" glyph-name="t" horiz-adv-x="204" d="M195 402H143V139Q143 51 162 0H73Q53 51 53 139V402H9V480H58V559L143 584V480H195V402Z" />
<glyph unicode="u" glyph-name="u" horiz-adv-x="321" d="M286 0H209L204 58Q180 -8 119 -8Q78 -8 56 20T33 97V480H122V111Q122 92 132 81T157 69Q174 69 185 86T197 123V480H286V0Z" />
<glyph unicode="v" glyph-name="v" horiz-adv-x="280" d="M272 480L179 0H100L7 480H94L130 242L142 147L154 242L188 480H272Z" />
<glyph unicode="w" glyph-name="w" horiz-adv-x="418" d="M412 480L327 0H252L221 190L209 289L196 190L165 0H90L7 480H94L122 247L133 143L144 247L176 480H249L278 247L290 143L301 247L331 480H412Z" />
<glyph unicode="x" glyph-name="x" horiz-adv-x="286" d="M279 0H188L142 159L95 0H6L93 237L6 480H96L143 319L190 480H279L191 246L279 0Z" />
<glyph unicode="y" glyph-name="y" horiz-adv-x="279" d="M272 480L175 -29Q160 -104 136 -135T50 -166H28V-92H46Q68 -92 76 -83T91 -48L99 7L7 480H94L130 244L142 148L153 244L188 480H272Z" />
<glyph unicode="z" glyph-name="z" horiz-adv-x="258" d="M242 439L112 84H237V0H14V41L146 399H23V480H242V439Z" />
<glyph unicode="{" glyph-name="braceleft" horiz-adv-x="271" d="M235 -133H202Q137 -133 102 -95T67 3Q67 46 85 94T122 179T140 235Q140 258 127 269T82 280H50V329H82Q114 329 127 339T140 373Q140 391 104 470T67 605Q67 664 102 702T202 741H235V684H209Q179
684 164 663T149 605Q149 565 177 495T206 399Q206 362 188 340T126 307Q169 298 187 276T206 215Q206 191 178 117T149 3Q149 -32 164 -53T209 -75H235V-133Z" />
<glyph unicode="|" glyph-name="bar" horiz-adv-x="131" d="M94 -64H37V729H94V-64Z" />
<glyph unicode="}" glyph-name="braceright" horiz-adv-x="271" d="M221 280H189Q158 280 145 269T132 235Q132 217 150 180T186 94T204 3Q204 -56 170 -94T69 -133H37V-75H63Q122 -75 122 3Q122 43 94 117T66 215Q66 253 84 275T145 307Q66 326 66 399Q66 424
94 494T122 605Q122 684 63 684H37V741H69Q135 741 169 703T204 605Q204 549 168 470T132 373Q132 350 145 340T189 329H221V280Z" />
<glyph unicode="~" glyph-name="asciitilde" horiz-adv-x="243" d="M233 350Q233 277 171 277Q149 277 117 299T75 321Q57 321 57 302V278H21Q10 297 10 315Q10 349 26 369T72 389Q94 389 127 367T169 345Q186 345 186 364V388H222Q233 372 233 350Z" />
<glyph unicode="&#xa0;" glyph-name="uni00A0" horiz-adv-x="132" />
<glyph unicode="&#xa1;" glyph-name="exclamdown" horiz-adv-x="166" d="M123 371H42V480H123V371ZM129 -186H36V103L68 304H97L129 103V-186Z" />
<glyph unicode="&#xa2;" glyph-name="cent" horiz-adv-x="307" d="M127 577V666H194V577Q232 566 254 532T276 446V398H200V459Q200 479 190 491T162 503Q145 503 135 491T125 459V208Q125 165 162 165Q200 165 200 208V268H276V221Q276 170 255 136T194 91V0H127V90Q86
101 61 135T36 221V446Q36 497 61 531T127 577Z" />
<glyph unicode="&#xa3;" glyph-name="sterling" horiz-adv-x="414" d="M392 122Q392 -12 281 -12Q210 -12 165 35Q134 -12 80 -12Q43 -12 20 10T-4 67Q-4 104 21 128T91 152Q120 152 148 137Q167 172 167 235Q167 267 155 294H50V369H126Q96 446 96 511Q96 583
134 630T242 678Q307 678 341 635T375 532V468H288V525Q288 581 242 581Q197 581 197 523Q197 454 230 369H339V294H250Q254 268 254 254Q254 173 206 102Q241 76 268 76Q311 76 311 125V199H392V122ZM121 76Q103 94 83 94Q58 94 58 72T84 50T121 76Z" />
<glyph unicode="&#xa5;" glyph-name="yen" horiz-adv-x="371" d="M232 276V216H333V140H232V0H133V140H33V216H133V276H33V352H111L19 666H122L188 401L252 666H352L255 352H333V276H232Z" />
<glyph unicode="&#xa7;" glyph-name="section" horiz-adv-x="369" d="M347 253Q347 159 281 111Q313 76 327 47T341 -22Q341 -84 302 -126T188 -169Q112 -169 68 -130T23 -22V10H117V-29Q117 -54 134 -69T182 -85Q245 -85 245 -28Q245 -2 223 24T169 73T105 121T51
183T29 261Q29 346 96 399Q36 464 36 529T74 636T187 678Q260 678 299 636T338 531V501H244V538Q244 591 190 591T136 539Q136 514 157 489T210 440T273 391T325 329T347 253ZM259 228Q259 260 235 290T153 356Q117 331 117 284Q117 252 139 225T224 159Q259 182
259 228Z" />
<glyph unicode="&#xa8;" glyph-name="dieresis" horiz-adv-x="206" d="M194 536H124V629H194V536ZM82 536H12V629H82V536Z" />
<glyph unicode="&#xa9;" glyph-name="copyright" horiz-adv-x="611" d="M592 439T592 319T510 115T305 31T101 115T19 319T101 523T305 608T509 524ZM547 215T547 319T479 494T305 566Q200 566 132 495T64 319T132 144T305 72Q411 72 479 143ZM402 263Q402 227
377 204T309 181T240 204T212 264V373Q212 410 239 433T309 457Q351 457 376 435T402 375V357H358V374Q358 394 346 406T310 419T275 406T262 373V265Q262 245 274 233T310 220T345 232T358 263V281H402V263Z" />
<glyph unicode="&#xaa;" glyph-name="ordfeminine" horiz-adv-x="270" d="M256 310H232Q189 310 177 351Q153 310 102 310Q66 310 45 334T23 399V413Q23 461 58 487T160 534V588Q160 618 132 618T104 586V557H36V583Q36 625 61 651T135 678Q184 678 208 651T233
576V381Q233 363 256 363V310ZM160 403V484Q95 468 95 422V399Q95 367 124 367Q139 367 149 377T160 403Z" />
<glyph unicode="&#xab;" glyph-name="guillemotleft" horiz-adv-x="368" d="M341 0H300Q289 58 259 100T182 162V225Q228 244 258 286T300 387H341Q341 252 268 193Q341 134 341 0ZM180 0H138Q116 122 20 162V225Q116 265 138 387H180Q180 252 107 193Q180 134 180 0Z" />
<glyph unicode="&#xae;" glyph-name="registered" horiz-adv-x="310" d="M205 486Q179 486 179 508V525Q179 544 161 544H133V488H108V623H164Q204 623 204 586V584Q204 558 185 554Q204 551 204 525V510Q204 505 213 505V486H205ZM292 613T292 556T253 459T156
419Q97 419 58 458T19 556T58 653T156 693Q214 693 253 653ZM42 605T42 556T74 474T156 440T238 473T270 556Q270 606 238 639T156 673T74 639ZM178 582V587Q178 603 162 603H133V564H160Q178 564 178 582Z" />
<glyph unicode="&#xaf;" glyph-name="overscore" horiz-adv-x="213" d="M203 545H10V605H203V545Z" />
<glyph unicode="&#xb0;" glyph-name="degree" horiz-adv-x="238" d="M225 617T225 575T195 502T119 471T43 502T13 575T43 647T119 678T195 648ZM171 575Q171 600 157 616T119 632T81 616T67 575Q67 549 81 533T119 517T157 533T171 575Z" />
<glyph unicode="&#xb1;" glyph-name="plusminus" horiz-adv-x="303" d="M274 110H30V181H274V110ZM274 315H188V224H116V315H30V388H116V479H188V388H274V315Z" />
<glyph unicode="&#xb4;" glyph-name="acute" horiz-adv-x="156" d="M155 663L85 530H34L70 663H155Z" />
<glyph unicode="&#xb6;" glyph-name="paragraph" horiz-adv-x="481" d="M440 -162H378V581H317V-162H255V191H220Q138 191 84 254T30 420V436Q30 539 84 602T220 666H440V-162ZM255 270V581H238Q210 581 194 555T177 488V351Q177 312 193 291T238 270H255Z" />
<glyph unicode="&#xb7;" glyph-name="middot" horiz-adv-x="138" d="M111 273H27V391H111V273Z" />
<glyph unicode="&#xb8;" glyph-name="cedilla" horiz-adv-x="156" d="M162 -132Q162 -163 140 -184T85 -206Q67 -206 54 -198V-171H70Q102 -171 102 -141V-118Q102 -87 70 -87Q52 -87 35 -105L9 -86L84 24L110 4L63 -65Q71 -58 93 -58Q125 -58 143 -78T162 -132Z" />
<glyph unicode="&#xba;" glyph-name="ordmasculine" d="M231 417Q231 368 202 339T126 310T51 339T21 417V571Q21 620 50 649T126 678T201 649T231 571V417ZM158 403V585Q158 599 149 609T126 619T103 609T94 585V403Q94 388 103 379T126 369T149 378T158 403Z" />
<glyph unicode="&#xbb;" glyph-name="guillemotright" horiz-adv-x="368" d="M346 162Q300 143 270 101T228 0H186Q186 134 259 193Q186 252 186 387H228Q239 329 269 287T346 225V162ZM184 162Q138 143 108 101T66 0H25Q25 134 98 193Q25 252 25 387H66Q77 329
107 287T184 225V162Z" />
<glyph unicode="&#xbf;" glyph-name="questiondown" horiz-adv-x="287" d="M117 480H197V371H117V480ZM-4 -44Q-4 62 78 165Q122 219 122 294H190Q190 240 176 199T122 82Q90 21 90 -36Q90 -74 101 -90T138 -106Q186 -106 186 -45V26H273V-53Q273 -118 239 -158T138
-198Q65 -198 31 -156T-4 -44Z" />
<glyph unicode="&#xc0;" glyph-name="Agrave" horiz-adv-x="347" d="M343 0H235L218 130H121L101 0H4L115 666H232L343 0ZM206 219L173 491L134 219H206ZM197 696H146L76 829H161L197 696Z" />
<glyph unicode="&#xc1;" glyph-name="Aacute" horiz-adv-x="347" d="M343 0H235L218 130H121L101 0H4L115 666H232L343 0ZM206 219L173 491L134 219H206ZM268 829L198 696H147L183 829H268Z" />
<glyph unicode="&#xc2;" glyph-name="Acircumflex" horiz-adv-x="347" d="M343 0H235L218 130H121L101 0H4L115 666H232L343 0ZM206 219L173 491L134 219H206ZM287 703Q270 696 248 696Q189 696 174 768Q159 696 99 696Q82 696 65 703V728Q89 728 110 752T143
821H209Q220 776 241 752T287 728V703Z" />
<glyph unicode="&#xc3;" glyph-name="Atilde" horiz-adv-x="347" d="M343 0H235L218 130H121L101 0H4L115 666H232L343 0ZM206 219L173 491L134 219H206ZM283 778Q283 704 221 704Q199 704 167 726T125 749Q107 749 107 729V706H71Q60 723 60 743Q60 816 122 816Q144
816 177 794T219 772Q236 772 236 792V816H272Q283 800 283 778Z" />
<glyph unicode="&#xc4;" glyph-name="Adieresis" horiz-adv-x="347" d="M343 0H235L218 130H121L101 0H4L115 666H232L343 0ZM206 219L173 491L134 219H206ZM263 702H193V795H263V702ZM151 702H81V795H151V702Z" />
<glyph unicode="&#xc5;" glyph-name="Aring" horiz-adv-x="347" d="M130 666Q105 686 105 718Q105 748 124 769T173 791T221 770T241 718Q241 685 217 666H232L343 0H235L218 130H121L101 0H4L115 666H130ZM207 718Q207 760 173 760Q140 760 140 718Q140 677 173
677Q189 677 198 688T207 718ZM206 219L173 491L134 219H206Z" />
<glyph unicode="&#xc6;" glyph-name="AE" horiz-adv-x="516" d="M495 0H229V130H138L105 0H3L179 666H495V572H335V389H446V301H335V97H495V0ZM229 219V510L162 219H229Z" />
<glyph unicode="&#xc7;" glyph-name="Ccedilla" horiz-adv-x="365" d="M158 -9Q99 1 65 43T30 147V519Q30 588 74 633T191 678T302 636T342 525V429H248V527Q248 552 234 567T193 582T152 567T138 528V138Q138 114 152 99T193 84T234 99T248 139V238H342V141Q342
74 304 32T196 -12L161 -64Q169 -57 190 -57Q222 -57 240 -77T259 -131Q259 -162 238 -183T183 -205Q163 -205 152 -197V-170H167Q199 -170 199 -140V-117Q199 -86 167 -86Q150 -86 133 -104L107 -84L158 -9Z" />
<glyph unicode="&#xc8;" glyph-name="Egrave" horiz-adv-x="323" d="M303 0H37V666H303V572H143V388H254V300H143V97H303V0ZM196 696H145L75 829H160L196 696Z" />
<glyph unicode="&#xc9;" glyph-name="Eacute" horiz-adv-x="323" d="M303 0H37V666H303V572H143V388H254V300H143V97H303V0ZM255 829L185 696H134L170 829H255Z" />
<glyph unicode="&#xca;" glyph-name="Ecircumflex" horiz-adv-x="323" d="M303 0H37V666H303V572H143V388H254V300H143V97H303V0ZM279 703Q262 696 240 696Q181 696 166 768Q151 696 91 696Q74 696 57 703V728Q81 728 102 752T135 821H201Q212 776 233 752T279 728V703Z" />
<glyph unicode="&#xcb;" glyph-name="Edieresis" horiz-adv-x="323" d="M303 0H37V666H303V572H143V388H254V300H143V97H303V0ZM260 702H190V795H260V702ZM148 702H78V795H148V702Z" />
<glyph unicode="&#xcc;" glyph-name="Igrave" horiz-adv-x="181" d="M143 0H37V666H143V0ZM116 696H65L-5 829H80L116 696Z" />
<glyph unicode="&#xcd;" glyph-name="Iacute" horiz-adv-x="181" d="M143 0H37V666H143V0ZM183 829L113 696H62L98 829H183Z" />
<glyph unicode="&#xce;" glyph-name="Icircumflex" horiz-adv-x="181" d="M143 0H37V666H143V0ZM204 703Q187 696 165 696Q106 696 91 768Q76 696 16 696Q-1 696 -18 703V728Q6 728 27 752T60 821H126Q137 776 158 752T204 728V703Z" />
<glyph unicode="&#xcf;" glyph-name="Idieresis" horiz-adv-x="181" d="M143 0H37V666H143V0ZM181 702H111V795H181V702ZM69 702H-1V795H69V702Z" />
<glyph unicode="&#xd0;" glyph-name="Eth" horiz-adv-x="402" d="M57 295H-3V370H57V666H219Q291 666 331 624T371 507V155Q371 80 331 40T219 0H57V295ZM163 370H214V295H163V94H212Q265 94 265 157V508Q265 571 212 571H163V370Z" />
<glyph unicode="&#xd1;" glyph-name="Ntilde" horiz-adv-x="400" d="M363 0H281L169 302L132 404V0H36V666H130L234 361L268 258V666H363V0ZM310 778Q310 704 248 704Q226 704 194 726T152 749Q134 749 134 729V706H98Q87 723 87 743Q87 816 149 816Q171 816 204
794T246 772Q263 772 263 792V816H299Q310 800 310 778Z" />
<glyph unicode="&#xd2;" glyph-name="Ograve" horiz-adv-x="380" d="M349 146Q349 76 306 32T190 -12T75 32T31 146V520Q31 590 75 634T190 678T305 634T349 520V146ZM242 138V528Q242 552 228 567T190 582T152 567T138 528V138Q138 114 152 99T190 84T228 99T242
138ZM216 696H165L95 829H180L216 696Z" />
<glyph unicode="&#xd3;" glyph-name="Oacute" horiz-adv-x="380" d="M349 146Q349 76 306 32T190 -12T75 32T31 146V520Q31 590 75 634T190 678T305 634T349 520V146ZM242 138V528Q242 552 228 567T190 582T152 567T138 528V138Q138 114 152 99T190 84T228 99T242
138ZM284 829L214 696H163L199 829H284Z" />
<glyph unicode="&#xd4;" glyph-name="Ocircumflex" horiz-adv-x="380" d="M349 146Q349 76 306 32T190 -12T75 32T31 146V520Q31 590 75 634T190 678T305 634T349 520V146ZM242 138V528Q242 552 228 567T190 582T152 567T138 528V138Q138 114 152 99T190 84T228
99T242 138ZM303 703Q286 696 264 696Q205 696 190 768Q175 696 115 696Q98 696 81 703V728Q105 728 126 752T159 821H225Q236 776 257 752T303 728V703Z" />
<glyph unicode="&#xd5;" glyph-name="Otilde" horiz-adv-x="380" d="M349 146Q349 76 306 32T190 -12T75 32T31 146V520Q31 590 75 634T190 678T305 634T349 520V146ZM242 138V528Q242 552 228 567T190 582T152 567T138 528V138Q138 114 152 99T190 84T228 99T242
138ZM298 778Q298 704 236 704Q214 704 182 726T140 749Q122 749 122 729V706H86Q75 723 75 743Q75 816 137 816Q159 816 192 794T234 772Q251 772 251 792V816H287Q298 800 298 778Z" />
<glyph unicode="&#xd6;" glyph-name="Odieresis" horiz-adv-x="380" d="M349 146Q349 76 306 32T190 -12T75 32T31 146V520Q31 590 75 634T190 678T305 634T349 520V146ZM242 138V528Q242 552 228 567T190 582T152 567T138 528V138Q138 114 152 99T190 84T228
99T242 138ZM282 702H212V795H282V702ZM170 702H100V795H170V702Z" />
<glyph unicode="&#xd7;" glyph-name="multiply" horiz-adv-x="355" d="M309 256L256 203L177 282L98 203L46 255L124 333L46 413L99 465L178 386L257 465L309 413L229 335L309 256Z" />
<glyph unicode="&#xd8;" glyph-name="Oslash" horiz-adv-x="380" d="M363 671Q332 598 331 597Q349 564 349 520V146Q349 76 306 32T190 -12Q128 -12 85 23L62 -30L17 -5L48 68Q31 104 31 146V520Q31 590 75 634T190 678Q252 678 294 644L317 696L363 671ZM242
138V389L138 147V138Q138 114 152 99T190 84T228 99T242 138ZM242 520V528Q242 552 228 567T190 582T152 567T138 528V278Q143 290 192 405T242 520Z" />
<glyph unicode="&#xd9;" glyph-name="Ugrave" horiz-adv-x="382" d="M347 138Q347 71 304 30T192 -12T80 29T35 138V666H142V136Q142 83 192 83Q244 83 244 136V666H347V138ZM221 696H170L100 829H185L221 696Z" />
<glyph unicode="&#xda;" glyph-name="Uacute" horiz-adv-x="382" d="M347 138Q347 71 304 30T192 -12T80 29T35 138V666H142V136Q142 83 192 83Q244 83 244 136V666H347V138ZM288 829L218 696H167L203 829H288Z" />
<glyph unicode="&#xdb;" glyph-name="Ucircumflex" horiz-adv-x="382" d="M347 138Q347 71 304 30T192 -12T80 29T35 138V666H142V136Q142 83 192 83Q244 83 244 136V666H347V138ZM307 703Q290 696 268 696Q209 696 194 768Q179 696 119 696Q102 696 85 703V728Q109
728 130 752T163 821H229Q240 776 261 752T307 728V703Z" />
<glyph unicode="&#xdc;" glyph-name="Udieresis" horiz-adv-x="382" d="M347 138Q347 71 304 30T192 -12T80 29T35 138V666H142V136Q142 83 192 83Q244 83 244 136V666H347V138ZM285 702H215V795H285V702ZM173 702H103V795H173V702Z" />
<glyph unicode="&#xdd;" glyph-name="Yacute" horiz-adv-x="349" d="M352 666L225 268V0H119V268L-1 666H107L178 387L247 666H352ZM273 829L203 696H152L188 829H273Z" />
<glyph unicode="&#xde;" glyph-name="Thorn" horiz-adv-x="357" d="M337 281Q337 214 302 181T208 147H143V0H37V666H144V550H208Q267 550 302 517T337 416V281ZM235 277V415Q235 460 199 460H143V233H199Q235 233 235 277Z" />
<glyph unicode="&#xdf;" glyph-name="germandbls" horiz-adv-x="323" d="M293 106Q293 52 266 23T195 -7Q173 -7 157 2V51Q204 50 204 97V274Q204 320 159 320V388Q207 388 207 437V544Q207 596 166 596Q146 596 135 581T124 542V0H35V531Q35 595 69 633T164 671T257
635T290 537V449Q290 378 241 353Q293 328 293 255V106Z" />
<glyph unicode="&#xe0;" glyph-name="agrave" horiz-adv-x="301" d="M284 -8H263Q212 -8 198 44Q170 -8 112 -8Q69 -8 44 23T18 109V132Q18 193 59 230T178 296V370Q178 408 145 408Q113 408 113 368V326H32V364Q32 419 62 453T149 487T235 452T264 357V83Q264
60 284 59V-8ZM178 112V228Q103 202 103 145V107Q103 65 136 65Q154 65 166 78T178 112ZM176 530H125L55 663H140L176 530Z" />
<glyph unicode="&#xe1;" glyph-name="aacute" horiz-adv-x="301" d="M284 -8H263Q212 -8 198 44Q170 -8 112 -8Q69 -8 44 23T18 109V132Q18 193 59 230T178 296V370Q178 408 145 408Q113 408 113 368V326H32V364Q32 419 62 453T149 487T235 452T264 357V83Q264
60 284 59V-8ZM178 112V228Q103 202 103 145V107Q103 65 136 65Q154 65 166 78T178 112ZM244 663L174 530H123L159 663H244Z" />
<glyph unicode="&#xe2;" glyph-name="acircumflex" horiz-adv-x="301" d="M284 -8H263Q212 -8 198 44Q170 -8 112 -8Q69 -8 44 23T18 109V132Q18 193 59 230T178 296V370Q178 408 145 408Q113 408 113 368V326H32V364Q32 419 62 453T149 487T235 452T264 357V83Q264
60 284 59V-8ZM178 112V228Q103 202 103 145V107Q103 65 136 65Q154 65 166 78T178 112ZM263 537Q246 530 224 530Q165 530 150 602Q135 530 75 530Q58 530 41 537V562Q65 562 86 586T119 655H185Q196 610 217 586T263 562V537Z" />
<glyph unicode="&#xe3;" glyph-name="atilde" horiz-adv-x="301" d="M284 -8H263Q212 -8 198 44Q170 -8 112 -8Q69 -8 44 23T18 109V132Q18 193 59 230T178 296V370Q178 408 145 408Q113 408 113 368V326H32V364Q32 419 62 453T149 487T235 452T264 357V83Q264
60 284 59V-8ZM178 112V228Q103 202 103 145V107Q103 65 136 65Q154 65 166 78T178 112ZM258 612Q258 538 196 538Q174 538 142 560T100 583Q82 583 82 563V540H46Q35 557 35 577Q35 650 97 650Q119 650 152 628T194 606Q211 606 211 626V650H247Q258 634 258 612Z"
/>
<glyph unicode="&#xe4;" glyph-name="adieresis" horiz-adv-x="301" d="M284 -8H263Q212 -8 198 44Q170 -8 112 -8Q69 -8 44 23T18 109V132Q18 193 59 230T178 296V370Q178 408 145 408Q113 408 113 368V326H32V364Q32 419 62 453T149 487T235 452T264 357V83Q264
60 284 59V-8ZM178 112V228Q103 202 103 145V107Q103 65 136 65Q154 65 166 78T178 112ZM239 536H169V629H239V536ZM127 536H57V629H127V536Z" />
<glyph unicode="&#xe5;" glyph-name="aring" horiz-adv-x="301" d="M284 -8H263Q212 -8 198 44Q170 -8 112 -8Q69 -8 44 23T18 109V132Q18 193 59 230T178 296V370Q178 408 145 408Q113 408 113 368V326H32V364Q32 419 62 453T149 487T235 452T264 357V83Q264
60 284 59V-8ZM178 112V228Q103 202 103 145V107Q103 65 136 65Q154 65 166 78T178 112ZM217 602Q217 573 198 552T149 530Q119 530 100 551T80 602Q80 632 99 653T149 675Q178 675 197 654T217 602ZM182 561T182 602T149 643Q115 643 115 602Q115 583 124 572T149
561Q182 561 182 602Z" />
<glyph unicode="&#xe6;" glyph-name="ae" horiz-adv-x="451" d="M425 127Q425 67 394 30T314 -8Q249 -8 220 40Q187 -8 120 -8Q72 -8 46 23T19 109V132Q19 193 60 230T179 296V366Q179 407 145 407T111 367V326H33V364Q33 418 62 452T141 487Q195 487 224 440Q255
487 314 487Q364 487 394 450T425 351V228H269V116Q269 71 308 71Q346 71 346 116V173H425V127ZM344 279V363Q344 408 307 408Q289 408 279 396T269 363V279H344ZM179 114V228Q104 203 104 145V108Q104 67 137 67Q155 67 167 80T179 114Z" />
<glyph unicode="&#xe7;" glyph-name="ccedilla" horiz-adv-x="291" d="M123 -5Q80 4 55 39T29 129V349Q29 411 63 449T152 487T238 450T269 350V304H194V364Q194 385 184 397T155 409T127 397T116 362V116Q116 70 155 70Q173 70 183 82T194 115V174H269V129Q269
68 241 32T160 -7L121 -64Q129 -57 151 -57Q183 -57 201 -77T220 -131Q220 -162 198 -183T143 -205Q125 -205 112 -197V-170H128Q160 -170 160 -140V-117Q160 -86 128 -86Q110 -86 94 -104L68 -84L123 -5Z" />
<glyph unicode="&#xe8;" glyph-name="egrave" horiz-adv-x="298" d="M272 127Q272 66 240 29T153 -8T64 29T29 128V351Q29 411 64 449T153 487T239 450T272 351V228H116V114Q116 70 154 70T192 114V173H272V127ZM191 279V364Q191 409 154 409Q136 409 126 397T116
364V279H191ZM180 530H129L59 663H144L180 530Z" />
<glyph unicode="&#xe9;" glyph-name="eacute" horiz-adv-x="298" d="M272 127Q272 66 240 29T153 -8T64 29T29 128V351Q29 411 64 449T153 487T239 450T272 351V228H116V114Q116 70 154 70T192 114V173H272V127ZM191 279V364Q191 409 154 409Q136 409 126 397T116
364V279H191ZM249 663L179 530H128L164 663H249Z" />
<glyph unicode="&#xea;" glyph-name="ecircumflex" horiz-adv-x="298" d="M272 127Q272 66 240 29T153 -8T64 29T29 128V351Q29 411 64 449T153 487T239 450T272 351V228H116V114Q116 70 154 70T192 114V173H272V127ZM191 279V364Q191 409 154 409Q136 409 126
397T116 364V279H191ZM263 537Q246 530 224 530Q165 530 150 602Q135 530 75 530Q58 530 41 537V562Q65 562 86 586T119 655H185Q196 610 217 586T263 562V537Z" />
<glyph unicode="&#xeb;" glyph-name="edieresis" horiz-adv-x="298" d="M272 127Q272 66 240 29T153 -8T64 29T29 128V351Q29 411 64 449T153 487T239 450T272 351V228H116V114Q116 70 154 70T192 114V173H272V127ZM191 279V364Q191 409 154 409Q136 409 126 397T116
364V279H191ZM242 536H172V629H242V536ZM130 536H60V629H130V536Z" />
<glyph unicode="&#xec;" glyph-name="igrave" horiz-adv-x="158" d="M123 0H34V480H123V0ZM103 530H52L-18 663H67L103 530Z" />
<glyph unicode="&#xed;" glyph-name="iacute" horiz-adv-x="158" d="M123 0H34V480H123V0ZM175 663L105 530H54L90 663H175Z" />
<glyph unicode="&#xee;" glyph-name="icircumflex" horiz-adv-x="158" d="M123 0H34V480H123V0ZM192 537Q175 530 153 530Q94 530 79 602Q64 530 4 530Q-13 530 -30 537V562Q-6 562 15 586T48 655H114Q125 610 146 586T192 562V537Z" />
<glyph unicode="&#xef;" glyph-name="idieresis" horiz-adv-x="158" d="M123 0H34V480H123V0ZM169 536H99V629H169V536ZM57 536H-13V629H57V536Z" />
<glyph unicode="&#xf0;" glyph-name="eth" horiz-adv-x="310" d="M219 624L263 645L281 601L243 583Q280 512 280 408V129Q280 67 244 30T154 -8T65 29T30 129V371Q30 416 55 448T117 480Q161 480 191 438Q189 502 169 547L116 521L99 565L147 589Q122 626 79
663V666H182Q201 648 219 624ZM117 112Q117 94 127 83T154 71T180 82T191 112V361Q191 382 181 394T154 407Q117 407 117 360V112Z" />
<glyph unicode="&#xf1;" glyph-name="ntilde" horiz-adv-x="320" d="M287 0H198V367Q198 386 189 397T164 409Q146 409 135 392T123 355V0H34V480H113L118 417Q142 487 202 487Q242 487 264 459T287 382V0ZM266 612Q266 538 204 538Q182 538 150 560T108 583Q90
583 90 563V540H54Q43 557 43 577Q43 650 105 650Q127 650 160 628T202 606Q219 606 219 626V650H255Q266 634 266 612Z" />
<glyph unicode="&#xf2;" glyph-name="ograve" horiz-adv-x="307" d="M277 129Q277 66 243 29T154 -8Q98 -8 64 29T29 129V349Q29 411 64 449T154 487T243 449T277 349V129ZM191 112V366Q191 385 181 397T154 409Q136 409 127 397T117 366V112Q117 70 154 70Q171
70 181 81T191 112ZM180 530H129L59 663H144L180 530Z" />
<glyph unicode="&#xf3;" glyph-name="oacute" horiz-adv-x="307" d="M277 129Q277 66 243 29T154 -8Q98 -8 64 29T29 129V349Q29 411 64 449T154 487T243 449T277 349V129ZM191 112V366Q191 385 181 397T154 409Q136 409 127 397T117 366V112Q117 70 154 70Q171
70 181 81T191 112ZM251 663L181 530H130L166 663H251Z" />
<glyph unicode="&#xf4;" glyph-name="ocircumflex" horiz-adv-x="307" d="M277 129Q277 66 243 29T154 -8Q98 -8 64 29T29 129V349Q29 411 64 449T154 487T243 449T277 349V129ZM191 112V366Q191 385 181 397T154 409Q136 409 127 397T117 366V112Q117 70 154
70Q171 70 181 81T191 112ZM268 537Q251 530 229 530Q170 530 155 602Q140 530 80 530Q63 530 46 537V562Q70 562 91 586T124 655H190Q201 610 222 586T268 562V537Z" />
<glyph unicode="&#xf5;" glyph-name="otilde" horiz-adv-x="307" d="M277 129Q277 66 243 29T154 -8Q98 -8 64 29T29 129V349Q29 411 64 449T154 487T243 449T277 349V129ZM191 112V366Q191 385 181 397T154 409Q136 409 127 397T117 366V112Q117 70 154 70Q171
70 181 81T191 112ZM263 612Q263 538 201 538Q179 538 147 560T105 583Q87 583 87 563V540H51Q40 557 40 577Q40 650 102 650Q124 650 157 628T199 606Q216 606 216 626V650H252Q263 634 263 612Z" />
<glyph unicode="&#xf6;" glyph-name="odieresis" horiz-adv-x="307" d="M277 129Q277 66 243 29T154 -8Q98 -8 64 29T29 129V349Q29 411 64 449T154 487T243 449T277 349V129ZM191 112V366Q191 385 181 397T154 409Q136 409 127 397T117 366V112Q117 70 154 70Q171
70 181 81T191 112ZM245 536H175V629H245V536ZM133 536H63V629H133V536Z" />
<glyph unicode="&#xf7;" glyph-name="divide" horiz-adv-x="303" d="M274 303H30V376H274V303ZM189 416H115V493H189V416ZM189 185H115V262H189V185Z" />
<glyph unicode="&#xf8;" glyph-name="oslash" horiz-adv-x="307" d="M305 476L267 407Q277 383 277 349V129Q277 66 243 29T154 -8Q98 -8 62 30L34 -22L3 3L39 69Q29 95 29 129V349Q29 411 64 449T154 487Q210 487 245 447L274 500L305 476ZM191 112V266L172 232Q154
199 136 165L117 131V112Q117 70 154 70Q171 70 181 81T191 112ZM191 347V366Q191 385 181 397T154 409Q136 409 127 397T117 366V212Q118 215 136 249T173 315L191 347Z" />
<glyph unicode="&#xf9;" glyph-name="ugrave" horiz-adv-x="321" d="M286 0H209L204 58Q180 -8 119 -8Q78 -8 56 20T33 97V480H122V111Q122 92 132 81T157 69Q174 69 185 86T197 123V480H286V0ZM186 530H135L65 663H150L186 530Z" />
<glyph unicode="&#xfa;" glyph-name="uacute" horiz-adv-x="321" d="M286 0H209L204 58Q180 -8 119 -8Q78 -8 56 20T33 97V480H122V111Q122 92 132 81T157 69Q174 69 185 86T197 123V480H286V0ZM256 663L186 530H135L171 663H256Z" />
<glyph unicode="&#xfb;" glyph-name="ucircumflex" horiz-adv-x="321" d="M286 0H209L204 58Q180 -8 119 -8Q78 -8 56 20T33 97V480H122V111Q122 92 132 81T157 69Q174 69 185 86T197 123V480H286V0ZM273 537Q256 530 234 530Q175 530 160 602Q145 530 85 530Q68
530 51 537V562Q75 562 96 586T129 655H195Q206 610 227 586T273 562V537Z" />
<glyph unicode="&#xfc;" glyph-name="udieresis" horiz-adv-x="321" d="M286 0H209L204 58Q180 -8 119 -8Q78 -8 56 20T33 97V480H122V111Q122 92 132 81T157 69Q174 69 185 86T197 123V480H286V0ZM252 536H182V629H252V536ZM140 536H70V629H140V536Z" />
<glyph unicode="&#xfd;" glyph-name="yacute" horiz-adv-x="279" d="M272 480L175 -29Q160 -104 136 -135T50 -166H28V-92H46Q68 -92 76 -83T91 -48L99 7L7 480H94L130 244L142 148L153 244L188 480H272ZM238 663L168 530H117L153 663H238Z" />
<glyph unicode="&#xfe;" glyph-name="thorn" horiz-adv-x="314" d="M285 101Q285 55 261 24T200 -7Q153 -7 123 35V-163H34V666H123V446Q154 489 200 489Q236 489 260 458T285 380V101ZM198 119V362Q198 384 188 396T161 409T134 397T123 363V117Q123 97 133 85T161
72T188 84T198 119Z" />
<glyph unicode="&#xff;" glyph-name="ydieresis" horiz-adv-x="279" d="M272 480L175 -29Q160 -104 136 -135T50 -166H28V-92H46Q68 -92 76 -83T91 -48L99 7L7 480H94L130 244L142 148L153 244L188 480H272ZM234 536H164V629H234V536ZM122 536H52V629H122V536Z" />
<glyph unicode="&#x100;" glyph-name="Amacron" horiz-adv-x="347" d="M343 0H235L218 130H121L101 0H4L115 666H232L343 0ZM206 219L173 491L134 219H206ZM270 732H77V792H270V732Z" />
<glyph unicode="&#x101;" glyph-name="amacron" horiz-adv-x="301" d="M284 -8H263Q212 -8 198 44Q170 -8 112 -8Q69 -8 44 23T18 109V132Q18 193 59 230T178 296V370Q178 408 145 408Q113 408 113 368V326H32V364Q32 419 62 453T149 487T235 452T264 357V83Q264
60 284 59V-8ZM178 112V228Q103 202 103 145V107Q103 65 136 65Q154 65 166 78T178 112ZM247 545H54V605H247V545Z" />
<glyph unicode="&#x102;" glyph-name="Abreve" horiz-adv-x="347" d="M343 0H235L218 130H121L101 0H4L115 666H232L343 0ZM206 219L173 491L134 219H206ZM269 795Q269 762 242 740T174 718Q134 718 107 740T80 795Q80 818 89 834H130V821Q130 774 174 774Q219
774 219 821V834H261Q269 816 269 795Z" />
<glyph unicode="&#x103;" glyph-name="abreve" horiz-adv-x="301" d="M284 -8H263Q212 -8 198 44Q170 -8 112 -8Q69 -8 44 23T18 109V132Q18 193 59 230T178 296V370Q178 408 145 408Q113 408 113 368V326H32V364Q32 419 62 453T149 487T235 452T264 357V83Q264
60 284 59V-8ZM178 112V228Q103 202 103 145V107Q103 65 136 65Q154 65 166 78T178 112ZM246 608Q246 575 219 553T151 531Q111 531 84 553T57 608Q57 630 66 647H107V634Q107 587 151 587Q196 587 196 634V647H238Q246 629 246 608Z" />
<glyph unicode="&#x104;" glyph-name="Aogonek" horiz-adv-x="347" d="M352 -115V-147Q330 -161 307 -161Q275 -161 255 -142T235 -91Q235 -39 290 0H235L218 130H121L101 0H4L115 666H232L343 0H325Q292 -36 292 -75Q292 -97 305 -110T352 -115ZM206 219L173
491L134 219H206Z" />
<glyph unicode="&#x105;" glyph-name="aogonek" horiz-adv-x="301" d="M242 -5Q210 4 198 44Q170 -8 112 -8Q69 -8 44 23T18 109V132Q18 193 59 230T178 296V370Q178 408 145 408Q113 408 113 368V326H32V364Q32 419 62 453T149 487T235 452T264 357V83Q264 60
284 59V-8Q235 -36 235 -76Q235 -97 249 -110T294 -114V-147Q276 -161 249 -161Q219 -161 200 -142T180 -91Q180 -66 197 -43T242 -5ZM178 112V228Q103 202 103 145V107Q103 65 136 65Q154 65 166 78T178 112Z" />
<glyph unicode="&#x106;" glyph-name="Cacute" horiz-adv-x="365" d="M284 850L214 717H163L199 850H284ZM342 141Q342 72 303 30T191 -12T75 33T30 147V519Q30 588 74 633T191 678T302 636T342 525V429H248V527Q248 552 234 567T193 582T152 567T138 528V138Q138
114 152 99T193 84T234 99T248 139V238H342V141Z" />
<glyph unicode="&#x107;" glyph-name="cacute" horiz-adv-x="291" d="M246 663L176 530H125L161 663H246ZM269 129Q269 65 238 29T152 -8T63 29T29 129V349Q29 411 63 449T152 487T238 450T269 350V304H194V364Q194 385 184 397T155 409T127 397T116 362V116Q116
70 155 70Q173 70 183 82T194 115V174H269V129Z" />
<glyph unicode="&#x10a;" glyph-name="Cdotaccent" horiz-adv-x="365" d="M342 141Q342 72 303 30T191 -12T75 33T30 147V519Q30 588 74 633T191 678T302 636T342 525V429H248V527Q248 552 234 567T193 582T152 567T138 528V138Q138 114 152 99T193 84T234 99T248
139V238H342V141ZM226 723H156V816H226V723Z" />
<glyph unicode="&#x10b;" glyph-name="cdotaccent" horiz-adv-x="291" d="M269 129Q269 65 238 29T152 -8T63 29T29 129V349Q29 411 63 449T152 487T238 450T269 350V304H194V364Q194 385 184 397T155 409T127 397T116 362V116Q116 70 155 70Q173 70 183 82T194
115V174H269V129ZM188 536H118V629H188V536Z" />
<glyph unicode="&#x10c;" glyph-name="Ccaron" horiz-adv-x="365" d="M301 811Q277 811 256 788T223 719H157Q146 764 125 787T79 811V837Q96 844 118 844Q177 844 192 772Q208 844 267 844Q284 844 301 837V811ZM342 141Q342 72 303 30T191 -12T75 33T30 147V519Q30
588 74 633T191 678T302 636T342 525V429H248V527Q248 552 234 567T193 582T152 567T138 528V138Q138 114 152 99T193 84T234 99T248 139V238H342V141Z" />
<glyph unicode="&#x10d;" glyph-name="ccaron" horiz-adv-x="291" d="M262 624Q238 624 217 601T184 532H118Q107 577 86 600T40 624V650Q57 657 79 657Q138 657 153 585Q169 657 228 657Q245 657 262 650V624ZM269 129Q269 65 238 29T152 -8T63 29T29 129V349Q29
411 63 449T152 487T238 450T269 350V304H194V364Q194 385 184 397T155 409T127 397T116 362V116Q116 70 155 70Q173 70 183 82T194 115V174H269V129Z" />
<glyph unicode="&#x10e;" glyph-name="Dcaron" horiz-adv-x="382" d="M296 800Q272 800 251 777T218 708H152Q141 753 120 776T74 800V826Q91 833 113 833Q172 833 187 761Q203 833 262 833Q279 833 296 826V800ZM351 155Q351 80 311 40T199 0H37V666H199Q271
666 311 624T351 507V155ZM245 157V508Q245 571 192 571H143V94H192Q245 94 245 157Z" />
<glyph unicode="&#x10f;" glyph-name="dcaron" horiz-adv-x="314" d="M389 666L357 503H315V666H389ZM280 0H209L203 47Q180 -8 122 -8Q79 -8 54 23T29 105V374Q29 423 53 455T116 487Q163 487 191 445V666H280V0ZM191 115V363Q191 384 181 396T154 409Q116 409
116 361V116Q116 94 126 82T154 69Q170 69 180 81T191 115Z" />
<glyph unicode="&#x110;" glyph-name="Dcroat" horiz-adv-x="402" d="M57 295H-3V370H57V666H219Q291 666 331 624T371 507V155Q371 80 331 40T219 0H57V295ZM163 370H214V295H163V94H212Q265 94 265 157V508Q265 571 212 571H163V370Z" />
<glyph unicode="&#x111;" glyph-name="" horiz-adv-x="314" d="M109 538V588H191V666H280V588H312V538H280V0H209L203 47Q180 -8 122 -8Q79 -8 54 23T29 105V373Q29 422 53 454T116 486Q163 486 191 444V538H109ZM191 115V362Q191 383 181 395T154 408Q116 408
116 360V116Q116 94 126 82T154 69Q170 69 180 81T191 115Z" />
<glyph unicode="&#x112;" glyph-name="Emacron" horiz-adv-x="323" d="M303 0H37V666H303V572H143V388H254V300H143V97H303V0ZM264 721H71V781H264V721Z" />
<glyph unicode="&#x113;" glyph-name="emacron" horiz-adv-x="298" d="M272 127Q272 66 240 29T153 -8T64 29T29 128V351Q29 411 64 449T153 487T239 450T272 351V228H116V114Q116 70 154 70T192 114V173H272V127ZM191 279V364Q191 409 154 409Q136 409 126 397T116
364V279H191ZM249 545H56V605H249V545Z" />
<glyph unicode="&#x114;" glyph-name="Ebreve" horiz-adv-x="323" d="M303 0H37V666H303V572H143V388H254V300H143V97H303V0ZM262 784Q262 751 235 729T167 707Q127 707 100 729T73 784Q73 806 82 823H123V810Q123 763 167 763Q212 763 212 810V823H254Q262 805 262 784Z" />
<glyph unicode="&#x115;" glyph-name="ebreve" horiz-adv-x="298" d="M272 127Q272 66 240 29T153 -8T64 29T29 128V351Q29 411 64 449T153 487T239 450T272 351V228H116V114Q116 70 154 70T192 114V173H272V127ZM191 279V364Q191 409 154 409Q136 409 126 397T116
364V279H191ZM248 608Q248 575 221 553T153 531Q113 531 86 553T59 608Q59 630 68 647H109V634Q109 587 153 587Q198 587 198 634V647H240Q248 629 248 608Z" />
<glyph unicode="&#x116;" glyph-name="Edotaccent" horiz-adv-x="323" d="M303 0H37V666H303V572H143V388H254V300H143V97H303V0ZM203 712H133V805H203V712Z" />
<glyph unicode="&#x117;" glyph-name="edotaccent" horiz-adv-x="298" d="M272 127Q272 66 240 29T153 -8T64 29T29 128V351Q29 411 64 449T153 487T239 450T272 351V228H116V114Q116 70 154 70T192 114V173H272V127ZM191 279V364Q191 409 154 409Q136 409 126
397T116 364V279H191ZM188 536H118V629H188V536Z" />
<glyph unicode="&#x118;" glyph-name="Eogonek" horiz-adv-x="323" d="M303 0H279Q246 -36 246 -75Q246 -97 259 -110T306 -115V-147Q284 -161 261 -161Q229 -161 209 -142T189 -91Q189 -39 244 0H37V666H303V572H143V388H254V300H143V97H303V0Z" />
<glyph unicode="&#x119;" glyph-name="eogonek" horiz-adv-x="298" d="M272 173V128Q272 72 244 34Q241 31 231 18T218 0T207 -16T197 -34T192 -51T189 -71Q189 -95 203 -109T251 -114V-147Q231 -161 205 -161Q173 -161 153 -141T133 -89Q133 -43 178 -6Q170 -8
153 -8Q99 -8 64 29T29 128V351Q29 411 64 449T153 487T239 450T272 351V228H116V114Q116 70 154 70T192 114V173H272ZM191 279V364Q191 409 154 409Q136 409 126 397T116 364V279H191Z" />
<glyph unicode="&#x11a;" glyph-name="Ecaron" horiz-adv-x="323" d="M277 800Q253 800 232 777T199 708H133Q122 753 101 776T55 800V826Q72 833 94 833Q153 833 168 761Q184 833 243 833Q260 833 277 826V800ZM303 0H37V666H303V572H143V388H254V300H143V97H303V0Z" />
<glyph unicode="&#x11b;" glyph-name="ecaron" horiz-adv-x="298" d="M263 624Q239 624 218 601T185 532H119Q108 577 87 600T41 624V650Q58 657 80 657Q139 657 154 585Q170 657 229 657Q246 657 263 650V624ZM272 127Q272 66 240 29T153 -8T64 29T29 128V351Q29
411 64 449T153 487T239 450T272 351V228H116V114Q116 70 154 70T192 114V173H272V127ZM191 279V364Q191 409 154 409Q136 409 126 397T116 364V279H191Z" />
<glyph unicode="&#x11e;" glyph-name="Gbreve" horiz-adv-x="375" d="M348 0H291L275 45Q248 -12 173 -12Q108 -12 69 30T30 141V525Q30 589 74 633T190 678Q261 678 302 635T343 525V436H243V531Q243 553 230 567T190 582Q165 582 151 567T137 530V134Q137 111
151 96T191 81Q217 81 231 96T245 134V253H193V333H348V0ZM284 795Q284 762 257 740T189 718Q149 718 122 740T95 795Q95 818 104 834H145V821Q145 774 189 774Q234 774 234 821V834H276Q284 816 284 795Z" />
<glyph unicode="&#x11f;" glyph-name="gbreve" horiz-adv-x="306" d="M311 493Q311 466 299 451T268 436Q255 436 241 443Q276 406 276 358V296Q276 240 242 204T153 168Q136 168 128 171Q115 171 107 161T98 138Q98 105 163 105T260 76T293 -6V-44Q293 -103 257
-137T157 -172Q97 -172 59 -142T21 -59V-24Q21 28 71 48Q49 56 37 74T24 115Q24 140 42 161T86 187Q59 198 45 229T31 300V359Q31 414 66 450T153 487Q167 487 182 484T199 481Q243 481 243 529H308Q311 512 311 493ZM192 282V369Q192 388 182 400T153 412T125
400T115 369V282Q115 263 125 251T153 239T181 251T192 282ZM213 -52V-10Q213 32 158 32Q104 32 104 -10V-53Q104 -72 118 -84T158 -96Q185 -96 199 -84T213 -52ZM250 608Q250 575 223 553T155 531Q115 531 88 553T61 608Q61 630 70 647H111V634Q111 587 155 587Q200
587 200 634V647H242Q250 629 250 608Z" />
<glyph unicode="&#x120;" glyph-name="Gdotaccent" horiz-adv-x="375" d="M348 0H291L275 45Q248 -12 173 -12Q108 -12 69 30T30 141V525Q30 589 74 633T190 678Q261 678 302 635T343 525V436H243V531Q243 553 230 567T190 582Q165 582 151 567T137 530V134Q137
111 151 96T191 81Q217 81 231 96T245 134V253H193V333H348V0ZM224 723H154V816H224V723Z" />
<glyph unicode="&#x121;" glyph-name="gdotaccent" horiz-adv-x="306" d="M311 493Q311 466 299 451T268 436Q255 436 241 443Q276 406 276 358V296Q276 240 242 204T153 168Q136 168 128 171Q115 171 107 161T98 138Q98 105 163 105T260 76T293 -6V-44Q293 -103
257 -137T157 -172Q97 -172 59 -142T21 -59V-24Q21 28 71 48Q49 56 37 74T24 115Q24 140 42 161T86 187Q59 198 45 229T31 300V359Q31 414 66 450T153 487Q167 487 182 484T199 481Q243 481 243 529H308Q311 512 311 493ZM192 282V369Q192 388 182 400T153 412T125
400T115 369V282Q115 263 125 251T153 239T181 251T192 282ZM213 -52V-10Q213 32 158 32Q104 32 104 -10V-53Q104 -72 118 -84T158 -96Q185 -96 199 -84T213 -52ZM190 536H120V629H190V536Z" />
<glyph unicode="&#x122;" glyph-name="Gcommaaccent" horiz-adv-x="375" d="M223 -130Q223 -167 203 -190T146 -213V-187Q163 -187 174 -174T185 -139H147V-47H223V-130ZM348 0H291L275 45Q248 -12 173 -12Q108 -12 69 30T30 141V525Q30 589 74 633T190 678Q261
678 302 635T343 525V436H243V531Q243 553 230 567T190 582Q165 582 151 567T137 530V134Q137 111 151 96T191 81Q217 81 231 96T245 134V253H193V333H348V0Z" />
<glyph unicode="&#x123;" glyph-name="gcommaaccent" horiz-adv-x="306" d="M115 629Q115 666 135 689T192 712V686Q175 686 164 673T153 638H191V546H115V629ZM311 493Q311 466 299 451T268 436Q255 436 241 443Q276 406 276 358V296Q276 240 242 204T153 168Q136
168 128 171Q115 171 107 161T98 138Q98 105 163 105T260 76T293 -6V-44Q293 -103 257 -137T157 -172Q97 -172 59 -142T21 -59V-24Q21 28 71 48Q49 56 37 74T24 115Q24 140 42 161T86 187Q59 198 45 229T31 300V359Q31 414 66 450T153 487Q167 487 182 484T199
481Q243 481 243 529H308Q311 512 311 493ZM192 282V369Q192 388 182 400T153 412T125 400T115 369V282Q115 263 125 251T153 239T181 251T192 282ZM213 -52V-10Q213 32 158 32Q104 32 104 -10V-53Q104 -72 118 -84T158 -96Q185 -96 199 -84T213 -52Z" />
<glyph unicode="&#x126;" glyph-name="Hbar" horiz-adv-x="398" d="M361 0H255V280H143V0H37V516H-5V575H37V666H143V575H255V666H361V575H408V516H361V0ZM143 377H255V516H143V377Z" />
<glyph unicode="&#x127;" glyph-name="hbar" horiz-adv-x="319" d="M3 539V590H34V666H123V590H208V539H123V425Q148 486 205 486Q243 486 265 458T287 381V0H198V366Q198 385 189 396T163 408Q146 408 135 391T123 354V0H34V539H3Z" />
<glyph unicode="&#x12a;" glyph-name="Imacron" horiz-adv-x="181" d="M143 0H37V666H143V0ZM187 721H-6V781H187V721Z" />
<glyph unicode="&#x12b;" glyph-name="imacron" horiz-adv-x="158" d="M123 0H34V480H123V0ZM176 545H-17V605H176V545Z" />
<glyph unicode="&#x12c;" glyph-name="Ibreve" horiz-adv-x="181" d="M143 0H37V666H143V0ZM186 784Q186 751 159 729T91 707Q51 707 24 729T-3 784Q-3 806 6 823H47V810Q47 763 91 763Q136 763 136 810V823H178Q186 805 186 784Z" />
<glyph unicode="&#x12d;" glyph-name="ibreve" horiz-adv-x="158" d="M123 0H34V480H123V0ZM174 608Q174 575 147 553T79 531Q39 531 12 553T-15 608Q-15 630 -6 647H35V634Q35 587 79 587Q124 587 124 634V647H166Q174 629 174 608Z" />
<glyph unicode="&#x12e;" glyph-name="Iogonek" horiz-adv-x="181" d="M146 -115V-147Q124 -161 101 -161Q69 -161 49 -142T29 -91Q29 -39 84 0H37V666H143V0H119Q86 -36 86 -75Q86 -97 99 -110T146 -115Z" />
<glyph unicode="&#x12f;" glyph-name="iogonek" horiz-adv-x="158" d="M133 -115V-147Q111 -161 88 -161Q56 -161 36 -142T16 -91Q16 -39 71 0H34V480H123V0H106Q73 -36 73 -75Q73 -97 86 -110T133 -115ZM121 541H36V634H121V541Z" />
<glyph unicode="&#x130;" glyph-name="Idot" horiz-adv-x="181" d="M143 0H37V666H143V0ZM126 712H56V805H126V712Z" />
<glyph unicode="&#x131;" glyph-name="dotlessi" horiz-adv-x="158" d="M123 0H34V480H123V0Z" />
<glyph unicode="&#x136;" glyph-name="Kcommaaccent" horiz-adv-x="369" d="M226 -126Q226 -163 206 -186T149 -209V-183Q166 -183 177 -170T188 -135H150V-43H226V-126ZM362 0H253L179 277L143 181V0H37V666H143V353L253 666H358L251 383L362 0Z" />
<glyph unicode="&#x137;" glyph-name="kcommaaccent" horiz-adv-x="305" d="M199 -130Q199 -167 179 -190T122 -213V-187Q139 -187 150 -174T161 -139H123V-47H199V-130ZM297 0H209L154 196L124 128V0H34V666H124V254L203 481H289L212 271L297 0Z" />
<glyph unicode="&#x139;" glyph-name="Lacute" horiz-adv-x="307" d="M183 829L113 696H62L98 829H183ZM296 0H37V666H143V96H296V0Z" />
<glyph unicode="&#x13a;" glyph-name="lacute" horiz-adv-x="158" d="M173 828L103 695H52L88 828H173ZM123 0H34V666H123V0Z" />
<glyph unicode="&#x13b;" glyph-name="Lcommaaccent" horiz-adv-x="307" d="M202 -130Q202 -167 182 -190T125 -213V-187Q142 -187 153 -174T164 -139H126V-47H202V-130ZM296 0H37V666H143V96H296V0Z" />
<glyph unicode="&#x13c;" glyph-name="lcommaaccent" horiz-adv-x="158" d="M117 -130Q117 -167 97 -190T40 -213V-187Q57 -187 68 -174T79 -139H41V-47H117V-130ZM123 0H34V666H123V0Z" />
<glyph unicode="&#x13d;" glyph-name="Lcaron" horiz-adv-x="307" d="M256 666L224 503H182V666H256ZM296 0H37V666H143V96H296V0Z" />
<glyph unicode="&#x13e;" glyph-name="lcaron" horiz-adv-x="158" d="M234 666L202 503H160V666H234ZM123 0H34V666H123V0Z" />
<glyph unicode="&#x13f;" glyph-name="Ldot" horiz-adv-x="307" d="M284 289H203V407H284V289ZM296 0H37V666H143V96H296V0Z" />
<glyph unicode="&#x140;" glyph-name="ldot" horiz-adv-x="234" d="M235 271H156V387H235V271ZM123 0H34V666H123V0Z" />
<glyph unicode="&#x141;" glyph-name="Lslash" horiz-adv-x="334" d="M183 340V96H337V0H77V244L15 192L-7 230L77 308V666H183V404L242 458L264 420L183 340Z" />
<glyph unicode="&#x142;" glyph-name="lslash" horiz-adv-x="212" d="M230 454L151 353V0H61V243L11 181L-18 215L61 316V666H151V427L201 489L230 454Z" />
<glyph unicode="&#x143;" glyph-name="Nacute" horiz-adv-x="400" d="M290 837L220 704H169L205 837H290ZM363 0H281L169 302L132 404V0H36V666H130L234 361L268 258V666H363V0Z" />
<glyph unicode="&#x144;" glyph-name="nacute" horiz-adv-x="320" d="M249 663L179 530H128L164 663H249ZM287 0H198V367Q198 386 189 397T164 409Q146 409 135 392T123 355V0H34V480H113L118 417Q142 487 202 487Q242 487 264 459T287 382V0Z" />
<glyph unicode="&#x145;" glyph-name="Ncommaaccent" horiz-adv-x="400" d="M238 -124Q238 -161 218 -184T161 -207V-181Q178 -181 189 -168T200 -133H162V-41H238V-124ZM363 0H281L169 302L132 404V0H36V666H130L234 361L268 258V666H363V0Z" />
<glyph unicode="&#x146;" glyph-name="ncommaaccent" horiz-adv-x="320" d="M197 -130Q197 -167 177 -190T120 -213V-187Q137 -187 148 -174T159 -139H121V-47H197V-130ZM287 0H198V367Q198 386 189 397T164 409Q146 409 135 392T123 355V0H34V480H113L118 417Q142
487 202 487Q242 487 264 459T287 382V0Z" />
<glyph unicode="&#x147;" glyph-name="Ncaron" horiz-adv-x="400" d="M307 798Q283 798 262 775T229 706H163Q152 751 131 774T85 798V824Q102 831 124 831Q183 831 198 759Q214 831 273 831Q290 831 307 824V798ZM363 0H281L169 302L132 404V0H36V666H130L234
361L268 258V666H363V0Z" />
<glyph unicode="&#x148;" glyph-name="ncaron" horiz-adv-x="320" d="M266 624Q242 624 221 601T188 532H122Q111 577 90 600T44 624V650Q61 657 83 657Q142 657 157 585Q173 657 232 657Q249 657 266 650V624ZM287 0H198V367Q198 386 189 397T164 409Q146 409
135 392T123 355V0H34V480H113L118 417Q142 487 202 487Q242 487 264 459T287 382V0Z" />
<glyph unicode="&#x14c;" glyph-name="Omacron" horiz-adv-x="380" d="M287 732H94V792H287V732ZM349 146Q349 76 306 32T190 -12T75 32T31 146V520Q31 590 75 634T190 678T305 634T349 520V146ZM242 138V528Q242 552 228 567T190 582T152 567T138 528V138Q138
114 152 99T190 84T228 99T242 138Z" />
<glyph unicode="&#x14d;" glyph-name="omacron" horiz-adv-x="307" d="M250 545H57V605H250V545ZM277 129Q277 66 243 29T154 -8Q98 -8 64 29T29 129V349Q29 411 64 449T154 487T243 449T277 349V129ZM191 112V366Q191 385 181 397T154 409Q136 409 127 397T117
366V112Q117 70 154 70Q171 70 181 81T191 112Z" />
<glyph unicode="&#x14e;" glyph-name="Obreve" horiz-adv-x="380" d="M349 146Q349 76 306 32T190 -12T75 32T31 146V520Q31 590 75 634T190 678T305 634T349 520V146ZM242 138V528Q242 552 228 567T190 582T152 567T138 528V138Q138 114 152 99T190 84T228 99T242
138ZM285 795Q285 762 258 740T190 718Q150 718 123 740T96 795Q96 818 105 834H146V821Q146 774 190 774Q235 774 235 821V834H277Q285 816 285 795Z" />
<glyph unicode="&#x14f;" glyph-name="obreve" horiz-adv-x="307" d="M277 129Q277 66 243 29T154 -8Q98 -8 64 29T29 129V349Q29 411 64 449T154 487T243 449T277 349V129ZM191 112V366Q191 385 181 397T154 409Q136 409 127 397T117 366V112Q117 70 154 70Q171
70 181 81T191 112ZM248 608Q248 575 221 553T153 531Q113 531 86 553T59 608Q59 630 68 647H109V634Q109 587 153 587Q198 587 198 634V647H240Q248 629 248 608Z" />
<glyph unicode="&#x150;" glyph-name="Ohungarumlaut" horiz-adv-x="380" d="M321 850L258 717H208L251 850H321ZM213 850L163 717H116L146 850H213ZM349 146Q349 76 306 32T190 -12T75 32T31 146V520Q31 590 75 634T190 678T305 634T349 520V146ZM242 138V528Q242
552 228 567T190 582T152 567T138 528V138Q138 114 152 99T190 84T228 99T242 138Z" />
<glyph unicode="&#x151;" glyph-name="ohungarumlaut" horiz-adv-x="307" d="M284 663L221 530H171L214 663H284ZM176 663L126 530H79L109 663H176ZM277 129Q277 66 243 29T154 -8Q98 -8 64 29T29 129V349Q29 411 64 449T154 487T243 449T277 349V129ZM191 112V366Q191
385 181 397T154 409Q136 409 127 397T117 366V112Q117 70 154 70Q171 70 181 81T191 112Z" />
<glyph unicode="&#x152;" glyph-name="OE" horiz-adv-x="526" d="M506 0H187Q114 0 73 41T32 159V503Q32 580 73 623T187 666H506V572H346V389H457V301H346V97H506V0ZM240 94V572H194Q138 572 138 505V160Q138 94 194 94H240Z" />
<glyph unicode="&#x153;" glyph-name="oe" horiz-adv-x="465" d="M439 127Q439 66 409 29T328 -8Q267 -8 237 39Q207 -8 145 -8Q94 -8 62 29T29 129V349Q29 411 62 449T145 487Q208 487 237 439Q266 487 328 487Q378 487 408 450T439 351V228H283V116Q283 71 321
71T359 116V173H439V127ZM358 279V363Q358 383 349 395T321 408T293 396T283 363V279H358ZM190 114V364Q190 384 180 396T153 408Q137 408 127 396T116 364V114Q116 95 126 84T153 72T180 83T190 114Z" />
<glyph unicode="&#x154;" glyph-name="Racute" horiz-adv-x="372" d="M273 839L203 706H152L188 839H273ZM360 -3H295Q238 -3 238 89V232Q238 253 227 267T195 281H143V0H37V666H207Q266 666 302 633T338 535V417Q338 346 275 323Q340 300 340 231V95Q340 53 360
27V-3ZM234 411V532Q234 575 198 575H143V364H194Q234 364 234 411Z" />
<glyph unicode="&#x155;" glyph-name="racute" horiz-adv-x="229" d="M220 663L150 530H99L135 663H220ZM217 386Q123 397 123 330V0H34V480H111L117 412Q141 496 217 485V386Z" />
<glyph unicode="&#x156;" glyph-name="Rcommaaccent" horiz-adv-x="372" d="M228 -130Q228 -167 208 -190T151 -213V-187Q168 -187 179 -174T190 -139H152V-47H228V-130ZM360 -3H295Q238 -3 238 89V232Q238 253 227 267T195 281H143V0H37V666H207Q266 666 302
633T338 535V417Q338 346 275 323Q340 300 340 231V95Q340 53 360 27V-3ZM234 411V532Q234 575 198 575H143V364H194Q234 364 234 411Z" />
<glyph unicode="&#x157;" glyph-name="rcommaaccent" horiz-adv-x="229" d="M118 -130Q118 -167 98 -190T41 -213V-187Q58 -187 69 -174T80 -139H42V-47H118V-130ZM217 386Q123 397 123 330V0H34V480H111L117 412Q141 496 217 485V386Z" />
<glyph unicode="&#x158;" glyph-name="Rcaron" horiz-adv-x="372" d="M289 800Q265 800 244 777T211 708H145Q134 753 113 776T67 800V826Q84 833 106 833Q165 833 180 761Q196 833 255 833Q272 833 289 826V800ZM360 -3H295Q238 -3 238 89V232Q238 253 227 267T195
281H143V0H37V666H207Q266 666 302 633T338 535V417Q338 346 275 323Q340 300 340 231V95Q340 53 360 27V-3ZM234 411V532Q234 575 198 575H143V364H194Q234 364 234 411Z" />
<glyph unicode="&#x159;" glyph-name="rcaron" horiz-adv-x="229" d="M237 624Q213 624 192 601T159 532H93Q82 577 61 600T15 624V650Q32 657 54 657Q113 657 128 585Q144 657 203 657Q220 657 237 650V624ZM217 386Q123 397 123 330V0H34V480H111L117 412Q141
496 217 485V386Z" />
<glyph unicode="&#x15a;" glyph-name="Sacute" horiz-adv-x="353" d="M273 850L203 717H152L188 850H273ZM332 152Q332 75 288 32T176 -12Q104 -12 62 29T20 141V200H117V143Q117 77 173 77T229 137Q229 178 209 214T144 297Q25 416 25 515Q25 586 65 632T180
678Q246 678 286 636T327 525V465H231V525Q231 554 218 570T180 587Q156 587 142 573T128 533Q128 488 147 458T219 370Q332 254 332 152Z" />
<glyph unicode="&#x15b;" glyph-name="sacute" horiz-adv-x="282" d="M240 663L170 530H119L155 663H240ZM264 121Q264 65 233 29T144 -8Q85 -8 53 26T21 122V151H98V115Q98 67 140 67T182 109Q182 137 169 155T118 209Q112 215 108 218Q25 280 25 361Q25 419
58 453T143 487Q199 487 229 453T260 361V331H186V368Q186 409 145 409Q108 409 108 371Q108 346 122 326T171 276Q216 241 240 207T264 121Z" />
<glyph unicode="&#x15e;" glyph-name="Scedilla" horiz-adv-x="353" d="M241 -132Q241 -163 219 -184T164 -206Q146 -206 133 -198V-171H149Q181 -171 181 -141V-118Q181 -87 149 -87Q130 -87 114 -105L88 -86L140 -9Q84 1 52 40T20 141V200H117V143Q117 77 173
77T229 137Q229 178 209 214T144 297Q25 416 25 515Q25 586 65 632T180 678Q246 678 286 636T327 525V465H231V525Q231 554 218 570T180 587Q156 587 142 573T128 533Q128 488 147 458T219 370Q332 254 332 152Q332 76 289 33T178 -12L142 -65Q150 -58 172 -58Q204
-58 222 -78T241 -132Z" />
<glyph unicode="&#x15f;" glyph-name="scedilla" horiz-adv-x="282" d="M210 -132Q210 -163 188 -184T133 -206Q115 -206 102 -198V-171H118Q150 -171 150 -141V-118Q150 -87 118 -87Q100 -87 83 -105L57 -86L112 -5Q21 14 21 122V151H98V115Q98 67 140 67T182
109Q182 137 169 155T118 209Q112 215 108 218Q25 280 25 361Q25 419 58 453T143 487Q199 487 229 453T260 361V331H186V368Q186 409 145 409Q108 409 108 371Q108 346 122 326T171 276Q216 241 240 207T264 121Q264 67 234 31T150 -8L111 -65Q119 -58 141 -58Q173
-58 191 -78T210 -132Z" />
<glyph unicode="&#x160;" glyph-name="Scaron" horiz-adv-x="353" d="M332 152Q332 75 288 32T176 -12Q104 -12 62 29T20 141V200H117V143Q117 77 173 77T229 137Q229 178 209 214T144 297Q25 416 25 515Q25 586 65 632T180 678Q246 678 286 636T327 525V465H231V525Q231
554 218 570T180 587Q156 587 142 573T128 533Q128 488 147 458T219 370Q332 254 332 152ZM289 790Q265 790 244 767T211 698H145Q134 743 113 766T67 790V816Q84 823 106 823Q165 823 180 751Q196 823 255 823Q272 823 289 816V790Z" />
<glyph unicode="&#x161;" glyph-name="scaron" horiz-adv-x="282" d="M264 121Q264 65 233 29T144 -8Q85 -8 53 26T21 122V151H98V115Q98 67 140 67T182 109Q182 137 169 155T118 209Q112 215 108 218Q25 280 25 361Q25 419 58 453T143 487Q199 487 229 453T260
361V331H186V368Q186 409 145 409Q108 409 108 371Q108 346 122 326T171 276Q216 241 240 207T264 121ZM253 624Q229 624 208 601T175 532H109Q98 577 77 600T31 624V650Q48 657 70 657Q129 657 144 585Q160 657 219 657Q236 657 253 650V624Z" />
<glyph unicode="&#x162;" glyph-name="Tcommaaccent" horiz-adv-x="327" d="M203 -130Q203 -167 183 -190T126 -213V-187Q143 -187 154 -174T165 -139H127V-47H203V-130ZM318 569H217V0H111V569H8V666H318V569Z" />
<glyph unicode="&#x163;" glyph-name="tcommaaccent" horiz-adv-x="204" d="M195 402H143V139Q143 51 162 0H73Q53 51 53 139V402H9V480H58V559L143 584V480H195V402ZM155 -130Q155 -167 135 -190T78 -213V-187Q95 -187 106 -174T117 -139H79V-47H155V-130Z" />
<glyph unicode="&#x164;" glyph-name="Tcaron" horiz-adv-x="327" d="M275 800Q251 800 230 777T197 708H131Q120 753 99 776T53 800V826Q70 833 92 833Q151 833 166 761Q182 833 241 833Q258 833 275 826V800ZM318 569H217V0H111V569H8V666H318V569Z" />
<glyph unicode="&#x165;" glyph-name="tcaron" horiz-adv-x="204" d="M195 402H143V139Q143 51 162 0H73Q53 51 53 139V402H9V480H58V559L143 584V480H195V402ZM248 678L216 515H174V678H248Z" />
<glyph unicode="&#x16a;" glyph-name="Umacron" horiz-adv-x="382" d="M347 138Q347 71 304 30T192 -12T80 29T35 138V666H142V136Q142 83 192 83Q244 83 244 136V666H347V138ZM288 719H95V779H288V719Z" />
<glyph unicode="&#x16b;" glyph-name="umacron" horiz-adv-x="321" d="M286 0H209L204 58Q180 -8 119 -8Q78 -8 56 20T33 97V480H122V111Q122 92 132 81T157 69Q174 69 185 86T197 123V480H286V0ZM256 545H63V605H256V545Z" />
<glyph unicode="&#x16c;" glyph-name="Ubreve" horiz-adv-x="382" d="M347 138Q347 71 304 30T192 -12T80 29T35 138V666H142V136Q142 83 192 83Q244 83 244 136V666H347V138ZM286 782Q286 749 259 727T191 705Q151 705 124 727T97 782Q97 804 106 821H147V808Q147
761 191 761Q236 761 236 808V821H278Q286 803 286 782Z" />
<glyph unicode="&#x16d;" glyph-name="ubreve" horiz-adv-x="321" d="M286 0H209L204 58Q180 -8 119 -8Q78 -8 56 20T33 97V480H122V111Q122 92 132 81T157 69Q174 69 185 86T197 123V480H286V0ZM255 608Q255 575 228 553T160 531Q120 531 93 553T66 608Q66 630
75 647H116V634Q116 587 160 587Q205 587 205 634V647H247Q255 629 255 608Z" />
<glyph unicode="&#x16e;" glyph-name="Uring" horiz-adv-x="382" d="M260 776Q260 747 241 726T192 704Q162 704 143 725T123 776Q123 806 142 827T192 849Q221 849 240 828T260 776ZM225 735T225 776T192 817Q158 817 158 776Q158 757 167 746T192 735Q225 735
225 776ZM347 138Q347 71 304 30T192 -12T80 29T35 138V666H142V136Q142 83 192 83Q244 83 244 136V666H347V138Z" />
<glyph unicode="&#x16f;" glyph-name="uring" horiz-adv-x="321" d="M229 602Q229 573 210 552T161 530Q131 530 112 551T92 602Q92 632 111 653T161 675Q190 675 209 654T229 602ZM194 561T194 602T161 643Q127 643 127 602Q127 583 136 572T161 561Q194 561
194 602ZM286 0H209L204 58Q180 -8 119 -8Q78 -8 56 20T33 97V480H122V111Q122 92 132 81T157 69Q174 69 185 86T197 123V480H286V0Z" />
<glyph unicode="&#x170;" glyph-name="Uhungarumlaut" horiz-adv-x="382" d="M347 138Q347 71 304 30T192 -12T80 29T35 138V666H142V136Q142 83 192 83Q244 83 244 136V666H347V138ZM322 837L259 704H209L252 837H322ZM214 837L164 704H117L147 837H214Z" />
<glyph unicode="&#x171;" glyph-name="uhungarumlaut" horiz-adv-x="321" d="M286 0H209L204 58Q180 -8 119 -8Q78 -8 56 20T33 97V480H122V111Q122 92 132 81T157 69Q174 69 185 86T197 123V480H286V0ZM290 663L227 530H177L220 663H290ZM182 663L132 530H85L115
663H182Z" />
<glyph unicode="&#x172;" glyph-name="Uogonek" horiz-adv-x="382" d="M347 138Q347 77 311 37T215 -10Q191 -42 191 -75Q191 -97 204 -110T251 -115V-147Q229 -161 206 -161Q174 -161 154 -142T134 -91Q134 -47 175 -11Q113 -6 74 34T35 138V666H142V136Q142
83 192 83Q244 83 244 136V666H347V138Z" />
<glyph unicode="&#x173;" glyph-name="uogonek" horiz-adv-x="321" d="M286 480V0Q236 -34 236 -76Q236 -97 250 -110T294 -114V-147Q276 -161 250 -161Q220 -161 201 -142T181 -91Q181 -64 199 -40T248 0H209L204 58Q180 -8 119 -8Q78 -8 56 20T33 97V480H122V111Q122
92 132 81T157 69Q174 69 185 86T197 123V480H286Z" />
<glyph unicode="&#x174;" glyph-name="Wcircumflex" horiz-adv-x="513" d="M372 713Q355 706 333 706Q274 706 259 778Q244 706 184 706Q167 706 150 713V738Q174 738 195 762T228 831H294Q305 786 326 762T372 738V713ZM511 666L405 0H311L256 396L195 0H102L5
666H110L158 221L221 666H303L359 221L413 666H511Z" />
<glyph unicode="&#x175;" glyph-name="wcircumflex" horiz-adv-x="418" d="M323 537Q306 530 284 530Q225 530 210 602Q195 530 135 530Q118 530 101 537V562Q125 562 146 586T179 655H245Q256 610 277 586T323 562V537ZM412 480L327 0H252L221 190L209 289L196
190L165 0H90L7 480H94L122 247L133 143L144 247L176 480H249L278 247L290 143L301 247L331 480H412Z" />
<glyph unicode="&#x176;" glyph-name="Ycircumflex" horiz-adv-x="349" d="M352 666L225 268V0H119V268L-1 666H107L178 387L247 666H352ZM287 711Q270 704 248 704Q189 704 174 776Q159 704 99 704Q82 704 65 711V736Q89 736 110 760T143 829H209Q220 784 241
760T287 736V711Z" />
<glyph unicode="&#x177;" glyph-name="ycircumflex" horiz-adv-x="279" d="M272 480L175 -29Q160 -104 136 -135T50 -166H28V-92H46Q68 -92 76 -83T91 -48L99 7L7 480H94L130 244L142 148L153 244L188 480H272ZM252 537Q235 530 213 530Q154 530 139 602Q124 530
64 530Q47 530 30 537V562Q54 562 75 586T108 655H174Q185 610 206 586T252 562V537Z" />
<glyph unicode="&#x178;" glyph-name="Ydieresis" horiz-adv-x="349" d="M352 666L225 268V0H119V268L-1 666H107L178 387L247 666H352ZM268 702H198V795H268V702ZM156 702H86V795H156V702Z" />
<glyph unicode="&#x179;" glyph-name="Zacute" horiz-adv-x="328" d="M259 839L189 706H138L174 839H259ZM314 629L135 96H306V0H11V37L192 571H22V666H314V629Z" />
<glyph unicode="&#x17a;" glyph-name="zacute" horiz-adv-x="258" d="M224 663L154 530H103L139 663H224ZM242 439L112 84H237V0H14V41L146 399H23V480H242V439Z" />
<glyph unicode="&#x17b;" glyph-name="Zdotaccent" horiz-adv-x="328" d="M314 629L135 96H306V0H11V37L192 571H22V666H314V629ZM201 712H131V805H201V712Z" />
<glyph unicode="&#x17c;" glyph-name="zdotaccent" horiz-adv-x="258" d="M242 439L112 84H237V0H14V41L146 399H23V480H242V439ZM166 536H96V629H166V536Z" />
<glyph unicode="&#x17d;" glyph-name="Zcaron" horiz-adv-x="328" d="M314 629L135 96H306V0H11V37L192 571H22V666H314V629ZM278 790Q254 790 233 767T200 698H134Q123 743 102 766T56 790V816Q73 823 95 823Q154 823 169 751Q185 823 244 823Q261 823 278 816V790Z" />
<glyph unicode="&#x17e;" glyph-name="zcaron" horiz-adv-x="258" d="M242 439L112 84H237V0H14V41L146 399H23V480H242V439ZM244 624Q220 624 199 601T166 532H100Q89 577 68 600T22 624V650Q39 657 61 657Q120 657 135 585Q151 657 210 657Q227 657 244 650V624Z" />
<glyph unicode="&#x192;" glyph-name="florin" horiz-adv-x="264" d="M181 387H243V313H181V126Q181 -17 58 -17H35V56H46Q69 56 77 66T86 101V313H25V387H86V523Q86 666 209 666H232V593H221Q198 593 190 583T181 548V387Z" />
<glyph unicode="&#x1fa;" glyph-name="Aringacute" horiz-adv-x="347" d="M267 942L197 809H146L182 942H267ZM130 666Q105 686 105 718Q105 748 124 769T173 791T221 770T241 718Q241 685 217 666H232L343 0H235L218 130H121L101 0H4L115 666H130ZM207 718Q207
760 173 760Q140 760 140 718Q140 677 173 677Q189 677 198 688T207 718ZM206 219L173 491L134 219H206Z" />
<glyph unicode="&#x1fb;" glyph-name="aringacute" horiz-adv-x="301" d="M284 -8H263Q212 -8 198 44Q170 -8 112 -8Q69 -8 44 23T18 109V132Q18 193 59 230T178 296V370Q178 408 145 408Q113 408 113 368V326H32V364Q32 419 62 453T149 487T235 452T264 357V83Q264
60 284 59V-8ZM178 112V228Q103 202 103 145V107Q103 65 136 65Q154 65 166 78T178 112ZM248 808L178 675H127L163 808H248ZM221 580Q221 551 202 530T153 508Q123 508 104 529T84 580Q84 610 103 631T153 653Q182 653 201 632T221 580ZM186 539T186 580T153 621Q119
621 119 580Q119 561 128 550T153 539Q186 539 186 580Z" />
<glyph unicode="&#x1fc;" glyph-name="AEacute" horiz-adv-x="516" d="M382 839L312 706H261L297 839H382ZM495 0H229V130H138L105 0H3L179 666H495V572H335V389H446V301H335V97H495V0ZM229 219V510L162 219H229Z" />
<glyph unicode="&#x1fd;" glyph-name="aeacute" horiz-adv-x="451" d="M321 663L251 530H200L236 663H321ZM425 127Q425 67 394 30T314 -8Q249 -8 220 40Q187 -8 120 -8Q72 -8 46 23T19 109V132Q19 193 60 230T179 296V366Q179 407 145 407T111 367V326H33V364Q33
418 62 452T141 487Q195 487 224 440Q255 487 314 487Q364 487 394 450T425 351V228H269V116Q269 71 308 71Q346 71 346 116V173H425V127ZM344 279V363Q344 408 307 408Q289 408 279 396T269 363V279H344ZM179 114V228Q104 203 104 145V108Q104 67 137 67Q155 67
167 80T179 114Z" />
<glyph unicode="&#x1fe;" glyph-name="Oslashacute" horiz-adv-x="380" d="M363 671Q332 598 331 597Q349 564 349 520V146Q349 76 306 32T190 -12Q128 -12 85 23L62 -30L17 -5L48 68Q31 104 31 146V520Q31 590 75 634T190 678Q252 678 294 644L317 696L363 671ZM242
138V389L138 147V138Q138 114 152 99T190 84T228 99T242 138ZM242 520V528Q242 552 228 567T190 582T152 567T138 528V278Q143 290 192 405T242 520ZM282 850L212 717H161L197 850H282Z" />
<glyph unicode="&#x1ff;" glyph-name="oslashacute" horiz-adv-x="307" d="M305 476L267 407Q277 383 277 349V129Q277 66 243 29T154 -8Q98 -8 62 30L34 -22L3 3L39 69Q29 95 29 129V349Q29 411 64 449T154 487Q210 487 245 447L274 500L305 476ZM248 663L178
530H127L163 663H248ZM191 112V266L172 232Q154 199 136 165L117 131V112Q117 70 154 70Q171 70 181 81T191 112ZM191 347V366Q191 385 181 397T154 409Q136 409 127 397T117 366V212Q118 215 136 249T173 315L191 347Z" />
<glyph unicode="&#x218;" glyph-name="Scommaaccent" horiz-adv-x="353" d="M217 -131Q217 -168 197 -191T140 -214V-188Q157 -188 168 -175T179 -140H141V-48H217V-131ZM332 152Q332 75 288 32T176 -12Q104 -12 62 29T20 141V200H117V143Q117 77 173 77T229 137Q229
178 209 214T144 297Q25 416 25 515Q25 586 65 632T180 678Q246 678 286 636T327 525V465H231V525Q231 554 218 570T180 587Q156 587 142 573T128 533Q128 488 147 458T219 370Q332 254 332 152Z" />
<glyph unicode="&#x219;" glyph-name="scommaaccent" horiz-adv-x="282" d="M181 -130Q181 -167 161 -190T104 -213V-187Q121 -187 132 -174T143 -139H105V-47H181V-130ZM264 121Q264 65 233 29T144 -8Q85 -8 53 26T21 122V151H98V115Q98 67 140 67T182 109Q182
137 169 155T118 209Q112 215 108 218Q25 280 25 361Q25 419 58 453T143 487Q199 487 229 453T260 361V331H186V368Q186 409 145 409Q108 409 108 371Q108 346 122 326T171 276Q216 241 240 207T264 121Z" />
<glyph unicode="&#x259;" glyph-name="schwa" horiz-adv-x="299" d="M26 351Q26 412 58 449T145 486T234 449T269 350V127Q269 67 234 29T145 -9T59 28T26 127V250H182V364Q182 408 144 408T106 364V305H26V351ZM107 199V114Q107 69 144 69Q162 69 172 81T182
114V199H107Z" />
<glyph unicode="&#x2c6;" glyph-name="circumflex" horiz-adv-x="241" d="M232 537Q215 530 193 530Q134 530 119 602Q104 530 44 530Q27 530 10 537V562Q34 562 55 586T88 655H154Q165 610 186 586T232 562V537Z" />
<glyph unicode="&#x2c7;" glyph-name="caron" horiz-adv-x="242" d="M232 624Q208 624 187 601T154 532H88Q77 577 56 600T10 624V650Q27 657 49 657Q108 657 123 585Q139 657 198 657Q215 657 232 650V624Z" />
<glyph unicode="&#x2d8;" glyph-name="breve" horiz-adv-x="209" d="M199 608Q199 575 172 553T104 531Q64 531 37 553T10 608Q10 630 19 647H60V634Q60 587 104 587Q149 587 149 634V647H191Q199 629 199 608Z" />
<glyph unicode="&#x2d9;" glyph-name="dotaccent" horiz-adv-x="203" d="M137 536H67V629H137V536Z" />
<glyph unicode="&#x2da;" glyph-name="ring" horiz-adv-x="155" d="M147 602Q147 573 128 552T79 530Q49 530 30 551T10 602Q10 632 29 653T79 675Q108 675 127 654T147 602ZM112 561T112 602T79 643Q45 643 45 602Q45 583 54 572T79 561Q112 561 112 602Z" />
<glyph unicode="&#x2db;" glyph-name="ogonek" horiz-adv-x="155" d="M133 -115V-147Q111 -161 88 -161Q56 -161 36 -142T16 -91Q16 -62 38 -33T96 15L113 7Q73 -33 73 -75Q73 -97 86 -110T133 -115Z" />
<glyph unicode="&#x2dc;" glyph-name="tilde" horiz-adv-x="243" d="M233 612Q233 538 171 538Q149 538 117 560T75 583Q57 583 57 563V540H21Q10 557 10 577Q10 650 72 650Q94 650 127 628T169 606Q186 606 186 626V650H222Q233 634 233 612Z" />
<glyph unicode="&#x2dd;" glyph-name="hungarumlaut" horiz-adv-x="218" d="M222 663L159 530H109L152 663H222ZM114 663L64 530H17L47 663H114Z" />
<glyph unicode="&#x326;" glyph-name="commaaccent" horiz-adv-x="192" d="M133 -130Q133 -167 113 -190T56 -213V-187Q73 -187 84 -174T95 -139H57V-47H133V-130Z" />
<glyph unicode="&#x1e80;" glyph-name="Wgrave" horiz-adv-x="513" d="M511 666L405 0H311L256 396L195 0H102L5 666H110L158 221L221 666H303L359 221L413 666H511ZM290 706H239L169 839H254L290 706Z" />
<glyph unicode="&#x1e81;" glyph-name="wgrave" horiz-adv-x="418" d="M412 480L327 0H252L221 190L209 289L196 190L165 0H90L7 480H94L122 247L133 143L144 247L176 480H249L278 247L290 143L301 247L331 480H412ZM240 530H189L119 663H204L240 530Z" />
<glyph unicode="&#x1e82;" glyph-name="Wacute" horiz-adv-x="513" d="M354 839L284 706H233L269 839H354ZM511 666L405 0H311L256 396L195 0H102L5 666H110L158 221L221 666H303L359 221L413 666H511Z" />
<glyph unicode="&#x1e83;" glyph-name="wacute" horiz-adv-x="418" d="M305 663L235 530H184L220 663H305ZM412 480L327 0H252L221 190L209 289L196 190L165 0H90L7 480H94L122 247L133 143L144 247L176 480H249L278 247L290 143L301 247L331 480H412Z" />
<glyph unicode="&#x1e84;" glyph-name="Wdieresis" horiz-adv-x="513" d="M351 712H281V805H351V712ZM239 712H169V805H239V712ZM511 666L405 0H311L256 396L195 0H102L5 666H110L158 221L221 666H303L359 221L413 666H511Z" />
<glyph unicode="&#x1e85;" glyph-name="wdieresis" horiz-adv-x="418" d="M302 536H232V629H302V536ZM190 536H120V629H190V536ZM412 480L327 0H252L221 190L209 289L196 190L165 0H90L7 480H94L122 247L133 143L144 247L176 480H249L278 247L290 143L301 247L331
480H412Z" />
<glyph unicode="&#x1ef2;" glyph-name="Ygrave" horiz-adv-x="349" d="M352 666L225 268V0H119V268L-1 666H107L178 387L247 666H352ZM205 704H154L84 837H169L205 704Z" />
<glyph unicode="&#x1ef3;" glyph-name="ygrave" horiz-adv-x="279" d="M272 480L175 -29Q160 -104 136 -135T50 -166H28V-92H46Q68 -92 76 -83T91 -48L99 7L7 480H94L130 244L142 148L153 244L188 480H272ZM169 530H118L48 663H133L169 530Z" />
<glyph unicode="&#x2002;" glyph-name="enspace" horiz-adv-x="500" />
<glyph unicode="&#x2003;" glyph-name="emspace" horiz-adv-x="1000" />
<glyph unicode="&#x2004;" glyph-name="threeperemspace" horiz-adv-x="333" />
<glyph unicode="&#x2005;" glyph-name="fourperemspace" horiz-adv-x="250" />
<glyph unicode="&#x2009;" glyph-name="thinspace" horiz-adv-x="133" />
<glyph unicode="&#x200a;" glyph-name="hairspace" horiz-adv-x="75" />
<glyph unicode="&#x2013;" glyph-name="endash" horiz-adv-x="450" d="M388 271H63V346H388V271Z" />
<glyph unicode="&#x2014;" glyph-name="emdash" horiz-adv-x="675" d="M613 271H63V346H613V271Z" />
<glyph unicode="&#x2018;" glyph-name="quoteleft" horiz-adv-x="138" d="M27 569Q27 612 50 639T116 667V641Q72 641 72 581H111V463H27V569Z" />
<glyph unicode="&#x2019;" glyph-name="quoteright" horiz-adv-x="138" d="M111 560Q111 517 88 490T22 462V488Q66 488 66 548H27V666H111V560Z" />
<glyph unicode="&#x201a;" glyph-name="quotesinglbase" horiz-adv-x="138" d="M111 11Q111 -32 88 -59T22 -86V-60Q66 -60 66 0H27V118H111V11Z" />
<glyph unicode="&#x201c;" glyph-name="quotedblleft" horiz-adv-x="249" d="M138 569Q138 612 161 639T227 667V641Q183 641 183 581H221V463H138V569ZM27 569Q27 612 50 639T116 667V641Q72 641 72 581H111V463H27V569Z" />
<glyph unicode="&#x201d;" glyph-name="quotedblright" horiz-adv-x="249" d="M221 560Q221 516 198 489T132 462V488Q177 488 177 548H138V666H221V560ZM111 560Q111 517 88 490T22 462V488Q66 488 66 548H27V666H111V560Z" />
<glyph unicode="&#x201e;" glyph-name="quotedblbase" horiz-adv-x="249" d="M221 11Q221 -32 198 -59T132 -86V-60Q177 -60 177 0H138V118H221V11ZM111 11Q111 -32 88 -59T22 -86V-60Q66 -60 66 0H27V118H111V11Z" />
<glyph unicode="&#x2020;" glyph-name="dagger" horiz-adv-x="322" d="M312 430Q312 419 300 419Q222 419 182 430Q193 390 193 254Q193 7 184 -60Q184 -72 174 -72H148Q137 -72 137 -60Q130 19 130 254Q130 389 140 430Q100 419 22 419Q10 419 10 430V470Q10
479 22 479Q100 479 140 470Q130 505 130 654Q130 666 140 666H182Q193 666 193 654Q193 510 183 470Q222 479 300 479Q312 479 312 470V430Z" />
<glyph unicode="&#x2021;" glyph-name="daggerdbl" horiz-adv-x="322" d="M312 120Q312 110 300 110Q220 110 183 120Q193 79 193 -64Q193 -76 182 -76H140Q130 -76 130 -64Q130 84 140 120Q101 110 22 110Q10 110 10 120V160Q10 170 22 170Q99 170 140 160Q130
201 130 293Q130 384 140 425Q100 414 22 414Q10 414 10 425V465Q10 475 22 475Q101 475 140 465Q130 501 130 649Q130 662 140 662H182Q193 662 193 649Q193 506 183 465Q220 475 300 475Q312 475 312 465V425Q312 414 300 414Q222 414 182 425Q193 385 193 293Q193
200 182 160Q223 170 300 170Q312 170 312 160V120Z" />
<glyph unicode="&#x2022;" glyph-name="bullet" horiz-adv-x="247" d="M227 381T227 333T198 257T124 228Q78 228 49 256T20 333Q20 381 49 409T124 437Q169 437 198 409Z" />
<glyph unicode="&#x2026;" glyph-name="ellipsis" horiz-adv-x="432" d="M400 0H316V118H400V0ZM258 0H174V118H258V0ZM115 0H32V118H115V0Z" />
<glyph unicode="&#x2030;" glyph-name="perthousand" horiz-adv-x="708" d="M202 432Q202 389 177 364T113 338Q75 338 50 363T25 432V584Q25 627 50 652T113 678Q152 678 177 653T202 584V432ZM452 658L82 -20L46 6L416 685L452 658ZM688 80Q688 37 664 12T600
-14Q562 -14 537 11T512 80V233Q512 276 536 301T600 326T663 301T688 233V80ZM472 80Q472 37 448 12T384 -14Q346 -14 321 11T296 80V233Q296 276 320 301T384 326T447 301T472 233V80ZM143 419V597Q143 610 135 618T113 627Q101 627 93 619T85 597V419Q85 406
93 398T113 389Q126 389 134 397T143 419ZM629 67V246Q629 259 621 267T600 275T579 267T571 246V67Q571 54 579 46T600 38T621 46T629 67ZM414 67V246Q414 259 406 267T384 275T363 267T355 246V67Q355 54 363 46T384 38T405 46T414 67Z" />
<glyph unicode="&#x2039;" glyph-name="guilsinglleft" horiz-adv-x="206" d="M180 0H138Q116 122 20 162V225Q116 265 138 387H180Q180 252 107 193Q180 134 180 0Z" />
<glyph unicode="&#x203a;" glyph-name="guilsinglright" horiz-adv-x="206" d="M185 162Q139 143 109 101T67 0H26Q26 134 99 193Q26 252 26 387H67Q78 329 108 287T185 225V162Z" />
<glyph unicode="&#x2044;" glyph-name="fraction" horiz-adv-x="94" d="M317 711L-181 -73L-221 -45L277 738L317 711Z" />
<glyph unicode="&#x20ac;" glyph-name="Euro" horiz-adv-x="375" d="M272 -13T201 -13T89 31T48 147V250H5V303H50V364H5V418H48V519Q48 589 89 634T201 679Q272 679 311 637T350 524V456H259V526Q259 552 245 567T203 582Q148 582 148 527V418H271V364H148V303H271V250H148V139Q148
84 203 84Q230 84 244 99T259 140V210H350V142Q350 72 311 30Z" />
<glyph unicode="&#x2117;" glyph-name="published" horiz-adv-x="611" d="M592 439T592 319T510 115T305 31T101 115T19 319T101 523T305 608T509 524ZM547 215T547 319T479 494T305 566Q200 566 132 495T64 319T132 144T305 72Q411 72 479 143ZM411 359Q411 289
334 289H279V190H230V452H334Q411 452 411 385V359ZM361 358V385Q361 415 329 415H279V328H329Q361 328 361 358Z" />
<glyph unicode="&#x2120;" glyph-name="servicemark" horiz-adv-x="472" d="M435 442H388V615L372 545L346 442H304L277 545L262 614V442H216V666H287L326 513L364 666H435V442ZM181 505Q181 475 158 456T97 436Q57 436 35 455T13 502V510H61Q60 495 70 486T97
477Q131 477 131 504Q131 517 113 525T74 539T34 560T16 604Q16 630 36 651T96 672Q134 672 155 653T176 605V595H129V598Q129 631 97 631Q66 631 66 605Q66 590 84 582T123 570T163 550T181 505Z" />
<glyph unicode="&#x2122;" glyph-name="trademark" horiz-adv-x="487" d="M184 622H125V442H75V622H16V666H184V622ZM440 442H393V615L377 545L351 442H309L282 545L267 614V442H221V666H292L331 513L369 666H440V442Z" />
<glyph unicode="&#x2212;" glyph-name="minus" horiz-adv-x="304" d="M274 281H30V355H274V281Z" />
<glyph unicode="&#xe000;" glyph-name="box.1" horiz-adv-x="507" d="M483 0H24V480H483V0Z" />
<glyph unicode="&#xe001;" glyph-name="box.2" horiz-adv-x="520" d="M496 0H24V492H496V0ZM445 49V443H75V49H445Z" />
<glyph unicode="&#xe010;" glyph-name="wedge.1_W" horiz-adv-x="345" d="M291 120L47 232V245L291 357V120Z" />
<glyph unicode="&#xe011;" glyph-name="wedge.1_E" horiz-adv-x="345" d="M303 232L59 120V357L303 245V232Z" />
<glyph unicode="&#xfb00;" glyph-name="f_f" horiz-adv-x="416" d="M411 591H396Q352 591 352 541V477H408V399H355V0H266V399H222V477H266V523Q266 666 387 666H411V591ZM203 591H188Q144 591 144 541V477H200V399H147V0H58V399H14V477H58V523Q58 666 179 666H203V591Z" />
<glyph unicode="&#xfb01;" glyph-name="fi" horiz-adv-x="366" d="M329 541H245V634H329V541ZM200 399H148V0H58V399H14V477H58V523Q58 666 179 666H203V591H189Q145 591 145 541V477H200V399ZM332 0H242V480H332V0Z" />
<glyph unicode="&#xfb02;" glyph-name="fl" horiz-adv-x="366" d="M332 0H242V666H332V0ZM200 399H148V0H58V399H14V477H58V523Q58 666 179 666H203V591H189Q145 591 145 541V477H200V399Z" />
<glyph unicode="&#xfb03;" glyph-name="f_f_i" horiz-adv-x="573" d="M537 541H452V634H537V541ZM411 591H396Q352 591 352 541V477H408V399H355V0H266V399H222V477H266V523Q266 666 387 666H411V591ZM203 591H188Q144 591 144 541V477H200V399H147V0H58V399H14V477H58V523Q58
666 179 666H203V591ZM539 0H450V479H539V0Z" />
<glyph unicode="&#xfb04;" glyph-name="f_f_l" horiz-adv-x="573" d="M539 0H450V666H539V0ZM411 591H396Q352 591 352 541V477H408V399H355V0H266V399H222V477H266V523Q266 666 387 666H411V591ZM203 591H188Q144 591 144 541V477H200V399H147V0H58V399H14V477H58V523Q58
666 179 666H203V591Z" />
</font>
</defs>
</svg>
